M48
; DRILL file {KiCad (6.0.5)} date Tue Jul 12 12:18:01 2022
; FORMAT={-:-/ absolute / metric / decimal}
; #@! TF.CreationDate,2022-07-12T12:18:01-06:00
; #@! TF.GenerationSoftware,Kicad,Pcbnew,(6.0.5)
; #@! TF.FileFunction,MixedPlating,1,2
FMAT,2
METRIC
; #@! TA.AperFunction,Plated,PTH,ComponentDrill
T1C0.700
; #@! TA.AperFunction,Plated,PTH,ComponentDrill
T2C0.900
; #@! TA.AperFunction,Plated,PTH,ComponentDrill
T3C1.000
%
G90
G05
T1
X20.27Y10.14
X20.27Y2.52
X22.81Y10.14
X22.81Y2.52
T2
X-0.443Y26.694
X0.828Y28.894
X1.169Y13.774
X2.439Y11.575
X25.544Y11.894
X27.001Y13.974
X28.212Y27.934
X29.482Y25.734
T3
X-0.08Y22.848
X-0.08Y20.308
X-0.08Y17.768
X2.46Y20.308
X2.46Y7.608
X2.46Y5.068
X2.486Y22.848
X2.486Y17.768
X5.0Y20.308
X5.02Y5.06
X5.02Y2.52
X5.026Y17.768
X5.026Y7.608
X7.54Y20.308
X7.56Y5.06
X7.56Y2.52
X7.566Y12.688
X10.1Y5.06
X10.1Y2.52
X12.646Y15.228
X15.186Y15.228
X20.266Y12.688
X22.806Y20.308
X22.806Y17.768
X25.346Y20.308
X25.346Y17.768
X25.346Y7.582
X25.346Y5.068
X27.886Y22.848
X27.886Y20.308
X27.886Y17.768
T0
M30
