%TF.GenerationSoftware,KiCad,Pcbnew,(6.0.5)*%
%TF.CreationDate,2022-07-12T12:17:59-06:00*%
%TF.ProjectId,jack,6a61636b-2e6b-4696-9361-645f70636258,rev?*%
%TF.SameCoordinates,PX7dfd6b0PY631d890*%
%TF.FileFunction,Soldermask,Top*%
%TF.FilePolarity,Negative*%
%FSLAX46Y46*%
G04 Gerber Fmt 4.6, Leading zero omitted, Abs format (unit mm)*
G04 Created by KiCad (PCBNEW (6.0.5)) date 2022-07-12 12:17:59*
%MOMM*%
%LPD*%
G01*
G04 APERTURE LIST*
G04 Aperture macros list*
%AMRotRect*
0 Rectangle, with rotation*
0 The origin of the aperture is its center*
0 $1 length*
0 $2 width*
0 $3 Rotation angle, in degrees counterclockwise*
0 Add horizontal line*
21,1,$1,$2,0,0,$3*%
G04 Aperture macros list end*
%ADD10RotRect,1.800000X1.800000X235.000000*%
%ADD11C,1.800000*%
%ADD12O,1.700000X1.700000*%
%ADD13C,1.700000*%
%ADD14RotRect,1.800000X1.800000X300.000000*%
%ADD15RotRect,1.800000X1.800000X240.000000*%
%ADD16C,1.400000*%
%ADD17O,1.400000X1.400000*%
G04 APERTURE END LIST*
%TO.C,G\u002A\u002A\u002A*%
G36*
X13217496Y12760397D02*
G01*
X13290007Y12752875D01*
X13358122Y12739433D01*
X13426462Y12720472D01*
X13427086Y12720279D01*
X13573093Y12659572D01*
X13720172Y12570677D01*
X13858586Y12461646D01*
X13978596Y12340532D01*
X14070465Y12215388D01*
X14096988Y12166344D01*
X14112890Y12120771D01*
X14134756Y12040406D01*
X14161115Y11932168D01*
X14190498Y11802979D01*
X14221436Y11659757D01*
X14252458Y11509422D01*
X14282095Y11358893D01*
X14308878Y11215092D01*
X14331336Y11084936D01*
X14344127Y11002718D01*
X14346339Y10870505D01*
X14319461Y10719304D01*
X14265481Y10558923D01*
X14244505Y10510931D01*
X14176599Y10363608D01*
X14239121Y10319708D01*
X14337302Y10238142D01*
X14429332Y10139380D01*
X14502030Y10038289D01*
X14523476Y9999025D01*
X14545840Y9938678D01*
X14573181Y9841674D01*
X14604351Y9713283D01*
X14638199Y9558771D01*
X14673576Y9383407D01*
X14709331Y9192459D01*
X14744316Y8991193D01*
X14747099Y8974489D01*
X14763747Y8865003D01*
X14771497Y8783260D01*
X14770773Y8715673D01*
X14761997Y8648653D01*
X14757930Y8626990D01*
X14702326Y8440470D01*
X14613471Y8262564D01*
X14497032Y8100221D01*
X14358678Y7960391D01*
X14204079Y7850020D01*
X14073377Y7787924D01*
X14027043Y7774286D01*
X13944661Y7753841D01*
X13831782Y7727815D01*
X13693957Y7697435D01*
X13536737Y7663926D01*
X13365674Y7628514D01*
X13204033Y7595943D01*
X12965010Y7549098D01*
X12762762Y7511301D01*
X12592756Y7482194D01*
X12450457Y7461413D01*
X12331332Y7448599D01*
X12230844Y7443388D01*
X12144461Y7445420D01*
X12067649Y7454333D01*
X11995871Y7469767D01*
X11924596Y7491359D01*
X11918407Y7493469D01*
X11726766Y7580285D01*
X11556397Y7699521D01*
X11411759Y7846300D01*
X11297315Y8015744D01*
X11217525Y8202975D01*
X11195921Y8283492D01*
X11181046Y8405452D01*
X11198479Y8506912D01*
X11250453Y8597214D01*
X11278568Y8629337D01*
X11375989Y8705563D01*
X11481488Y8743528D01*
X11588877Y8744864D01*
X11691968Y8711204D01*
X11784575Y8644183D01*
X11860509Y8545433D01*
X11897649Y8465936D01*
X11953452Y8348984D01*
X12023828Y8266343D01*
X12115795Y8210635D01*
X12154092Y8196231D01*
X12193557Y8184072D01*
X12230021Y8176882D01*
X12271238Y8175197D01*
X12324958Y8179553D01*
X12398936Y8190487D01*
X12500923Y8208534D01*
X12600838Y8227133D01*
X12895170Y8283057D01*
X13151769Y8333362D01*
X13369979Y8377904D01*
X13549140Y8416539D01*
X13688594Y8449124D01*
X13787684Y8475517D01*
X13845750Y8495573D01*
X13854501Y8499994D01*
X13925281Y8558836D01*
X13987797Y8640745D01*
X14027955Y8726826D01*
X14030446Y8735913D01*
X14030396Y8772210D01*
X14022716Y8842100D01*
X14008844Y8937786D01*
X13990214Y9051475D01*
X13968262Y9175369D01*
X13944423Y9301675D01*
X13920134Y9422597D01*
X13896829Y9530339D01*
X13875945Y9617106D01*
X13858917Y9675103D01*
X13856118Y9682520D01*
X13806411Y9757098D01*
X13726553Y9822931D01*
X13628760Y9870618D01*
X13600534Y9879251D01*
X13562940Y9886719D01*
X13519601Y9888862D01*
X13463396Y9884878D01*
X13387207Y9873967D01*
X13283911Y9855329D01*
X13146780Y9828243D01*
X13018531Y9803620D01*
X12896352Y9782461D01*
X12789728Y9766239D01*
X12708145Y9756428D01*
X12669996Y9754161D01*
X12552116Y9772992D01*
X12453874Y9825606D01*
X12379848Y9906185D01*
X12334614Y10008911D01*
X12322751Y10127966D01*
X12329764Y10186633D01*
X12364857Y10275658D01*
X12429789Y10359032D01*
X12512990Y10422132D01*
X12518354Y10424977D01*
X12559351Y10439706D01*
X12634193Y10460408D01*
X12735097Y10485173D01*
X12854278Y10512091D01*
X12983953Y10539254D01*
X12986002Y10539666D01*
X13149421Y10574204D01*
X13280260Y10605403D01*
X13375687Y10632515D01*
X13432869Y10654789D01*
X13442498Y10660676D01*
X13504628Y10720598D01*
X13561624Y10798589D01*
X13600497Y10876069D01*
X13606341Y10895046D01*
X13606350Y10931846D01*
X13598606Y11002116D01*
X13584586Y11097971D01*
X13565768Y11211531D01*
X13543627Y11334912D01*
X13519642Y11460232D01*
X13495288Y11579609D01*
X13472042Y11685161D01*
X13451382Y11769004D01*
X13434784Y11823256D01*
X13430613Y11832997D01*
X13374521Y11908473D01*
X13292389Y11975083D01*
X13200356Y12019947D01*
X13193807Y12021986D01*
X13168638Y12027367D01*
X13136241Y12029356D01*
X13092291Y12027305D01*
X13032462Y12020566D01*
X12952430Y12008492D01*
X12847871Y11990436D01*
X12714458Y11965748D01*
X12547868Y11933781D01*
X12360544Y11897183D01*
X12151151Y11855291D01*
X11965580Y11816607D01*
X11807222Y11781902D01*
X11679467Y11751951D01*
X11585705Y11727528D01*
X11529326Y11709405D01*
X11520602Y11705515D01*
X11444539Y11655236D01*
X11390395Y11589482D01*
X11354544Y11500843D01*
X11333362Y11381907D01*
X11327233Y11310228D01*
X11315755Y11192411D01*
X11295678Y11106156D01*
X11261959Y11040807D01*
X11209552Y10985706D01*
X11153823Y10943924D01*
X11103494Y10915075D01*
X11051408Y10901934D01*
X10980093Y10900868D01*
X10953619Y10902279D01*
X10832757Y10923281D01*
X10741088Y10971710D01*
X10672843Y11051062D01*
X10655255Y11083060D01*
X10637312Y11127486D01*
X10625516Y11180979D01*
X10618748Y11253004D01*
X10615887Y11353024D01*
X10615571Y11418229D01*
X10616019Y11526842D01*
X10618827Y11604617D01*
X10626196Y11663081D01*
X10640323Y11713765D01*
X10663409Y11768198D01*
X10694364Y11831323D01*
X10809105Y12027227D01*
X10939820Y12185472D01*
X11089234Y12308642D01*
X11260067Y12399324D01*
X11314654Y12420142D01*
X11365017Y12434617D01*
X11451288Y12455775D01*
X11567753Y12482363D01*
X11708700Y12513133D01*
X11868416Y12546834D01*
X12041189Y12582217D01*
X12198560Y12613568D01*
X12431265Y12658727D01*
X12627219Y12695156D01*
X12791044Y12723257D01*
X12927362Y12743429D01*
X13040795Y12756076D01*
X13135966Y12761598D01*
X13217496Y12760397D01*
G37*
G36*
X17986503Y33538339D02*
G01*
X18204813Y33506020D01*
X18412410Y33447899D01*
X18622679Y33360949D01*
X18667965Y33338973D01*
X18898239Y33201493D01*
X19103180Y33031783D01*
X19279734Y32833653D01*
X19424844Y32610911D01*
X19535457Y32367368D01*
X19590046Y32189274D01*
X19616265Y32037447D01*
X19627692Y31862469D01*
X19624726Y31679165D01*
X19607768Y31502362D01*
X19577218Y31346883D01*
X19566288Y31309207D01*
X19470079Y31067700D01*
X19341104Y30841933D01*
X19184454Y30639563D01*
X19009326Y30471588D01*
X18889066Y30386087D01*
X18740644Y30300255D01*
X18577681Y30220777D01*
X18413797Y30154341D01*
X18273703Y30110432D01*
X18139078Y30084015D01*
X17979675Y30065734D01*
X17808976Y30056041D01*
X17640462Y30055387D01*
X17487615Y30064225D01*
X17376183Y30080336D01*
X17098951Y30157311D01*
X16841042Y30268139D01*
X16606357Y30410542D01*
X16398798Y30582244D01*
X16261580Y30730950D01*
X16181763Y30842034D01*
X16101392Y30977291D01*
X16026902Y31123724D01*
X15964731Y31268336D01*
X15921313Y31398131D01*
X15911842Y31437167D01*
X15883566Y31659696D01*
X15887130Y31896958D01*
X15920716Y32137953D01*
X15982507Y32371679D01*
X16070686Y32587134D01*
X16115499Y32670121D01*
X16186599Y32772156D01*
X16284618Y32886412D01*
X16399959Y33003620D01*
X16523026Y33114513D01*
X16644221Y33209822D01*
X16738046Y33271340D01*
X16961150Y33387185D01*
X17175649Y33469225D01*
X17393446Y33520731D01*
X17626443Y33544977D01*
X17744095Y33547883D01*
X17986503Y33538339D01*
G37*
G36*
X16045035Y4132130D02*
G01*
X16003949Y4338657D01*
X15957130Y4578753D01*
X15903700Y4855460D01*
X15865640Y5053122D01*
X15805182Y5367918D01*
X15752594Y5644155D01*
X15707525Y5884839D01*
X15669618Y6092972D01*
X15638521Y6271560D01*
X15613880Y6423606D01*
X15595341Y6552115D01*
X15582549Y6660091D01*
X15575152Y6750538D01*
X15574785Y6762345D01*
X16303561Y6762345D01*
X16307485Y6716465D01*
X16318298Y6638288D01*
X16334555Y6537058D01*
X16354817Y6422021D01*
X16365840Y6363044D01*
X16387500Y6249199D01*
X16415072Y6103960D01*
X16446614Y5937568D01*
X16480187Y5760265D01*
X16513849Y5582291D01*
X16536136Y5464337D01*
X16570575Y5281898D01*
X16598093Y5136998D01*
X16619756Y5025563D01*
X16636627Y4943522D01*
X16649772Y4886803D01*
X16660255Y4851334D01*
X16669140Y4833043D01*
X16677492Y4827859D01*
X16686376Y4831710D01*
X16696857Y4840524D01*
X16698803Y4842165D01*
X16722339Y4867625D01*
X16766074Y4920241D01*
X16824650Y4993377D01*
X16892710Y5080396D01*
X16926274Y5123972D01*
X16979974Y5194034D01*
X17055823Y5292991D01*
X17150196Y5416114D01*
X17259467Y5558673D01*
X17380011Y5715936D01*
X17508200Y5883175D01*
X17640410Y6055658D01*
X17747368Y6195196D01*
X17872825Y6359171D01*
X17990962Y6514162D01*
X18099150Y6656680D01*
X18194758Y6783231D01*
X18275157Y6890325D01*
X18337717Y6974471D01*
X18379809Y7032177D01*
X18398804Y7059953D01*
X18399066Y7060430D01*
X18416128Y7128895D01*
X18393034Y7198147D01*
X18328902Y7270783D01*
X18327204Y7272280D01*
X18240457Y7334160D01*
X18148009Y7367826D01*
X18039263Y7375598D01*
X17917202Y7362124D01*
X17831199Y7347193D01*
X17718670Y7326777D01*
X17586305Y7302173D01*
X17440793Y7274679D01*
X17288825Y7245591D01*
X17137088Y7216205D01*
X16992275Y7187820D01*
X16861073Y7161732D01*
X16750173Y7139238D01*
X16666265Y7121635D01*
X16616037Y7110220D01*
X16610802Y7108844D01*
X16491862Y7058844D01*
X16397567Y6984407D01*
X16333336Y6891643D01*
X16304586Y6786665D01*
X16303561Y6762345D01*
X15574785Y6762345D01*
X15572795Y6826460D01*
X15575124Y6890863D01*
X15581785Y6946749D01*
X15592425Y6997123D01*
X15606690Y7044989D01*
X15624226Y7093352D01*
X15625063Y7095529D01*
X15698452Y7248578D01*
X15795422Y7395191D01*
X15908788Y7527421D01*
X16031364Y7637319D01*
X16155963Y7716937D01*
X16207228Y7739456D01*
X16258944Y7754804D01*
X16346517Y7776272D01*
X16464064Y7802720D01*
X16605700Y7833006D01*
X16765540Y7865990D01*
X16937700Y7900530D01*
X17116296Y7935486D01*
X17295443Y7969716D01*
X17469257Y8002080D01*
X17631854Y8031437D01*
X17777349Y8056646D01*
X17899858Y8076565D01*
X17993497Y8090055D01*
X18043008Y8095402D01*
X18243630Y8089661D01*
X18437586Y8042414D01*
X18623551Y7954185D01*
X18800202Y7825497D01*
X18857521Y7772992D01*
X18916043Y7714281D01*
X18965422Y7657934D01*
X19007463Y7599018D01*
X19043975Y7532598D01*
X19076762Y7453739D01*
X19107632Y7357507D01*
X19138390Y7238968D01*
X19170844Y7093186D01*
X19206799Y6915228D01*
X19245705Y6712611D01*
X19278083Y6541701D01*
X19316611Y6338347D01*
X19359550Y6111730D01*
X19405159Y5871033D01*
X19451699Y5625440D01*
X19497430Y5384132D01*
X19540612Y5156293D01*
X19545904Y5128370D01*
X19587815Y4906870D01*
X19622361Y4722761D01*
X19650143Y4571820D01*
X19671758Y4449824D01*
X19687806Y4352550D01*
X19698885Y4275774D01*
X19705596Y4215276D01*
X19708536Y4166831D01*
X19708305Y4126216D01*
X19705503Y4089209D01*
X19700726Y4051587D01*
X19699681Y4044270D01*
X19652380Y3853632D01*
X19569572Y3672043D01*
X19456484Y3505989D01*
X19318345Y3361957D01*
X19160382Y3246431D01*
X18993141Y3167734D01*
X18936313Y3151528D01*
X18843898Y3129511D01*
X18722096Y3102852D01*
X18577110Y3072718D01*
X18415141Y3040278D01*
X18242392Y3006699D01*
X18065064Y2973150D01*
X17889358Y2940800D01*
X17721478Y2910815D01*
X17567624Y2884364D01*
X17433998Y2862616D01*
X17326803Y2846738D01*
X17252240Y2837898D01*
X17235671Y2836716D01*
X17141552Y2835472D01*
X17049453Y2839855D01*
X16981459Y2848562D01*
X16858931Y2886263D01*
X16723076Y2948120D01*
X16588226Y3026190D01*
X16468708Y3112531D01*
X16410063Y3165257D01*
X16369376Y3206156D01*
X16333479Y3244132D01*
X16301496Y3282225D01*
X16272548Y3323477D01*
X16245760Y3370929D01*
X16220254Y3427621D01*
X16195153Y3496595D01*
X16169581Y3580892D01*
X16142660Y3683553D01*
X16113513Y3807619D01*
X16106858Y3838268D01*
X16858809Y3838268D01*
X16862362Y3794567D01*
X16874767Y3760860D01*
X16922036Y3690949D01*
X16997110Y3625908D01*
X17085718Y3575566D01*
X17173587Y3549752D01*
X17182639Y3548828D01*
X17207707Y3552258D01*
X17269507Y3562760D01*
X17363155Y3579444D01*
X17483769Y3601423D01*
X17626467Y3627807D01*
X17786366Y3657709D01*
X17934682Y3685705D01*
X18107931Y3718779D01*
X18270242Y3750213D01*
X18416332Y3778948D01*
X18540922Y3803929D01*
X18638732Y3824099D01*
X18704480Y3838401D01*
X18730693Y3844986D01*
X18800845Y3882991D01*
X18871797Y3946043D01*
X18928966Y4019713D01*
X18950302Y4062254D01*
X18964520Y4110925D01*
X18970649Y4166038D01*
X18968197Y4235259D01*
X18956671Y4326254D01*
X18935578Y4446688D01*
X18920654Y4523547D01*
X18902958Y4613910D01*
X18879044Y4737676D01*
X18850489Y4886600D01*
X18818868Y5052438D01*
X18785756Y5226948D01*
X18752729Y5401885D01*
X18748949Y5421968D01*
X18718637Y5581455D01*
X18690198Y5728027D01*
X18664712Y5856347D01*
X18643261Y5961079D01*
X18626926Y6036889D01*
X18616789Y6078438D01*
X18614758Y6084188D01*
X18596143Y6100286D01*
X18565798Y6084188D01*
X18547340Y6063159D01*
X18505935Y6011868D01*
X18444255Y5933798D01*
X18364971Y5832434D01*
X18270754Y5711259D01*
X18164276Y5573758D01*
X18048207Y5423414D01*
X17925221Y5263710D01*
X17797987Y5098132D01*
X17669177Y4930162D01*
X17541463Y4763286D01*
X17417516Y4600986D01*
X17300007Y4446747D01*
X17191608Y4304052D01*
X17094991Y4176385D01*
X17012825Y4067231D01*
X16947784Y3980073D01*
X16902537Y3918396D01*
X16879758Y3885682D01*
X16878714Y3883959D01*
X16858809Y3838268D01*
X16106858Y3838268D01*
X16081264Y3956131D01*
X16045035Y4132130D01*
G37*
G36*
X20545714Y28827222D02*
G01*
X20768728Y28785797D01*
X20895864Y28742819D01*
X21048355Y28675437D01*
X21164027Y28608295D01*
X21248165Y28536872D01*
X21306050Y28456644D01*
X21342965Y28363088D01*
X21344055Y28359096D01*
X21355403Y28245032D01*
X21325551Y28139598D01*
X21254356Y28042527D01*
X21141676Y27953551D01*
X21122994Y27941973D01*
X21044484Y27889432D01*
X20981681Y27832972D01*
X20931295Y27766080D01*
X20890036Y27682240D01*
X20854615Y27574939D01*
X20821743Y27437661D01*
X20792367Y27287194D01*
X20725476Y26957567D01*
X20649980Y26657669D01*
X20562112Y26375139D01*
X20458103Y26097613D01*
X20360456Y25870255D01*
X20163991Y25483660D01*
X19928901Y25105723D01*
X19658614Y24739924D01*
X19356556Y24389741D01*
X19026155Y24058652D01*
X18670836Y23750135D01*
X18294026Y23467669D01*
X17899153Y23214732D01*
X17564028Y23031670D01*
X17181426Y22856366D01*
X16770961Y22701218D01*
X16343749Y22569772D01*
X15910904Y22465575D01*
X15625325Y22413099D01*
X15546243Y22401610D01*
X15441715Y22388112D01*
X15318954Y22373364D01*
X15185168Y22358127D01*
X15047569Y22343161D01*
X14913367Y22329227D01*
X14789773Y22317085D01*
X14683997Y22307494D01*
X14603250Y22301215D01*
X14554742Y22299008D01*
X14546531Y22299361D01*
X14508949Y22302437D01*
X14443992Y22306381D01*
X14375788Y22309853D01*
X14241697Y22318382D01*
X14078481Y22332312D01*
X13898835Y22350259D01*
X13715454Y22370838D01*
X13541036Y22392666D01*
X13388275Y22414358D01*
X13327164Y22424181D01*
X12794850Y22534180D01*
X12283855Y22680461D01*
X11794688Y22862725D01*
X11327855Y23080676D01*
X10883864Y23334016D01*
X10463223Y23622448D01*
X10066439Y23945674D01*
X9694020Y24303398D01*
X9346474Y24695322D01*
X9254496Y24810115D01*
X8987220Y25184967D01*
X8752212Y25585055D01*
X8551142Y26006306D01*
X8385685Y26444647D01*
X8257510Y26896006D01*
X8168292Y27356308D01*
X8148245Y27504802D01*
X8134457Y27593664D01*
X8116950Y27671322D01*
X8098955Y27724122D01*
X8094414Y27732370D01*
X8057662Y27769332D01*
X7997697Y27811680D01*
X7951993Y27837485D01*
X7805876Y27926061D01*
X7697363Y28023241D01*
X7627172Y28126558D01*
X7596018Y28233540D01*
X7604620Y28341719D01*
X7653693Y28448625D01*
X7743954Y28551789D01*
X7744504Y28552286D01*
X7884952Y28652027D01*
X8052930Y28726315D01*
X8241720Y28774642D01*
X8444602Y28796496D01*
X8654858Y28791368D01*
X8865770Y28758747D01*
X9070617Y28698122D01*
X9162545Y28659968D01*
X9295999Y28583755D01*
X9389163Y28495489D01*
X9431858Y28423524D01*
X9458694Y28311592D01*
X9452007Y28192649D01*
X9414931Y28078964D01*
X9350600Y27982808D01*
X9309745Y27945554D01*
X9252818Y27909728D01*
X9173693Y27868936D01*
X9094813Y27834229D01*
X9023596Y27803565D01*
X8969162Y27771941D01*
X8930994Y27734456D01*
X8908577Y27686206D01*
X8901394Y27622291D01*
X8908930Y27537806D01*
X8930668Y27427850D01*
X8966093Y27287519D01*
X9014689Y27111913D01*
X9017675Y27101341D01*
X9171484Y26630493D01*
X9359712Y26184129D01*
X9582011Y25762714D01*
X9838034Y25366715D01*
X10127435Y24996600D01*
X10449865Y24652833D01*
X10804980Y24335882D01*
X11192431Y24046214D01*
X11382690Y23921458D01*
X11822991Y23668275D01*
X12272994Y23456035D01*
X12731871Y23284907D01*
X13198799Y23155060D01*
X13672953Y23066665D01*
X14153508Y23019891D01*
X14639638Y23014908D01*
X15130519Y23051886D01*
X15413820Y23092084D01*
X15868898Y23188408D01*
X16317844Y23324211D01*
X16756581Y23497263D01*
X17181036Y23705331D01*
X17587134Y23946185D01*
X17970800Y24217592D01*
X18327960Y24517321D01*
X18654540Y24843141D01*
X18697274Y24890358D01*
X18993017Y25249832D01*
X19258639Y25631347D01*
X19491872Y26030476D01*
X19690445Y26442791D01*
X19852087Y26863867D01*
X19974530Y27289276D01*
X20010274Y27450980D01*
X20032053Y27567667D01*
X20039828Y27652132D01*
X20029707Y27713298D01*
X19997799Y27760085D01*
X19940213Y27801416D01*
X19853056Y27846214D01*
X19833903Y27855346D01*
X19688502Y27939186D01*
X19578842Y28033712D01*
X19505648Y28135527D01*
X19469645Y28241233D01*
X19471558Y28347434D01*
X19512113Y28450732D01*
X19592034Y28547729D01*
X19672701Y28610663D01*
X19875743Y28720806D01*
X20093044Y28794058D01*
X20318427Y28829753D01*
X20545714Y28827222D01*
G37*
G36*
X11855152Y33517052D02*
G01*
X12124487Y33455252D01*
X12379335Y33357115D01*
X12414566Y33339941D01*
X12615846Y33222051D01*
X12807156Y33077633D01*
X12979403Y32914864D01*
X13123490Y32741922D01*
X13187841Y32644760D01*
X13292423Y32431600D01*
X13365764Y32197725D01*
X13405786Y31953151D01*
X13410413Y31707895D01*
X13401897Y31611910D01*
X13351672Y31346416D01*
X13267321Y31103675D01*
X13146866Y30879834D01*
X12988329Y30671037D01*
X12842270Y30521082D01*
X12660157Y30377501D01*
X12445945Y30254899D01*
X12205737Y30155934D01*
X11945636Y30083262D01*
X11760915Y30050274D01*
X11652363Y30037088D01*
X11560175Y30031560D01*
X11467265Y30033656D01*
X11356549Y30043337D01*
X11303711Y30049295D01*
X11017164Y30102298D01*
X10750986Y30190997D01*
X10507222Y30313965D01*
X10287914Y30469777D01*
X10095106Y30657004D01*
X9930840Y30874221D01*
X9810031Y31092192D01*
X9750536Y31228629D01*
X9708744Y31353397D01*
X9681965Y31479548D01*
X9667506Y31620131D01*
X9662678Y31788198D01*
X9662621Y31807039D01*
X9667689Y31987826D01*
X9685442Y32141233D01*
X9718990Y32281150D01*
X9771440Y32421470D01*
X9825967Y32537151D01*
X9964149Y32765104D01*
X10136451Y32970378D01*
X10339367Y33149778D01*
X10569394Y33300108D01*
X10768089Y33396259D01*
X11027796Y33482118D01*
X11300048Y33530716D01*
X11578086Y33542284D01*
X11855152Y33517052D01*
G37*
%TD*%
D10*
%TO.C,D4*%
X27001310Y13974419D03*
D11*
X25544426Y11893773D03*
%TD*%
D12*
%TO.C,X1*%
X5020000Y5060000D03*
X5020000Y2520000D03*
D13*
X7560000Y5060000D03*
D12*
X7560000Y2520000D03*
D13*
X10100000Y5060000D03*
D12*
X10100000Y2520000D03*
%TD*%
D13*
%TO.C,G\u002A\u002A\u002A*%
X27885807Y20307834D03*
X25345807Y7582434D03*
X5000407Y20307834D03*
X15185807Y15227834D03*
X2485807Y22847834D03*
X5025807Y7607834D03*
X-79593Y17767834D03*
X7565807Y12687834D03*
X20265807Y12687834D03*
X5025807Y17767834D03*
X2460407Y7607834D03*
X25345807Y20307834D03*
X27885807Y17767834D03*
X27885807Y22847834D03*
X22805807Y20307834D03*
X22805807Y17767834D03*
X-79593Y20307834D03*
X12645807Y15227834D03*
X2485807Y17767834D03*
X2460407Y20307834D03*
X25345807Y5067834D03*
X-79593Y22847834D03*
X2460407Y5067834D03*
X25345807Y17767834D03*
X7540407Y20307834D03*
%TD*%
D14*
%TO.C,D2*%
X28212500Y27934182D03*
D11*
X29482500Y25734477D03*
%TD*%
D14*
%TO.C,D3*%
X1168690Y13774419D03*
D11*
X2438690Y11574714D03*
%TD*%
D15*
%TO.C,D1*%
X827500Y28894182D03*
D11*
X-442500Y26694477D03*
%TD*%
D16*
%TO.C,R2*%
X22810000Y2520000D03*
D17*
X22810000Y10140000D03*
%TD*%
D16*
%TO.C,R1*%
X20270000Y2520000D03*
D17*
X20270000Y10140000D03*
%TD*%
M02*
