%TF.GenerationSoftware,KiCad,Pcbnew,(6.0.5)*%
%TF.CreationDate,2022-07-12T12:17:59-06:00*%
%TF.ProjectId,jack,6a61636b-2e6b-4696-9361-645f70636258,rev?*%
%TF.SameCoordinates,PX7dfd6b0PY631d890*%
%TF.FileFunction,Legend,Bot*%
%TF.FilePolarity,Positive*%
%FSLAX46Y46*%
G04 Gerber Fmt 4.6, Leading zero omitted, Abs format (unit mm)*
G04 Created by KiCad (PCBNEW (6.0.5)) date 2022-07-12 12:17:59*
%MOMM*%
%LPD*%
G01*
G04 APERTURE LIST*
%ADD10C,0.150000*%
%ADD11C,0.120000*%
%ADD12C,0.300000*%
G04 APERTURE END LIST*
D10*
X8990000Y6810000D02*
X13810000Y6810000D01*
X5020000Y13920000D02*
X4245000Y12820000D01*
X24805000Y27130000D02*
X26335000Y27130000D01*
X3532500Y27420000D02*
X3527500Y26420000D01*
X25570000Y27130000D02*
X25565000Y26130000D01*
X2767500Y27420000D02*
X4297500Y27420000D01*
X23897500Y13980000D02*
X23142500Y15080000D01*
X26335000Y27130000D02*
X25580000Y28230000D01*
X4297500Y27420000D02*
X3542500Y28520000D01*
X23142500Y15080000D02*
X23147500Y15880000D01*
X22357500Y15080000D02*
X23927500Y15080000D01*
X5775000Y12820000D02*
X5020000Y13920000D01*
X2757500Y28520000D02*
X4327500Y28520000D01*
X6070000Y6800000D02*
X6070000Y6190000D01*
X23142500Y15080000D02*
X22367500Y13980000D01*
X1350000Y6800000D02*
X1340000Y3200000D01*
X6070000Y6190000D02*
X8990000Y6200000D01*
X1350000Y6800000D02*
X6070000Y6800000D01*
X5020000Y13920000D02*
X5025000Y14720000D01*
X3542500Y28520000D02*
X3547500Y29320000D01*
X8990000Y6200000D02*
X8990000Y6810000D01*
X22367500Y13980000D02*
X23897500Y13980000D01*
X13810000Y6810000D02*
X13820000Y1320000D01*
X25580000Y28230000D02*
X25585000Y29030000D01*
X5010000Y12820000D02*
X5005000Y11820000D01*
X3542500Y28520000D02*
X2767500Y27420000D01*
X4235000Y13920000D02*
X5805000Y13920000D01*
X4245000Y12820000D02*
X5775000Y12820000D01*
X23132500Y13980000D02*
X23127500Y12980000D01*
X24795000Y28230000D02*
X26365000Y28230000D01*
X25580000Y28230000D02*
X24805000Y27130000D01*
D11*
%TO.C,D4*%
X26282963Y14831436D02*
X26155175Y14920914D01*
X28180119Y13503033D02*
X28052331Y13592511D01*
X26155572Y14920636D02*
G75*
G03*
X24430112Y12182863I117296J-1986540D01*
G01*
X26197200Y10945535D02*
G75*
G03*
X28179723Y13503310I75668J1988561D01*
G01*
D12*
%TO.C,X1*%
X6310000Y7000000D02*
X8810000Y7000000D01*
D11*
%TO.C,D2*%
X27132193Y27645329D02*
X26997093Y27567329D01*
X29137907Y28803329D02*
X29002807Y28725329D01*
X30617768Y25925349D02*
G75*
G03*
X29137488Y28803087I-1770268J908981D01*
G01*
X26997512Y27567571D02*
G75*
G03*
X28749566Y24846741I1849988J-733241D01*
G01*
%TO.C,D3*%
X2094097Y14643566D02*
X1958997Y14565566D01*
X88383Y13485566D02*
X-46717Y13407566D01*
X-46298Y13407808D02*
G75*
G03*
X1705756Y10686978I1849988J-733241D01*
G01*
X3573958Y11765586D02*
G75*
G03*
X2093678Y14643324I-1770268J908981D01*
G01*
%TO.C,D1*%
X2042907Y28527329D02*
X1907807Y28605329D01*
X37193Y29685329D02*
X-97907Y29763329D01*
X290434Y25806742D02*
G75*
G03*
X2042488Y28527571I-97934J1987588D01*
G01*
X-97488Y29763088D02*
G75*
G03*
X-1577769Y26885349I289988J-1968758D01*
G01*
%TO.C,R2*%
X23730000Y4410000D02*
X21890000Y4410000D01*
X22810000Y9200000D02*
X22810000Y8250000D01*
X22810000Y3460000D02*
X22810000Y4410000D01*
X21890000Y4410000D02*
X21890000Y8250000D01*
X21890000Y8250000D02*
X23730000Y8250000D01*
X23730000Y8250000D02*
X23730000Y4410000D01*
%TO.C,R1*%
X21190000Y8250000D02*
X21190000Y4410000D01*
X20270000Y3460000D02*
X20270000Y4410000D01*
X21190000Y4410000D02*
X19350000Y4410000D01*
X19350000Y4410000D02*
X19350000Y8250000D01*
X19350000Y8250000D02*
X21190000Y8250000D01*
X20270000Y9200000D02*
X20270000Y8250000D01*
%TO.C,G\u002A\u002A\u002A*%
G36*
X13816488Y21290844D02*
G01*
X13803498Y21204425D01*
X13784913Y21132455D01*
X13759559Y21069219D01*
X13726260Y21009002D01*
X13683841Y20946087D01*
X13631127Y20874759D01*
X13595477Y20829546D01*
X13441661Y20674719D01*
X13266446Y20555408D01*
X13072554Y20473193D01*
X12862711Y20429650D01*
X12860628Y20429431D01*
X12801973Y20425721D01*
X12707076Y20422513D01*
X12581743Y20419884D01*
X12431774Y20417911D01*
X12262975Y20416671D01*
X12081147Y20416242D01*
X11892094Y20416702D01*
X11847337Y20416923D01*
X11646848Y20418047D01*
X11483251Y20419374D01*
X11351982Y20421146D01*
X11248473Y20423605D01*
X11168160Y20426991D01*
X11106476Y20431547D01*
X11058855Y20437514D01*
X11020732Y20445134D01*
X10987541Y20454648D01*
X10954714Y20466298D01*
X10826998Y20523972D01*
X10661144Y20630192D01*
X10513787Y20761049D01*
X10390891Y20910092D01*
X10298420Y21070869D01*
X10242337Y21236930D01*
X10242313Y21237047D01*
X10238879Y21273264D01*
X10235233Y21348291D01*
X10231449Y21458598D01*
X10227599Y21600654D01*
X10223759Y21770928D01*
X10220000Y21965890D01*
X10216397Y22182010D01*
X10213023Y22415755D01*
X10212896Y22425965D01*
X10938799Y22425965D01*
X10938852Y22351279D01*
X10939620Y22137663D01*
X10941245Y21943979D01*
X10943651Y21773967D01*
X10946763Y21631366D01*
X10950503Y21519914D01*
X10954796Y21443351D01*
X10959566Y21405416D01*
X11001177Y21320412D01*
X11077179Y21236251D01*
X11176279Y21168994D01*
X11202529Y21156933D01*
X11233119Y21147344D01*
X11272771Y21140331D01*
X11327035Y21135570D01*
X11401461Y21132737D01*
X11501599Y21131510D01*
X11633001Y21131564D01*
X11801216Y21132576D01*
X11903761Y21133394D01*
X12132884Y21135877D01*
X12324735Y21139159D01*
X12482957Y21143471D01*
X12611192Y21149044D01*
X12713083Y21156106D01*
X12792273Y21164888D01*
X12852403Y21175621D01*
X12897115Y21188533D01*
X12930053Y21203856D01*
X12959783Y21223580D01*
X13031613Y21293187D01*
X13081125Y21374586D01*
X13099525Y21454759D01*
X13098481Y21466786D01*
X13092177Y21485866D01*
X13077825Y21509629D01*
X13052769Y21540648D01*
X13014357Y21581498D01*
X12959935Y21634753D01*
X12886851Y21702987D01*
X12792449Y21788773D01*
X12674078Y21894686D01*
X12529083Y22023300D01*
X12354811Y22177189D01*
X12213764Y22301570D01*
X11990935Y22497993D01*
X11796698Y22669070D01*
X11629049Y22816530D01*
X11485983Y22942101D01*
X11365496Y23047511D01*
X11265582Y23134488D01*
X11184237Y23204761D01*
X11119457Y23260057D01*
X11069237Y23302105D01*
X11031571Y23332633D01*
X11004456Y23353368D01*
X10985887Y23366040D01*
X10973859Y23372375D01*
X10966367Y23374103D01*
X10965875Y23374072D01*
X10959202Y23365816D01*
X10953662Y23340737D01*
X10949162Y23295645D01*
X10945609Y23227344D01*
X10942910Y23132643D01*
X10940972Y23008348D01*
X10939703Y22851265D01*
X10939010Y22658202D01*
X10938799Y22425965D01*
X10212896Y22425965D01*
X10209951Y22663597D01*
X10207255Y22922004D01*
X10207162Y22931927D01*
X10204351Y23246724D01*
X10202258Y23521773D01*
X10200901Y23759610D01*
X10200295Y23962775D01*
X10200459Y24133806D01*
X10201408Y24275242D01*
X10203160Y24389621D01*
X10204158Y24424526D01*
X10933475Y24424526D01*
X10935183Y24412160D01*
X10940753Y24397991D01*
X10952333Y24380002D01*
X10972069Y24356174D01*
X11002108Y24324491D01*
X11044597Y24282934D01*
X11101682Y24229486D01*
X11175510Y24162129D01*
X11268227Y24078846D01*
X11381981Y23977619D01*
X11518917Y23856430D01*
X11681183Y23713263D01*
X11870925Y23546098D01*
X12090290Y23352919D01*
X12255242Y23207943D01*
X12418097Y23065403D01*
X12569240Y22933714D01*
X12705812Y22815337D01*
X12824953Y22712733D01*
X12923805Y22628365D01*
X12999508Y22564693D01*
X13049204Y22524181D01*
X13070034Y22509289D01*
X13072934Y22511548D01*
X13079973Y22544690D01*
X13086026Y22613319D01*
X13091097Y22712440D01*
X13095188Y22837060D01*
X13098302Y22982184D01*
X13100443Y23142819D01*
X13101613Y23313970D01*
X13101814Y23490644D01*
X13101050Y23667846D01*
X13099324Y23840583D01*
X13096637Y24003861D01*
X13092994Y24152685D01*
X13088397Y24282062D01*
X13082848Y24386998D01*
X13076351Y24462499D01*
X13068908Y24503570D01*
X13033862Y24580446D01*
X12970719Y24654780D01*
X12877165Y24711242D01*
X12866165Y24716056D01*
X12839518Y24725388D01*
X12806462Y24732866D01*
X12762504Y24738696D01*
X12703147Y24743085D01*
X12623896Y24746239D01*
X12520258Y24748363D01*
X12387736Y24749664D01*
X12221836Y24750347D01*
X12018063Y24750619D01*
X11243699Y24751084D01*
X11138914Y24698485D01*
X11082000Y24664244D01*
X11004751Y24594896D01*
X10952627Y24516906D01*
X10933503Y24440176D01*
X10933484Y24437107D01*
X10933475Y24424526D01*
X10204158Y24424526D01*
X10205730Y24479482D01*
X10209137Y24547364D01*
X10213396Y24595804D01*
X10218525Y24627342D01*
X10273047Y24786417D01*
X10364247Y24951679D01*
X10485309Y25107823D01*
X10608581Y25227325D01*
X10767703Y25336772D01*
X10944135Y25412091D01*
X10971417Y25420341D01*
X11006077Y25428976D01*
X11045709Y25436060D01*
X11094468Y25441763D01*
X11156510Y25446259D01*
X11235990Y25449720D01*
X11337062Y25452318D01*
X11463883Y25454225D01*
X11620606Y25455613D01*
X11811388Y25456655D01*
X12040384Y25457522D01*
X12111097Y25457756D01*
X12327062Y25458369D01*
X12505890Y25458574D01*
X12651631Y25458214D01*
X12768331Y25457135D01*
X12860040Y25455181D01*
X12930806Y25452197D01*
X12984678Y25448027D01*
X13025703Y25442516D01*
X13057930Y25435509D01*
X13085408Y25426850D01*
X13112185Y25416384D01*
X13244650Y25350652D01*
X13411702Y25233294D01*
X13558568Y25089858D01*
X13677905Y24927816D01*
X13762375Y24754640D01*
X13767545Y24740116D01*
X13776736Y24710462D01*
X13784521Y24676908D01*
X13791099Y24635608D01*
X13796672Y24582715D01*
X13801439Y24514382D01*
X13805600Y24426764D01*
X13809357Y24316014D01*
X13812909Y24178285D01*
X13816456Y24009731D01*
X13820200Y23806505D01*
X13824339Y23564762D01*
X13825500Y23490644D01*
X13826923Y23399739D01*
X13830153Y23155349D01*
X13832813Y22906602D01*
X13834851Y22661283D01*
X13836215Y22427179D01*
X13836852Y22212076D01*
X13836710Y22023759D01*
X13835736Y21870016D01*
X13833639Y21693954D01*
X13830383Y21529893D01*
X13827363Y21454759D01*
X13825058Y21397428D01*
X13816488Y21290844D01*
G37*
G36*
X12146306Y24189699D02*
G01*
X12109368Y24152839D01*
X12034610Y24079563D01*
X11972724Y24020691D01*
X11929314Y23981500D01*
X11909986Y23967264D01*
X11905017Y23968690D01*
X11873648Y23988255D01*
X11828572Y24023449D01*
X11761800Y24079634D01*
X11927075Y24245884D01*
X12092351Y24412135D01*
X12367984Y24412135D01*
X12146306Y24189699D01*
G37*
G36*
X8537593Y21345704D02*
G01*
X8535290Y21302538D01*
X8532981Y21219543D01*
X8530846Y21102338D01*
X8528925Y20955121D01*
X8527259Y20782088D01*
X8525887Y20587439D01*
X8524849Y20375370D01*
X8524186Y20150078D01*
X8523937Y19915763D01*
X8523787Y18628815D01*
X6840361Y18628815D01*
X6032146Y17821606D01*
X5979125Y17768665D01*
X5809336Y17599408D01*
X5666217Y17457355D01*
X5547318Y17340247D01*
X5450187Y17245822D01*
X5372372Y17171819D01*
X5311421Y17115977D01*
X5264882Y17076035D01*
X5230304Y17049732D01*
X5205235Y17034808D01*
X5187223Y17029001D01*
X5173817Y17030049D01*
X5162858Y17033774D01*
X5109716Y17069194D01*
X5092251Y17124629D01*
X5098225Y17134450D01*
X5130544Y17172524D01*
X5188511Y17235825D01*
X5269419Y17321539D01*
X5370560Y17426856D01*
X5489227Y17548961D01*
X5622713Y17685043D01*
X5768310Y17832291D01*
X5923311Y17987890D01*
X6754695Y18819474D01*
X8333128Y18819474D01*
X8333128Y21488699D01*
X8551098Y21488699D01*
X8537593Y21345704D01*
G37*
G36*
X14328291Y34411134D02*
G01*
X16384078Y34411134D01*
X16408169Y34358259D01*
X16413642Y34345465D01*
X16419508Y34303033D01*
X16393840Y34262930D01*
X16391580Y34260484D01*
X16384239Y34253905D01*
X16373837Y34248090D01*
X16357919Y34242992D01*
X16334027Y34238563D01*
X16299705Y34234757D01*
X16252496Y34231525D01*
X16189943Y34228822D01*
X16109589Y34226600D01*
X16008977Y34224812D01*
X15885652Y34223411D01*
X15737155Y34222349D01*
X15561030Y34221580D01*
X15354821Y34221057D01*
X15116070Y34220732D01*
X14842321Y34220558D01*
X14531116Y34220488D01*
X14180000Y34220475D01*
X14054678Y34220476D01*
X13717556Y34220503D01*
X13419501Y34220603D01*
X13158057Y34220824D01*
X12930766Y34221212D01*
X12735173Y34221815D01*
X12568820Y34222679D01*
X12429251Y34223852D01*
X12314008Y34225381D01*
X12220636Y34227313D01*
X12146677Y34229695D01*
X12089674Y34232574D01*
X12047171Y34235998D01*
X12016710Y34240013D01*
X11995836Y34244666D01*
X11982091Y34250006D01*
X11973018Y34256078D01*
X11966161Y34262930D01*
X11957203Y34273318D01*
X11939179Y34311768D01*
X11951831Y34358259D01*
X11975923Y34411134D01*
X14137632Y34411134D01*
X14137632Y37800625D01*
X14328291Y37800625D01*
X14328291Y34411134D01*
G37*
G36*
X16394779Y33024981D02*
G01*
X16397691Y33020458D01*
X16416791Y32973386D01*
X16405114Y32929652D01*
X16399423Y32920265D01*
X16390504Y32911796D01*
X16375164Y32904845D01*
X16349806Y32899262D01*
X16310837Y32894898D01*
X16254662Y32891601D01*
X16177687Y32889223D01*
X16076316Y32887614D01*
X15946954Y32886623D01*
X15786009Y32886101D01*
X15589884Y32885897D01*
X15354985Y32885863D01*
X14328291Y32885863D01*
X14328291Y30991470D01*
X14238257Y30899727D01*
X14148224Y30807984D01*
X14142728Y31846923D01*
X14137232Y32885863D01*
X13057777Y32885863D01*
X12994236Y32885864D01*
X12762822Y32885920D01*
X12569408Y32886167D01*
X12410493Y32886742D01*
X12282575Y32887785D01*
X12182151Y32889435D01*
X12105720Y32891830D01*
X12049781Y32895111D01*
X12010830Y32899415D01*
X11985368Y32904882D01*
X11969890Y32911652D01*
X11960897Y32919862D01*
X11954886Y32929652D01*
X11952883Y32933509D01*
X11943572Y32976732D01*
X11965222Y33024981D01*
X11998992Y33076522D01*
X16361009Y33076522D01*
X16394779Y33024981D01*
G37*
G36*
X17772072Y29293923D02*
G01*
X17755086Y29271330D01*
X17712173Y29223163D01*
X17646212Y29152451D01*
X17560083Y29062223D01*
X17456668Y28955510D01*
X17338846Y28835340D01*
X17209497Y28704743D01*
X17159275Y28654324D01*
X17030836Y28525833D01*
X16912818Y28408399D01*
X16808451Y28305196D01*
X16720969Y28219401D01*
X16653601Y28154187D01*
X16609581Y28112731D01*
X16592140Y28098206D01*
X16589967Y28100574D01*
X16596336Y28127599D01*
X16617593Y28175090D01*
X16625383Y28191696D01*
X16652646Y28269544D01*
X16670458Y28349861D01*
X16671809Y28359044D01*
X16678261Y28389548D01*
X16689936Y28419673D01*
X16710381Y28453737D01*
X16743144Y28496061D01*
X16791774Y28550965D01*
X16859817Y28622770D01*
X16950822Y28715796D01*
X17068336Y28834362D01*
X17102245Y28868444D01*
X17215845Y28981744D01*
X17304937Y29068608D01*
X17373337Y29132336D01*
X17424859Y29176229D01*
X17463320Y29203588D01*
X17492533Y29217713D01*
X17516316Y29221905D01*
X17531279Y29222390D01*
X17568784Y29226905D01*
X17614256Y29238523D01*
X17678105Y29260238D01*
X17770743Y29295042D01*
X17772072Y29293923D01*
G37*
G36*
X16329284Y27826292D02*
G01*
X16298935Y27792996D01*
X16248517Y27741466D01*
X16184151Y27678076D01*
X16136532Y27633085D01*
X16074126Y27577947D01*
X16026220Y27540215D01*
X16000482Y27526230D01*
X15994182Y27526745D01*
X15951264Y27547899D01*
X15912680Y27587630D01*
X15895930Y27628773D01*
X15902596Y27656364D01*
X15937482Y27704584D01*
X15989138Y27743567D01*
X16042617Y27759949D01*
X16072971Y27763383D01*
X16139211Y27778257D01*
X16213469Y27800778D01*
X16264690Y27817715D01*
X16314028Y27832060D01*
X16335253Y27835419D01*
X16329284Y27826292D01*
G37*
G36*
X7477405Y32841253D02*
G01*
X8269562Y32049307D01*
X8974064Y32753573D01*
X9012756Y32792234D01*
X9176969Y32955793D01*
X9314532Y33091731D01*
X9427861Y33202285D01*
X9519369Y33289693D01*
X9591472Y33356192D01*
X9646583Y33404018D01*
X9687117Y33435410D01*
X9715489Y33452605D01*
X9734112Y33457839D01*
X9790134Y33444839D01*
X9826834Y33405084D01*
X9829661Y33346897D01*
X9820730Y33334395D01*
X9783898Y33292794D01*
X9720484Y33224864D01*
X9632502Y33132665D01*
X9521965Y33018254D01*
X9390886Y32883691D01*
X9241279Y32731034D01*
X9075158Y32562341D01*
X8894535Y32379672D01*
X8701424Y32185085D01*
X8497840Y31980638D01*
X8285794Y31768390D01*
X8129312Y31612156D01*
X7923167Y31406785D01*
X7726670Y31211533D01*
X7541848Y31028390D01*
X7370726Y30859344D01*
X7215331Y30706384D01*
X7077689Y30571500D01*
X6959825Y30456680D01*
X6863766Y30363913D01*
X6791539Y30295189D01*
X6745168Y30252496D01*
X6726680Y30237823D01*
X6684111Y30245771D01*
X6635932Y30282322D01*
X6617198Y30338579D01*
X6619677Y30350975D01*
X6632155Y30375118D01*
X6657153Y30409795D01*
X6696890Y30457393D01*
X6753583Y30520303D01*
X6829452Y30600912D01*
X6926716Y30701611D01*
X7047594Y30824789D01*
X7194303Y30972833D01*
X7369063Y31148134D01*
X8120929Y31900792D01*
X7344119Y32677887D01*
X6567308Y33454982D01*
X6626278Y33544091D01*
X6685247Y33633200D01*
X7477405Y32841253D01*
G37*
G36*
X18798182Y20238824D02*
G01*
X21467406Y20238824D01*
X21467406Y18533692D01*
X22264696Y17736196D01*
X22324171Y17676688D01*
X22491031Y17509459D01*
X22630810Y17368751D01*
X22745800Y17252075D01*
X22838294Y17156941D01*
X22910586Y17080858D01*
X22964969Y17021336D01*
X23003735Y16975884D01*
X23029179Y16942012D01*
X23043592Y16917230D01*
X23049269Y16899047D01*
X23048501Y16884974D01*
X23030800Y16847735D01*
X22997959Y16821564D01*
X22977472Y16816575D01*
X22940348Y16809421D01*
X22932884Y16814301D01*
X22898099Y16844882D01*
X22837867Y16901186D01*
X22754978Y16980504D01*
X22652221Y17080128D01*
X22532382Y17197347D01*
X22398252Y17329454D01*
X22252619Y17473738D01*
X22098271Y17627491D01*
X21276748Y18448018D01*
X21276748Y20048165D01*
X18607523Y20048165D01*
X18607523Y22675020D01*
X18416864Y22675020D01*
X18416864Y22865679D01*
X18798182Y22865679D01*
X18798182Y20238824D01*
G37*
G36*
X14900263Y20238826D02*
G01*
X14991307Y20192379D01*
X14214936Y19415795D01*
X13438566Y18639212D01*
X14381237Y17696720D01*
X15323908Y16754227D01*
X14720178Y16150227D01*
X14116447Y15546227D01*
X14116447Y14411236D01*
X14116384Y14303711D01*
X14115885Y14094160D01*
X14114930Y13899402D01*
X14113566Y13723378D01*
X14111843Y13570025D01*
X14109809Y13443284D01*
X14107512Y13347093D01*
X14105001Y13285392D01*
X14102324Y13262121D01*
X14085241Y13251805D01*
X14035317Y13247100D01*
X13982361Y13260725D01*
X13947718Y13288974D01*
X13945513Y13296387D01*
X13940353Y13344609D01*
X13935954Y13434268D01*
X13932327Y13564695D01*
X13929485Y13735223D01*
X13927439Y13945185D01*
X13926203Y14193913D01*
X13925788Y14480742D01*
X13925788Y15631534D01*
X15048620Y16753766D01*
X14105879Y17696681D01*
X13163138Y18639597D01*
X13986179Y19462435D01*
X14809220Y20285272D01*
X14900263Y20238826D01*
G37*
G36*
X5772320Y28140535D02*
G01*
X5790077Y28138895D01*
X5805075Y28132569D01*
X5817546Y28118415D01*
X5827724Y28093294D01*
X5835842Y28054066D01*
X5842132Y27997590D01*
X5846827Y27920727D01*
X5850161Y27820336D01*
X5852367Y27693277D01*
X5853677Y27536410D01*
X5854324Y27346595D01*
X5854542Y27120692D01*
X5854562Y26855560D01*
X5854562Y25621387D01*
X5674496Y25380421D01*
X5668527Y25627137D01*
X5662559Y25873853D01*
X1555636Y25873853D01*
X1532201Y25917642D01*
X1530197Y25921499D01*
X1520887Y25964722D01*
X1542536Y26012971D01*
X1576306Y26064512D01*
X5663904Y26064512D01*
X5663904Y27077122D01*
X5663905Y27153534D01*
X5664010Y27380811D01*
X5664508Y27570212D01*
X5665710Y27725189D01*
X5667924Y27849195D01*
X5671461Y27945682D01*
X5676629Y28018103D01*
X5683738Y28069910D01*
X5693098Y28104556D01*
X5705018Y28125493D01*
X5719808Y28136174D01*
X5737776Y28140050D01*
X5759233Y28140575D01*
X5772320Y28140535D01*
G37*
G36*
X16787213Y25518079D02*
G01*
X16913147Y25516755D01*
X17008499Y25514455D01*
X17067381Y25511190D01*
X17098751Y25507492D01*
X17274205Y25464599D01*
X17449522Y25387555D01*
X17615387Y25282106D01*
X17762488Y25153997D01*
X17881509Y25008974D01*
X17895776Y24987680D01*
X17931188Y24932968D01*
X17960398Y24881962D01*
X17984096Y24830057D01*
X18002971Y24772644D01*
X18017711Y24705117D01*
X18029007Y24622868D01*
X18037547Y24521292D01*
X18044020Y24395781D01*
X18049115Y24241727D01*
X18053522Y24054525D01*
X18057929Y23829566D01*
X18061047Y23659198D01*
X18067337Y23269242D01*
X18071896Y22909854D01*
X18074729Y22582341D01*
X18075843Y22288012D01*
X18075244Y22028173D01*
X18072936Y21804133D01*
X18068927Y21617197D01*
X18063221Y21468675D01*
X18055824Y21359874D01*
X18046743Y21292100D01*
X18016373Y21179004D01*
X17956909Y21042239D01*
X17870146Y20911858D01*
X17749920Y20777169D01*
X17665215Y20698623D01*
X17498353Y20579174D01*
X17323328Y20496206D01*
X17145546Y20452621D01*
X17102542Y20448596D01*
X17012372Y20443750D01*
X16892147Y20439755D01*
X16747902Y20436611D01*
X16585672Y20434320D01*
X16411491Y20432884D01*
X16231394Y20432302D01*
X16051415Y20432577D01*
X15877589Y20433709D01*
X15715950Y20435699D01*
X15572532Y20438550D01*
X15453371Y20442261D01*
X15364501Y20446834D01*
X15311956Y20452271D01*
X15168673Y20490529D01*
X14991795Y20572314D01*
X14829138Y20685401D01*
X14686309Y20824141D01*
X14568916Y20982887D01*
X14482566Y21155989D01*
X14432866Y21337798D01*
X14423101Y21419539D01*
X14427081Y21568018D01*
X14463443Y21689500D01*
X14532110Y21783784D01*
X14633004Y21850673D01*
X14729537Y21882534D01*
X14842312Y21884586D01*
X14958530Y21846266D01*
X14976660Y21836866D01*
X15071433Y21760958D01*
X15137837Y21655466D01*
X15173467Y21523998D01*
X15178000Y21496436D01*
X15221310Y21374176D01*
X15297860Y21277003D01*
X15405502Y21207845D01*
X15405999Y21207625D01*
X15432807Y21196470D01*
X15460464Y21187580D01*
X15493583Y21180808D01*
X15536776Y21176005D01*
X15594656Y21173024D01*
X15671833Y21171717D01*
X15772921Y21171936D01*
X15902530Y21173534D01*
X16065274Y21176362D01*
X16265765Y21180273D01*
X16427704Y21183616D01*
X16616945Y21188229D01*
X16771156Y21193492D01*
X16894589Y21200107D01*
X16991490Y21208772D01*
X17066109Y21220189D01*
X17122695Y21235056D01*
X17165496Y21254074D01*
X17198761Y21277943D01*
X17226739Y21307363D01*
X17253679Y21343034D01*
X17304687Y21414553D01*
X17298623Y22959426D01*
X17298558Y22976063D01*
X17297431Y23276451D01*
X17296372Y23537547D01*
X17295113Y23762278D01*
X17293387Y23953567D01*
X17290926Y24114340D01*
X17287461Y24247522D01*
X17282724Y24356037D01*
X17276448Y24442811D01*
X17268365Y24510769D01*
X17258206Y24562835D01*
X17245703Y24601935D01*
X17230589Y24630993D01*
X17212595Y24652935D01*
X17191454Y24670685D01*
X17166898Y24687168D01*
X17138657Y24705310D01*
X17053394Y24761676D01*
X16246931Y24761355D01*
X16229262Y24761347D01*
X16021725Y24761037D01*
X15851968Y24760229D01*
X15715734Y24758755D01*
X15608764Y24756448D01*
X15526799Y24753139D01*
X15465580Y24748661D01*
X15420850Y24742845D01*
X15388349Y24735524D01*
X15363819Y24726530D01*
X15346735Y24718251D01*
X15255465Y24647389D01*
X15190383Y24544025D01*
X15152425Y24409564D01*
X15146323Y24375954D01*
X15103806Y24242969D01*
X15036460Y24143627D01*
X14942970Y24076457D01*
X14822021Y24039990D01*
X14730961Y24037935D01*
X14622093Y24068951D01*
X14527959Y24132505D01*
X14456144Y24223103D01*
X14414234Y24335254D01*
X14407148Y24381253D01*
X14406613Y24527669D01*
X14433155Y24684321D01*
X14483742Y24837501D01*
X14555345Y24973505D01*
X14635546Y25082108D01*
X14787504Y25238306D01*
X14959846Y25363968D01*
X15145597Y25453424D01*
X15179397Y25465025D01*
X15214780Y25474754D01*
X15255807Y25482708D01*
X15307068Y25489180D01*
X15373152Y25494461D01*
X15458651Y25498842D01*
X15568154Y25502616D01*
X15706251Y25506074D01*
X15877533Y25509507D01*
X16086589Y25513207D01*
X16095401Y25513357D01*
X16284790Y25516063D01*
X16467146Y25517745D01*
X16636583Y25518412D01*
X16787213Y25518079D01*
G37*
G36*
X11910374Y31021515D02*
G01*
X12184773Y31021340D01*
X12421216Y31020907D01*
X12622658Y31020155D01*
X12792057Y31019023D01*
X12932369Y31017452D01*
X13046549Y31015380D01*
X13137554Y31012747D01*
X13208340Y31009493D01*
X13261864Y31005558D01*
X13301081Y31000881D01*
X13328948Y30995401D01*
X13348421Y30989058D01*
X13419761Y30953311D01*
X13490591Y30892862D01*
X13547004Y30804801D01*
X13549846Y30799063D01*
X13555893Y30784734D01*
X13561241Y30766937D01*
X13565925Y30743242D01*
X13569982Y30711217D01*
X13573446Y30668430D01*
X13576354Y30612451D01*
X13578742Y30540847D01*
X13580644Y30451189D01*
X13582097Y30341043D01*
X13583137Y30207980D01*
X13583798Y30049568D01*
X13584117Y29863374D01*
X13584129Y29646969D01*
X13583869Y29397921D01*
X13583375Y29113798D01*
X13582681Y28792170D01*
X13581822Y28430604D01*
X13576247Y26135551D01*
X13520125Y26050750D01*
X13504563Y26029358D01*
X13449193Y25971042D01*
X13393019Y25930976D01*
X13388380Y25928770D01*
X13306677Y25905226D01*
X13208725Y25896689D01*
X13113041Y25903433D01*
X13038141Y25925731D01*
X13007344Y25944415D01*
X12955934Y25995413D01*
X12914025Y26071520D01*
X12876158Y26181353D01*
X12873623Y26190352D01*
X12864952Y26227520D01*
X12857920Y26271896D01*
X12852372Y26327873D01*
X12848148Y26399848D01*
X12845094Y26492214D01*
X12843051Y26609368D01*
X12841862Y26755703D01*
X12841371Y26935615D01*
X12841421Y27153499D01*
X12841462Y27214605D01*
X12841253Y27397952D01*
X12840570Y27567392D01*
X12839467Y27718179D01*
X12837993Y27845573D01*
X12836200Y27944828D01*
X12834139Y28011201D01*
X12831861Y28039950D01*
X12829001Y28046384D01*
X12820012Y28054162D01*
X12801903Y28060512D01*
X12770978Y28065581D01*
X12723544Y28069514D01*
X12655907Y28072460D01*
X12564371Y28074563D01*
X12445244Y28075971D01*
X12294831Y28076830D01*
X12109438Y28077287D01*
X11885370Y28077487D01*
X11748228Y28077588D01*
X11546096Y28077955D01*
X11379940Y28078707D01*
X11245732Y28079999D01*
X11139446Y28081990D01*
X11057054Y28084835D01*
X10994529Y28088693D01*
X10947844Y28093720D01*
X10912972Y28100073D01*
X10885886Y28107910D01*
X10862558Y28117387D01*
X10809541Y28146083D01*
X10733552Y28216249D01*
X10687202Y28311369D01*
X10667286Y28436681D01*
X10665346Y28483458D01*
X10667954Y28550300D01*
X10681666Y28599895D01*
X10709739Y28648495D01*
X10742448Y28693331D01*
X10791149Y28743811D01*
X10848268Y28779139D01*
X10922285Y28802744D01*
X11021683Y28818056D01*
X11154944Y28828505D01*
X11180370Y28829841D01*
X11280658Y28833257D01*
X11412830Y28835849D01*
X11569066Y28837550D01*
X11741543Y28838293D01*
X11922440Y28838011D01*
X12103937Y28836637D01*
X12204990Y28835728D01*
X12365255Y28835091D01*
X12509318Y28835504D01*
X12631947Y28836898D01*
X12727910Y28839202D01*
X12791974Y28842345D01*
X12818908Y28846258D01*
X12823500Y28856268D01*
X12830481Y28903456D01*
X12836271Y28983192D01*
X12840865Y29089270D01*
X12844258Y29215484D01*
X12846445Y29355629D01*
X12847421Y29503499D01*
X12847183Y29652887D01*
X12845724Y29797588D01*
X12843041Y29931396D01*
X12839128Y30048106D01*
X12833982Y30141512D01*
X12827596Y30205407D01*
X12819967Y30233586D01*
X12815898Y30235973D01*
X12790950Y30241326D01*
X12742934Y30245867D01*
X12669438Y30249645D01*
X12568050Y30252708D01*
X12436356Y30255105D01*
X12271946Y30256885D01*
X12072406Y30258096D01*
X11835324Y30258788D01*
X11558289Y30259007D01*
X11294296Y30259126D01*
X11056076Y30259632D01*
X10853698Y30260721D01*
X10683823Y30262591D01*
X10543113Y30265440D01*
X10428230Y30269464D01*
X10335835Y30274861D01*
X10262590Y30281828D01*
X10205156Y30290562D01*
X10160195Y30301260D01*
X10124368Y30314119D01*
X10094338Y30329338D01*
X10066764Y30347112D01*
X10022854Y30389684D01*
X9972663Y30467393D01*
X9936096Y30555740D01*
X9921952Y30637102D01*
X9924619Y30677832D01*
X9954368Y30783671D01*
X10011055Y30879973D01*
X10087109Y30955866D01*
X10174959Y31000474D01*
X10207639Y31004349D01*
X10281720Y31008131D01*
X10394198Y31011499D01*
X10543019Y31014429D01*
X10726129Y31016891D01*
X10941473Y31018859D01*
X11186998Y31020305D01*
X11460649Y31021203D01*
X11760372Y31021524D01*
X11910374Y31021515D01*
G37*
G36*
X20552356Y29679691D02*
G01*
X20575044Y29656594D01*
X20672228Y29553961D01*
X20739617Y29474213D01*
X20779273Y29413518D01*
X20793254Y29368041D01*
X20783622Y29333949D01*
X20752436Y29307410D01*
X20728377Y29295960D01*
X20684984Y29285173D01*
X20680315Y29286714D01*
X20648158Y29309858D01*
X20592741Y29357367D01*
X20518915Y29424845D01*
X20431532Y29507891D01*
X20335443Y29602107D01*
X20016280Y29919686D01*
X20165743Y29919872D01*
X20315205Y29920058D01*
X20552356Y29679691D01*
G37*
G36*
X16202686Y31003002D02*
G01*
X16384915Y31000768D01*
X16554372Y30997096D01*
X16705141Y30991983D01*
X16831308Y30985428D01*
X16926960Y30977429D01*
X16986182Y30967985D01*
X17065259Y30943452D01*
X17242027Y30859817D01*
X17404866Y30743829D01*
X17546786Y30601991D01*
X17660795Y30440807D01*
X17739904Y30266781D01*
X17763789Y30181245D01*
X17785419Y30049553D01*
X17790141Y29922897D01*
X17777782Y29812471D01*
X17748170Y29729471D01*
X17743219Y29721196D01*
X17666561Y29631075D01*
X17568883Y29577581D01*
X17448793Y29559925D01*
X17432500Y29560165D01*
X17307424Y29581559D01*
X17207237Y29637171D01*
X17132668Y29726425D01*
X17084446Y29848741D01*
X17077284Y29877176D01*
X17056319Y29959644D01*
X17038371Y30029311D01*
X17021490Y30072451D01*
X16964140Y30150569D01*
X16883426Y30216093D01*
X16791547Y30257733D01*
X16771092Y30261348D01*
X16705809Y30266853D01*
X16608017Y30271404D01*
X16483955Y30274999D01*
X16339862Y30277636D01*
X16181976Y30279315D01*
X16016536Y30280034D01*
X15849782Y30279791D01*
X15687952Y30278586D01*
X15537285Y30276417D01*
X15404020Y30273282D01*
X15294395Y30269182D01*
X15214651Y30264113D01*
X15171025Y30258075D01*
X15162692Y30255628D01*
X15066411Y30208922D01*
X14983782Y30137720D01*
X14929163Y30054130D01*
X14926318Y30046570D01*
X14916259Y30002271D01*
X14908880Y29933856D01*
X14903925Y29836771D01*
X14901139Y29706460D01*
X14900267Y29538369D01*
X14900642Y29394938D01*
X14902624Y29266171D01*
X14907309Y29168391D01*
X14915788Y29095544D01*
X14929152Y29041572D01*
X14948493Y29000418D01*
X14974903Y28966025D01*
X15009472Y28932338D01*
X15044909Y28901718D01*
X15081619Y28876191D01*
X15123045Y28857157D01*
X15175461Y28843447D01*
X15245144Y28833892D01*
X15338367Y28827323D01*
X15461405Y28822570D01*
X15620534Y28818463D01*
X15662878Y28817447D01*
X15826412Y28812402D01*
X15954446Y28805345D01*
X16052588Y28794740D01*
X16126443Y28779051D01*
X16181616Y28756742D01*
X16223715Y28726278D01*
X16258344Y28686122D01*
X16291110Y28634738D01*
X16320226Y28571482D01*
X16340230Y28456021D01*
X16323034Y28341015D01*
X16269241Y28237410D01*
X16234177Y28193995D01*
X16199099Y28160201D01*
X16158484Y28135439D01*
X16106193Y28118311D01*
X16036089Y28107420D01*
X15942034Y28101370D01*
X15817891Y28098765D01*
X15657522Y28098206D01*
X15563933Y28098156D01*
X15440332Y28097555D01*
X15348057Y28095706D01*
X15280247Y28091914D01*
X15230039Y28085485D01*
X15190572Y28075723D01*
X15154984Y28061934D01*
X15116414Y28043423D01*
X15057981Y28013315D01*
X15010123Y27983344D01*
X14973960Y27949398D01*
X14947854Y27905993D01*
X14930168Y27847643D01*
X14919264Y27768864D01*
X14913503Y27664172D01*
X14911247Y27528081D01*
X14910859Y27355106D01*
X14910859Y26855626D01*
X14967920Y26780815D01*
X14974038Y26772806D01*
X15002997Y26736434D01*
X15031670Y26706624D01*
X15064323Y26682721D01*
X15105222Y26664074D01*
X15158630Y26650030D01*
X15228815Y26639937D01*
X15320041Y26633143D01*
X15436573Y26628994D01*
X15582679Y26626838D01*
X15762621Y26626023D01*
X15980667Y26625896D01*
X16775079Y26625896D01*
X16872700Y26683285D01*
X16894453Y26696482D01*
X16962281Y26747496D01*
X17009645Y26806998D01*
X17043716Y26886277D01*
X17071660Y26996622D01*
X17097195Y27098842D01*
X17131195Y27182834D01*
X17176237Y27243535D01*
X17238030Y27291050D01*
X17294215Y27319889D01*
X17409371Y27347991D01*
X17522254Y27338948D01*
X17625287Y27295275D01*
X17710896Y27219482D01*
X17771506Y27114085D01*
X17773083Y27109924D01*
X17789834Y27056772D01*
X17796769Y27004214D01*
X17794528Y26938177D01*
X17783749Y26844587D01*
X17770076Y26765474D01*
X17708202Y26570890D01*
X17611263Y26391653D01*
X17483761Y26232786D01*
X17330197Y26099313D01*
X17155076Y25996258D01*
X16962898Y25928645D01*
X16952921Y25926516D01*
X16884509Y25917833D01*
X16781424Y25910482D01*
X16649592Y25904468D01*
X16494935Y25899792D01*
X16323380Y25896459D01*
X16140851Y25894473D01*
X15953271Y25893837D01*
X15766567Y25894554D01*
X15586661Y25896627D01*
X15419479Y25900062D01*
X15270945Y25904860D01*
X15146983Y25911026D01*
X15053519Y25918563D01*
X14996477Y25927474D01*
X14974726Y25933412D01*
X14785177Y26008459D01*
X14608186Y26119527D01*
X14451187Y26261106D01*
X14321615Y26427686D01*
X14291318Y26475869D01*
X14258431Y26533067D01*
X14232627Y26588482D01*
X14213119Y26647632D01*
X14199117Y26716036D01*
X14189834Y26799212D01*
X14184480Y26902677D01*
X14182268Y27031949D01*
X14182409Y27192547D01*
X14184114Y27389989D01*
X14184575Y27434824D01*
X14186498Y27606735D01*
X14188562Y27742625D01*
X14191168Y27847664D01*
X14194714Y27927018D01*
X14199600Y27985856D01*
X14206227Y28029344D01*
X14214994Y28062651D01*
X14226302Y28090944D01*
X14240549Y28119391D01*
X14266525Y28164230D01*
X14319800Y28243850D01*
X14376458Y28318010D01*
X14413560Y28365518D01*
X14443487Y28417639D01*
X14443016Y28448438D01*
X14418958Y28482104D01*
X14353708Y28574686D01*
X14301569Y28654033D01*
X14261069Y28726321D01*
X14230740Y28797731D01*
X14209110Y28874440D01*
X14194710Y28962626D01*
X14186069Y29068467D01*
X14181717Y29198142D01*
X14180185Y29357829D01*
X14180000Y29553707D01*
X14180107Y29665280D01*
X14181277Y29840325D01*
X14184601Y29981899D01*
X14191132Y30095757D01*
X14201924Y30187656D01*
X14218030Y30263352D01*
X14240502Y30328600D01*
X14270394Y30389157D01*
X14308759Y30450779D01*
X14356650Y30519222D01*
X14479729Y30669675D01*
X14633589Y30806801D01*
X14801617Y30905565D01*
X14985867Y30967433D01*
X14994705Y30969265D01*
X15066212Y30978484D01*
X15172259Y30986277D01*
X15306932Y30992643D01*
X15464316Y30997579D01*
X15638498Y31001085D01*
X15823563Y31003158D01*
X16013597Y31003798D01*
X16202686Y31003002D01*
G37*
G36*
X22037933Y27257755D02*
G01*
X22037301Y27043256D01*
X22036432Y26858898D01*
X22035285Y26702225D01*
X22033818Y26570778D01*
X22031989Y26462101D01*
X22029756Y26373735D01*
X22027079Y26303224D01*
X22023915Y26248109D01*
X22020223Y26205933D01*
X22015962Y26174239D01*
X22011089Y26150570D01*
X22005564Y26132466D01*
X21999344Y26117472D01*
X21965955Y26056752D01*
X21882136Y25964723D01*
X21771292Y25904753D01*
X21750169Y25899161D01*
X21711923Y25893444D01*
X21656399Y25888655D01*
X21580460Y25884718D01*
X21480971Y25881558D01*
X21354795Y25879100D01*
X21198796Y25877268D01*
X21009839Y25875988D01*
X20784786Y25875185D01*
X20520502Y25874783D01*
X19351162Y25873853D01*
X19184228Y25926587D01*
X19080634Y25964540D01*
X18890873Y26064292D01*
X18724194Y26193327D01*
X18585029Y26347169D01*
X18477809Y26521343D01*
X18406969Y26711374D01*
X18403389Y26726570D01*
X18397651Y26759524D01*
X18392704Y26802451D01*
X18388492Y26858295D01*
X18385331Y26922477D01*
X19126539Y26922477D01*
X19176306Y26838261D01*
X19215615Y26779718D01*
X19285701Y26712639D01*
X19379995Y26664580D01*
X19407210Y26659219D01*
X19473370Y26653329D01*
X19570482Y26648298D01*
X19693310Y26644128D01*
X19836617Y26640825D01*
X19995168Y26638393D01*
X20163724Y26636837D01*
X20337050Y26636160D01*
X20509910Y26636369D01*
X20677066Y26637466D01*
X20833283Y26639457D01*
X20973324Y26642345D01*
X21091952Y26646136D01*
X21183930Y26650834D01*
X21244024Y26656444D01*
X21266995Y26662969D01*
X21267947Y26673876D01*
X21269301Y26723768D01*
X21270457Y26810880D01*
X21271408Y26932055D01*
X21272145Y27084137D01*
X21272660Y27263970D01*
X21272945Y27468398D01*
X21272993Y27694264D01*
X21272794Y27938413D01*
X21272341Y28197687D01*
X21271626Y28468932D01*
X21266155Y30248415D01*
X20348204Y30253937D01*
X20193026Y30254833D01*
X19997133Y30255740D01*
X19836725Y30256028D01*
X19707700Y30255555D01*
X19605958Y30254178D01*
X19527398Y30251757D01*
X19467919Y30248148D01*
X19423421Y30243211D01*
X19389802Y30236802D01*
X19362962Y30228782D01*
X19338801Y30219006D01*
X19313368Y30206647D01*
X19244882Y30155199D01*
X19186944Y30075786D01*
X19126539Y29973019D01*
X19126539Y26922477D01*
X18385331Y26922477D01*
X18384960Y26930002D01*
X18382053Y27020517D01*
X18379714Y27132785D01*
X18377887Y27269750D01*
X18376518Y27434359D01*
X18375549Y27629555D01*
X18374927Y27858284D01*
X18374594Y28123492D01*
X18374496Y28428123D01*
X18374501Y28470517D01*
X18374869Y28776507D01*
X18375798Y29057193D01*
X18377263Y29310441D01*
X18379235Y29534119D01*
X18381690Y29726093D01*
X18384599Y29884232D01*
X18387937Y30006403D01*
X18391677Y30090471D01*
X18395792Y30134306D01*
X18433679Y30270310D01*
X18515358Y30439812D01*
X18628564Y30598152D01*
X18767205Y30739331D01*
X18925191Y30857350D01*
X19096429Y30946213D01*
X19274829Y30999919D01*
X19309013Y31004428D01*
X19383368Y31009516D01*
X19491563Y31013502D01*
X19635018Y31016402D01*
X19815152Y31018237D01*
X20033386Y31019025D01*
X20291137Y31018786D01*
X20589827Y31017538D01*
X21777718Y31011050D01*
X21863616Y30954191D01*
X21934386Y30891868D01*
X21994448Y30804509D01*
X22039383Y30711685D01*
X22038918Y28456948D01*
X22038821Y28106678D01*
X22038651Y27787009D01*
X22038558Y27694264D01*
X22038369Y27504854D01*
X22037933Y27257755D01*
G37*
G36*
X10738805Y32500692D02*
G01*
X10752105Y32491488D01*
X10765088Y32479124D01*
X10778552Y32459133D01*
X10790509Y32410997D01*
X10776723Y32386508D01*
X10732794Y32332869D01*
X10659263Y32251254D01*
X10556704Y32142276D01*
X10425697Y32006547D01*
X10266816Y31844681D01*
X10080640Y31657289D01*
X9370771Y30946288D01*
X9476887Y30841767D01*
X9510706Y30807513D01*
X9555509Y30754210D01*
X9577480Y30709674D01*
X9583508Y30662306D01*
X9583535Y30659748D01*
X9589496Y30584329D01*
X9602462Y30507923D01*
X9605935Y30491776D01*
X9611855Y30446621D01*
X9607671Y30428482D01*
X9607215Y30428558D01*
X9586104Y30444586D01*
X9541839Y30484578D01*
X9480616Y30542776D01*
X9408628Y30613426D01*
X9222823Y30798370D01*
X8464824Y30041449D01*
X8427725Y30004436D01*
X8281171Y29858861D01*
X8143890Y29723498D01*
X8018822Y29601182D01*
X7908910Y29494747D01*
X7817094Y29407029D01*
X7746316Y29340863D01*
X7699516Y29299085D01*
X7679635Y29284528D01*
X7637367Y29292430D01*
X7589219Y29329074D01*
X7570492Y29385556D01*
X7570632Y29387566D01*
X7576410Y29402621D01*
X7591817Y29426254D01*
X7618427Y29460097D01*
X7657814Y29505786D01*
X7711553Y29564953D01*
X7781219Y29639234D01*
X7868386Y29730262D01*
X7974629Y29839671D01*
X8101522Y29969095D01*
X8250641Y30120169D01*
X8423560Y30294525D01*
X8621853Y30493799D01*
X8847095Y30719625D01*
X9100861Y30973635D01*
X9300406Y31173235D01*
X9530371Y31403129D01*
X9733531Y31605901D01*
X9911653Y31783148D01*
X10066500Y31936470D01*
X10199841Y32067461D01*
X10313439Y32177721D01*
X10409062Y32268847D01*
X10488474Y32342435D01*
X10553442Y32400083D01*
X10605732Y32443389D01*
X10647109Y32473950D01*
X10679339Y32493364D01*
X10704187Y32503227D01*
X10723421Y32505137D01*
X10738805Y32500692D01*
G37*
G36*
X23930237Y26450969D02*
G01*
X24528815Y25852668D01*
X26783694Y25852668D01*
X26817465Y25801128D01*
X26820377Y25796605D01*
X26839476Y25749533D01*
X26827800Y25705799D01*
X26823153Y25697906D01*
X26815311Y25689720D01*
X26801872Y25682884D01*
X26779493Y25677276D01*
X26744832Y25672774D01*
X26694546Y25669258D01*
X26625292Y25666605D01*
X26533727Y25664694D01*
X26416507Y25663403D01*
X26270291Y25662611D01*
X26091735Y25662196D01*
X25877496Y25662036D01*
X25624231Y25662010D01*
X24444098Y25662010D01*
X23887802Y26218008D01*
X23331507Y26774007D01*
X22394190Y25836690D01*
X22363148Y25805654D01*
X22199806Y25642542D01*
X22045827Y25489107D01*
X21903780Y25347889D01*
X21776236Y25221427D01*
X21665763Y25112261D01*
X21574933Y25022934D01*
X21506313Y24955983D01*
X21462475Y24913950D01*
X21445987Y24899374D01*
X21443162Y24901075D01*
X21416561Y24924603D01*
X21366203Y24972358D01*
X21296616Y25039955D01*
X21212327Y25123010D01*
X21117865Y25217139D01*
X20800630Y25534904D01*
X21074658Y25534904D01*
X21260462Y25349960D01*
X21446267Y25165017D01*
X21652791Y25369134D01*
X21734124Y25446374D01*
X21825127Y25525764D01*
X21905073Y25588181D01*
X21965238Y25626439D01*
X21988167Y25638652D01*
X22109874Y25726198D01*
X22218652Y25840696D01*
X22301773Y25969182D01*
X22302709Y25971013D01*
X22332569Y26017419D01*
X22383941Y26081841D01*
X22458768Y26166402D01*
X22558990Y26273230D01*
X22686549Y26404450D01*
X22843387Y26562187D01*
X23331660Y27049270D01*
X23930237Y26450969D01*
G37*
G36*
X7177069Y28107285D02*
G01*
X7180230Y28103597D01*
X7187502Y28088935D01*
X7193522Y28064078D01*
X7198405Y28025453D01*
X7202264Y27969484D01*
X7205215Y27892596D01*
X7207373Y27791214D01*
X7208851Y27661764D01*
X7209765Y27500670D01*
X7210230Y27304359D01*
X7210359Y27069254D01*
X7210359Y26064512D01*
X9462252Y26064512D01*
X9830532Y26064408D01*
X10168636Y26064071D01*
X10468023Y26063480D01*
X10730546Y26062616D01*
X10958052Y26061457D01*
X11152394Y26059982D01*
X11315420Y26058171D01*
X11448981Y26056003D01*
X11554927Y26053458D01*
X11635108Y26050515D01*
X11691375Y26047153D01*
X11725578Y26043352D01*
X11739567Y26039091D01*
X11753516Y26017797D01*
X11764988Y25969182D01*
X11760791Y25940574D01*
X11739567Y25899274D01*
X11726191Y25895118D01*
X11692538Y25891305D01*
X11636869Y25887932D01*
X11557333Y25884978D01*
X11452082Y25882423D01*
X11319263Y25880245D01*
X11157028Y25878426D01*
X10963526Y25876942D01*
X10736906Y25875775D01*
X10475319Y25874903D01*
X10176915Y25874306D01*
X9839842Y25873963D01*
X9462252Y25873853D01*
X7210359Y25873853D01*
X7210359Y24064380D01*
X7130918Y23982963D01*
X7051476Y23901545D01*
X7038463Y24575230D01*
X7036084Y24706055D01*
X7032394Y24945340D01*
X7029265Y25196838D01*
X7026689Y25457136D01*
X7024659Y25722823D01*
X7023170Y25990490D01*
X7022216Y26256723D01*
X7021788Y26518113D01*
X7021882Y26771248D01*
X7022491Y27012716D01*
X7023608Y27239108D01*
X7025227Y27447011D01*
X7027341Y27633015D01*
X7029944Y27793709D01*
X7033031Y27925680D01*
X7036593Y28025519D01*
X7040625Y28089814D01*
X7045121Y28115154D01*
X7068840Y28131788D01*
X7123792Y28137280D01*
X7177069Y28107285D01*
G37*
G36*
X15484792Y24250112D02*
G01*
X15520043Y24222843D01*
X15581283Y24168692D01*
X15666258Y24089795D01*
X15772711Y23988289D01*
X15898389Y23866308D01*
X16041035Y23725990D01*
X16198394Y23569469D01*
X16333425Y23435163D01*
X16468965Y23301780D01*
X16593358Y23180822D01*
X16703497Y23075240D01*
X16796275Y22987983D01*
X16868585Y22922004D01*
X16917320Y22880252D01*
X16939375Y22865679D01*
X16960631Y22859399D01*
X16973044Y22830952D01*
X16976331Y22770350D01*
X16976331Y22675020D01*
X16886177Y22675020D01*
X16868738Y22675243D01*
X16848328Y22677519D01*
X16826619Y22684382D01*
X16800745Y22698370D01*
X16767842Y22722021D01*
X16725042Y22757873D01*
X16669482Y22808463D01*
X16598295Y22876329D01*
X16508617Y22964009D01*
X16397581Y23074040D01*
X16262322Y23208961D01*
X16099975Y23371308D01*
X15403927Y24067596D01*
X15431818Y24149832D01*
X15437593Y24166273D01*
X15459554Y24220549D01*
X15477039Y24252663D01*
X15484792Y24250112D01*
G37*
G36*
X18515108Y25914716D02*
G01*
X18552100Y25895036D01*
X18596662Y25861764D01*
X18634142Y25826669D01*
X18649892Y25801518D01*
X18643007Y25788076D01*
X18611681Y25748548D01*
X18560826Y25691883D01*
X18496836Y25625435D01*
X18343780Y25471351D01*
X18127735Y25471351D01*
X18034014Y25472075D01*
X17964060Y25475623D01*
X17917088Y25483830D01*
X17883028Y25498529D01*
X17851809Y25521552D01*
X17846602Y25525859D01*
X17784040Y25572859D01*
X17717782Y25616802D01*
X17643637Y25661851D01*
X17940880Y25661930D01*
X18238124Y25662010D01*
X18363904Y25789116D01*
X18385382Y25810568D01*
X18441951Y25864532D01*
X18485187Y25902116D01*
X18507092Y25916221D01*
X18515108Y25914716D01*
G37*
G36*
X19607158Y26989909D02*
G01*
X19616964Y26982284D01*
X19594359Y26977110D01*
X19572873Y26978608D01*
X19566555Y26988236D01*
X19574050Y26992434D01*
X19607158Y26989909D01*
G37*
G36*
X9316879Y25441759D02*
G01*
X9388100Y25420281D01*
X9403048Y25411834D01*
X9475072Y25356105D01*
X9538758Y25285851D01*
X9579007Y25217139D01*
X9580518Y25208014D01*
X9583666Y25159070D01*
X9586912Y25071248D01*
X9590222Y24946882D01*
X9593558Y24788307D01*
X9596884Y24597856D01*
X9600164Y24377865D01*
X9603363Y24130666D01*
X9606444Y23858595D01*
X9609371Y23563986D01*
X9612107Y23249172D01*
X9614617Y22916489D01*
X9616554Y22646192D01*
X9619047Y22308548D01*
X9621197Y22009139D01*
X9622852Y21745569D01*
X9623862Y21515443D01*
X9624075Y21316364D01*
X9623340Y21145939D01*
X9621505Y21001770D01*
X9618418Y20881463D01*
X9613929Y20782622D01*
X9607885Y20702851D01*
X9600136Y20639755D01*
X9590530Y20590938D01*
X9578915Y20554004D01*
X9565141Y20526559D01*
X9549055Y20506206D01*
X9530507Y20490551D01*
X9509345Y20477196D01*
X9485417Y20463748D01*
X9458572Y20447810D01*
X9432760Y20432621D01*
X9316891Y20390933D01*
X9201894Y20388828D01*
X9094057Y20424489D01*
X8999670Y20496100D01*
X8925024Y20601846D01*
X8919949Y20612556D01*
X8913420Y20630573D01*
X8907694Y20654266D01*
X8902685Y20686457D01*
X8898310Y20729970D01*
X8894482Y20787626D01*
X8891117Y20862248D01*
X8888131Y20956658D01*
X8885438Y21073679D01*
X8882953Y21216133D01*
X8880592Y21386843D01*
X8878270Y21588630D01*
X8875902Y21824318D01*
X8873402Y22096729D01*
X8870687Y22408685D01*
X8869504Y22541686D01*
X8866929Y22802849D01*
X8864159Y23050087D01*
X8861247Y23280238D01*
X8858248Y23490144D01*
X8855213Y23676643D01*
X8852197Y23836575D01*
X8849253Y23966781D01*
X8846434Y24064099D01*
X8843793Y24125371D01*
X8841383Y24147435D01*
X8830908Y24139829D01*
X8792843Y24104969D01*
X8729360Y24044078D01*
X8642860Y23959540D01*
X8535745Y23853739D01*
X8410417Y23729058D01*
X8269278Y23587880D01*
X8114730Y23432589D01*
X7949175Y23265569D01*
X7775014Y23089203D01*
X6723120Y22022026D01*
X6723120Y21343647D01*
X6722681Y21180910D01*
X6720841Y20996102D01*
X6717635Y20843676D01*
X6713140Y20726128D01*
X6707433Y20645949D01*
X6700587Y20605632D01*
X6700496Y20605391D01*
X6652946Y20523916D01*
X6580903Y20448400D01*
X6500684Y20395955D01*
X6494983Y20393473D01*
X6379613Y20366508D01*
X6259985Y20378405D01*
X6145867Y20428275D01*
X6125633Y20440953D01*
X6091573Y20462658D01*
X6062928Y20484159D01*
X6039184Y20509005D01*
X6019823Y20540741D01*
X6004329Y20582915D01*
X5992187Y20639075D01*
X5982881Y20712766D01*
X5975894Y20807537D01*
X5970710Y20926934D01*
X5966814Y21074505D01*
X5963690Y21253795D01*
X5960820Y21468353D01*
X5957690Y21721726D01*
X5955751Y21886113D01*
X5952897Y22162744D01*
X5950199Y22464248D01*
X5947731Y22780098D01*
X5945569Y23099770D01*
X5943786Y23412739D01*
X5942458Y23708478D01*
X5941660Y23976464D01*
X5941368Y24124995D01*
X5941017Y24354062D01*
X5940974Y24546362D01*
X5941356Y24705463D01*
X5942285Y24834931D01*
X5943879Y24938334D01*
X5946258Y25019238D01*
X5949541Y25081210D01*
X5953848Y25127817D01*
X5959299Y25162626D01*
X5966012Y25189204D01*
X5974106Y25211118D01*
X5983703Y25231934D01*
X5992266Y25248185D01*
X6062505Y25333186D01*
X6160746Y25398756D01*
X6275821Y25437053D01*
X6356007Y25440809D01*
X6462551Y25413623D01*
X6557667Y25354543D01*
X6632566Y25269519D01*
X6678460Y25164498D01*
X6681787Y25145871D01*
X6687895Y25076257D01*
X6692945Y24965313D01*
X6696923Y24813729D01*
X6699811Y24622199D01*
X6701596Y24391412D01*
X6702260Y24122062D01*
X6702514Y23972433D01*
X6703439Y23784513D01*
X6704963Y23612613D01*
X6707011Y23461123D01*
X6709510Y23334434D01*
X6712382Y23236940D01*
X6715553Y23173031D01*
X6718949Y23147098D01*
X6729589Y23150985D01*
X6769540Y23182708D01*
X6838808Y23244885D01*
X6937355Y23337479D01*
X7065140Y23460451D01*
X7222124Y23613762D01*
X7408268Y23797375D01*
X7623531Y24011251D01*
X7867874Y24255351D01*
X7879506Y24266998D01*
X8061806Y24449138D01*
X8236315Y24622819D01*
X8400580Y24785642D01*
X8552149Y24935206D01*
X8688570Y25069111D01*
X8807392Y25184957D01*
X8906162Y25280346D01*
X8982428Y25352876D01*
X9033737Y25400148D01*
X9057639Y25419762D01*
X9061166Y25421565D01*
X9133811Y25442370D01*
X9225582Y25449111D01*
X9316879Y25441759D01*
G37*
G36*
X10121151Y29959339D02*
G01*
X10182514Y29950570D01*
X10258459Y29938111D01*
X10398599Y29913796D01*
X10764029Y29551724D01*
X10837201Y29478898D01*
X10931430Y29384059D01*
X11011890Y29301841D01*
X11074460Y29236507D01*
X11115022Y29192318D01*
X11129458Y29173538D01*
X11113427Y29165880D01*
X11065508Y29159766D01*
X10996847Y29157422D01*
X10864236Y29157422D01*
X10462152Y29559925D01*
X10457165Y29564919D01*
X10352874Y29670440D01*
X10261042Y29765354D01*
X10185214Y29845835D01*
X10128933Y29908058D01*
X10095744Y29948197D01*
X10089193Y29962427D01*
X10121151Y29959339D01*
G37*
G36*
X12444910Y27737450D02*
G01*
X12486204Y27731873D01*
X12503158Y27716145D01*
X12506439Y27685112D01*
X12505468Y27665990D01*
X12490273Y27638720D01*
X12446579Y27632151D01*
X12397609Y27642865D01*
X12336964Y27685112D01*
X12287210Y27738073D01*
X12396825Y27738073D01*
X12444910Y27737450D01*
G37*
G36*
X17678894Y32504084D02*
G01*
X17701917Y32494369D01*
X17736868Y32470299D01*
X17786250Y32429574D01*
X17852569Y32369893D01*
X17938328Y32288959D01*
X18046031Y32184471D01*
X18178184Y32054128D01*
X18337288Y31895633D01*
X18390377Y31842486D01*
X18518909Y31713098D01*
X18636326Y31593904D01*
X18739465Y31488177D01*
X18825165Y31399190D01*
X18890264Y31330215D01*
X18931601Y31284528D01*
X18946014Y31265399D01*
X18945355Y31262285D01*
X18922464Y31237821D01*
X18877165Y31209872D01*
X18869733Y31206200D01*
X18819325Y31183578D01*
X18787094Y31172799D01*
X18783212Y31173989D01*
X18753146Y31196597D01*
X18699053Y31244806D01*
X18624801Y31314683D01*
X18534259Y31402292D01*
X18431294Y31503699D01*
X18319776Y31614970D01*
X18203572Y31732172D01*
X18086552Y31851368D01*
X17972583Y31968626D01*
X17865535Y32080010D01*
X17769275Y32181587D01*
X17687673Y32269422D01*
X17624595Y32339580D01*
X17583912Y32388129D01*
X17569492Y32411132D01*
X17574809Y32445014D01*
X17610225Y32488849D01*
X17674219Y32504545D01*
X17678894Y32504084D01*
G37*
G36*
X22148135Y33856465D02*
G01*
X22155764Y33849173D01*
X22170626Y33831019D01*
X22186634Y33811399D01*
X22198163Y33792719D01*
X22203267Y33772588D01*
X22199999Y33748614D01*
X22186415Y33718407D01*
X22160569Y33679575D01*
X22120515Y33629727D01*
X22064308Y33566472D01*
X21990002Y33487419D01*
X21895652Y33390177D01*
X21779311Y33272355D01*
X21639035Y33131561D01*
X21472877Y32965405D01*
X21278893Y32771495D01*
X20323141Y31815570D01*
X20535141Y31604367D01*
X20562716Y31576756D01*
X20635279Y31502660D01*
X20693814Y31440774D01*
X20732906Y31396910D01*
X20747140Y31376877D01*
X20731071Y31369134D01*
X20683119Y31362959D01*
X20614430Y31360592D01*
X20481720Y31360592D01*
X19502253Y32340898D01*
X19482542Y32360630D01*
X19259371Y32584771D01*
X19065251Y32781163D01*
X18900402Y32949579D01*
X18765038Y33089794D01*
X18659378Y33201580D01*
X18583638Y33284710D01*
X18538035Y33338960D01*
X18522786Y33364100D01*
X18528146Y33398318D01*
X18563599Y33442178D01*
X18627760Y33457839D01*
X18632823Y33457236D01*
X18654603Y33447491D01*
X18687930Y33424214D01*
X18735056Y33385301D01*
X18798233Y33328650D01*
X18879714Y33252161D01*
X18981752Y33153732D01*
X19106598Y33031260D01*
X19256505Y32882644D01*
X19433725Y32705783D01*
X20185558Y31953726D01*
X21154349Y32922346D01*
X21215050Y32983030D01*
X21400878Y33168677D01*
X21559674Y33326970D01*
X21693651Y33459960D01*
X21805026Y33569696D01*
X21896013Y33658228D01*
X21968828Y33727607D01*
X22025685Y33779883D01*
X22068800Y33817105D01*
X22100387Y33841324D01*
X22122662Y33854591D01*
X22137840Y33858954D01*
X22148135Y33856465D01*
G37*
%TD*%
M02*
