%TF.GenerationSoftware,KiCad,Pcbnew,(6.0.5)*%
%TF.CreationDate,2022-07-12T12:17:59-06:00*%
%TF.ProjectId,jack,6a61636b-2e6b-4696-9361-645f70636258,rev?*%
%TF.SameCoordinates,PX7dfd6b0PY631d890*%
%TF.FileFunction,AssemblyDrawing,Bot*%
%FSLAX46Y46*%
G04 Gerber Fmt 4.6, Leading zero omitted, Abs format (unit mm)*
G04 Created by KiCad (PCBNEW (6.0.5)) date 2022-07-12 12:17:59*
%MOMM*%
%LPD*%
G01*
G04 APERTURE LIST*
%ADD10C,0.100000*%
%ADD11C,0.150000*%
%ADD12C,0.108000*%
G04 APERTURE END LIST*
D10*
X3260000Y10410000D02*
X19680000Y10410000D01*
X19680000Y10410000D02*
X19680000Y7270000D01*
X19680000Y7270000D02*
X3260000Y7270000D01*
X3260000Y7270000D02*
X3260000Y10410000D01*
D11*
X18824285Y8861429D02*
X19157619Y8861429D01*
X19157619Y8337620D02*
X19157619Y9337620D01*
X18681428Y9337620D01*
X18348095Y8623334D02*
X17871904Y8623334D01*
X18443333Y8337620D02*
X18110000Y9337620D01*
X17776666Y8337620D01*
X17110000Y8861429D02*
X16967142Y8813810D01*
X16919523Y8766191D01*
X16871904Y8670953D01*
X16871904Y8528096D01*
X16919523Y8432858D01*
X16967142Y8385239D01*
X17062380Y8337620D01*
X17443333Y8337620D01*
X17443333Y9337620D01*
X17110000Y9337620D01*
X17014761Y9290000D01*
X16967142Y9242381D01*
X16919523Y9147143D01*
X16919523Y9051905D01*
X16967142Y8956667D01*
X17014761Y8909048D01*
X17110000Y8861429D01*
X17443333Y8861429D01*
X15681428Y8337620D02*
X15681428Y9337620D01*
X15348095Y8623334D01*
X15014761Y9337620D01*
X15014761Y8337620D01*
X14586190Y8623334D02*
X14110000Y8623334D01*
X14681428Y8337620D02*
X14348095Y9337620D01*
X14014761Y8337620D01*
X13110000Y8337620D02*
X13443333Y8813810D01*
X13681428Y8337620D02*
X13681428Y9337620D01*
X13300476Y9337620D01*
X13205238Y9290000D01*
X13157619Y9242381D01*
X13110000Y9147143D01*
X13110000Y9004286D01*
X13157619Y8909048D01*
X13205238Y8861429D01*
X13300476Y8813810D01*
X13681428Y8813810D01*
X12681428Y8337620D02*
X12681428Y9337620D01*
X12110000Y8337620D02*
X12538571Y8909048D01*
X12110000Y9337620D02*
X12681428Y8766191D01*
X11681428Y8337620D02*
X11681428Y9337620D01*
X11205238Y8337620D02*
X11205238Y9337620D01*
X10633809Y8337620D01*
X10633809Y9337620D01*
X9633809Y9290000D02*
X9729047Y9337620D01*
X9871904Y9337620D01*
X10014761Y9290000D01*
X10110000Y9194762D01*
X10157619Y9099524D01*
X10205238Y8909048D01*
X10205238Y8766191D01*
X10157619Y8575715D01*
X10110000Y8480477D01*
X10014761Y8385239D01*
X9871904Y8337620D01*
X9776666Y8337620D01*
X9633809Y8385239D01*
X9586190Y8432858D01*
X9586190Y8766191D01*
X9776666Y8766191D01*
X9205238Y8385239D02*
X9062380Y8337620D01*
X8824285Y8337620D01*
X8729047Y8385239D01*
X8681428Y8432858D01*
X8633809Y8528096D01*
X8633809Y8623334D01*
X8681428Y8718572D01*
X8729047Y8766191D01*
X8824285Y8813810D01*
X9014761Y8861429D01*
X9110000Y8909048D01*
X9157619Y8956667D01*
X9205238Y9051905D01*
X9205238Y9147143D01*
X9157619Y9242381D01*
X9110000Y9290000D01*
X9014761Y9337620D01*
X8776666Y9337620D01*
X8633809Y9290000D01*
X7443333Y8337620D02*
X7443333Y9337620D01*
X7443333Y8861429D02*
X6871904Y8861429D01*
X6871904Y8337620D02*
X6871904Y9337620D01*
X6395714Y8861429D02*
X6062380Y8861429D01*
X5919523Y8337620D02*
X6395714Y8337620D01*
X6395714Y9337620D01*
X5919523Y9337620D01*
X4919523Y8337620D02*
X5252857Y8813810D01*
X5490952Y8337620D02*
X5490952Y9337620D01*
X5110000Y9337620D01*
X5014761Y9290000D01*
X4967142Y9242381D01*
X4919523Y9147143D01*
X4919523Y9004286D01*
X4967142Y8909048D01*
X5014761Y8861429D01*
X5110000Y8813810D01*
X5490952Y8813810D01*
X4490952Y8861429D02*
X4157619Y8861429D01*
X4014761Y8337620D02*
X4490952Y8337620D01*
X4490952Y9337620D01*
X4014761Y9337620D01*
D12*
%TO.C,R2*%
X23135714Y6450000D02*
X22792857Y6690000D01*
X23135714Y6861429D02*
X22415714Y6861429D01*
X22415714Y6587143D01*
X22450000Y6518572D01*
X22484285Y6484286D01*
X22552857Y6450000D01*
X22655714Y6450000D01*
X22724285Y6484286D01*
X22758571Y6518572D01*
X22792857Y6587143D01*
X22792857Y6861429D01*
X22484285Y6175715D02*
X22450000Y6141429D01*
X22415714Y6072858D01*
X22415714Y5901429D01*
X22450000Y5832858D01*
X22484285Y5798572D01*
X22552857Y5764286D01*
X22621428Y5764286D01*
X22724285Y5798572D01*
X23135714Y6210000D01*
X23135714Y5764286D01*
%TO.C,R1*%
X20595714Y6450000D02*
X20252857Y6690000D01*
X20595714Y6861429D02*
X19875714Y6861429D01*
X19875714Y6587143D01*
X19910000Y6518572D01*
X19944285Y6484286D01*
X20012857Y6450000D01*
X20115714Y6450000D01*
X20184285Y6484286D01*
X20218571Y6518572D01*
X20252857Y6587143D01*
X20252857Y6861429D01*
X20595714Y5764286D02*
X20595714Y6175715D01*
X20595714Y5970000D02*
X19875714Y5970000D01*
X19978571Y6038572D01*
X20047142Y6107143D01*
X20081428Y6175715D01*
D10*
%TO.C,R2*%
X23610000Y8130000D02*
X23610000Y4530000D01*
X22810000Y2520000D02*
X22810000Y4530000D01*
X22010000Y8130000D02*
X23610000Y8130000D01*
X23610000Y4530000D02*
X22010000Y4530000D01*
X22810000Y10140000D02*
X22810000Y8130000D01*
X22010000Y4530000D02*
X22010000Y8130000D01*
%TO.C,R1*%
X19470000Y8130000D02*
X21070000Y8130000D01*
X20270000Y2520000D02*
X20270000Y4530000D01*
X19470000Y4530000D02*
X19470000Y8130000D01*
X20270000Y10140000D02*
X20270000Y8130000D01*
X21070000Y4530000D02*
X19470000Y4530000D01*
X21070000Y8130000D02*
X21070000Y4530000D01*
%TD*%
M02*
