%TF.GenerationSoftware,KiCad,Pcbnew,(6.0.5)*%
%TF.CreationDate,2022-07-12T12:17:59-06:00*%
%TF.ProjectId,jack,6a61636b-2e6b-4696-9361-645f70636258,rev?*%
%TF.SameCoordinates,PX7dfd6b0PY631d890*%
%TF.FileFunction,Legend,Top*%
%TF.FilePolarity,Positive*%
%FSLAX46Y46*%
G04 Gerber Fmt 4.6, Leading zero omitted, Abs format (unit mm)*
G04 Created by KiCad (PCBNEW (6.0.5)) date 2022-07-12 12:17:59*
%MOMM*%
%LPD*%
G01*
G04 APERTURE LIST*
%ADD10C,0.120000*%
G04 APERTURE END LIST*
D10*
%TO.C,D4*%
X26560251Y11461883D02*
G75*
G03*
X27754623Y13167339I-287383J1472213D01*
G01*
X25985254Y14406264D02*
G75*
G03*
X24791150Y12700621I287614J-1472168D01*
G01*
%TO.C,D2*%
X27391712Y27195828D02*
G75*
G03*
X28432899Y25392766I1455788J-361498D01*
G01*
X30303230Y26472603D02*
G75*
G03*
X29262327Y28275828I-1455730J361727D01*
G01*
%TO.C,D3*%
X347902Y13036065D02*
G75*
G03*
X1389089Y11233003I1455788J-361498D01*
G01*
X3259420Y12312840D02*
G75*
G03*
X2218517Y14116065I-1455730J361727D01*
G01*
%TO.C,D1*%
X607101Y26352766D02*
G75*
G03*
X1648288Y28155828I-414601J1441564D01*
G01*
X-222327Y29235829D02*
G75*
G03*
X-1263231Y27432603I414827J-1441499D01*
G01*
%TO.C,G\u002A\u002A\u002A*%
G36*
X11045361Y19279788D02*
G01*
X11142514Y19257548D01*
X11180641Y19241176D01*
X11251358Y19205867D01*
X11350551Y19153852D01*
X11474109Y19087363D01*
X11617920Y19008631D01*
X11777872Y18919888D01*
X11949853Y18823367D01*
X12115063Y18729674D01*
X12325625Y18609761D01*
X12553800Y18479982D01*
X12790890Y18345275D01*
X13028197Y18210575D01*
X13257023Y18080820D01*
X13468670Y17960946D01*
X13654439Y17855889D01*
X13696587Y17832085D01*
X13854304Y17742648D01*
X13999908Y17659324D01*
X14129379Y17584471D01*
X14238698Y17520447D01*
X14323844Y17469610D01*
X14380798Y17434318D01*
X14405538Y17416928D01*
X14406262Y17415867D01*
X14387799Y17405538D01*
X14333386Y17377094D01*
X14244911Y17331489D01*
X14124258Y17269676D01*
X13973316Y17192607D01*
X13793969Y17101236D01*
X13588104Y16996516D01*
X13357607Y16879401D01*
X13104364Y16750843D01*
X12830262Y16611795D01*
X12537187Y16463212D01*
X12227026Y16306045D01*
X11901663Y16141248D01*
X11562986Y15969774D01*
X11212881Y15792577D01*
X10853233Y15610609D01*
X10485930Y15424824D01*
X10112858Y15236175D01*
X9735902Y15045615D01*
X9356949Y14854097D01*
X8977885Y14662574D01*
X8600597Y14472000D01*
X8226970Y14283327D01*
X7858891Y14097509D01*
X7498246Y13915499D01*
X7146921Y13738251D01*
X6806803Y13566716D01*
X6479778Y13401849D01*
X6167731Y13244603D01*
X5872550Y13095930D01*
X5596120Y12956784D01*
X5340328Y12828118D01*
X5107059Y12710886D01*
X4898201Y12606039D01*
X4715639Y12514533D01*
X4561260Y12437319D01*
X4436949Y12375351D01*
X4344594Y12329581D01*
X4286079Y12300965D01*
X4263770Y12290610D01*
X4267982Y12272074D01*
X4293723Y12226997D01*
X4336642Y12162387D01*
X4385836Y12094034D01*
X4526677Y11882340D01*
X4649027Y11654256D01*
X4746051Y11423573D01*
X4794994Y11268840D01*
X4815551Y11188926D01*
X4830486Y11119241D01*
X4840683Y11050382D01*
X4847028Y10972948D01*
X4850408Y10877535D01*
X4851706Y10754741D01*
X4851855Y10665087D01*
X4851361Y10521354D01*
X4849298Y10410642D01*
X4844796Y10323607D01*
X4836986Y10250909D01*
X4824996Y10183205D01*
X4807956Y10111152D01*
X4796054Y10066051D01*
X4700967Y9783876D01*
X4573961Y9519085D01*
X4418229Y9274988D01*
X4236965Y9054900D01*
X4033362Y8862133D01*
X3810614Y8700000D01*
X3571915Y8571815D01*
X3320457Y8480889D01*
X3250996Y8463205D01*
X3137037Y8441332D01*
X3008135Y8423835D01*
X2877693Y8411884D01*
X2759116Y8406649D01*
X2665809Y8409301D01*
X2651451Y8410869D01*
X2389877Y8454582D01*
X2158919Y8516000D01*
X1949166Y8598936D01*
X1751208Y8707202D01*
X1555633Y8844613D01*
X1528562Y8865873D01*
X1348105Y9033298D01*
X1182024Y9234800D01*
X1034328Y9463375D01*
X909030Y9712017D01*
X810138Y9973723D01*
X742041Y10239546D01*
X723771Y10372388D01*
X713650Y10531113D01*
X711631Y10701159D01*
X717667Y10867967D01*
X731712Y11016979D01*
X744793Y11095855D01*
X813342Y11353680D01*
X911426Y11615823D01*
X1011422Y11825450D01*
X1054315Y11906998D01*
X1088630Y11973462D01*
X1110226Y12016746D01*
X1115588Y12029137D01*
X1095768Y12032771D01*
X1041705Y12037434D01*
X961492Y12042543D01*
X863226Y12047515D01*
X856080Y12047834D01*
X593689Y12073321D01*
X355336Y12127321D01*
X131089Y12213018D01*
X-88979Y12333600D01*
X-142504Y12368236D01*
X-373827Y12547111D01*
X-581312Y12758475D01*
X-761463Y12997649D01*
X-910781Y13259955D01*
X-1025769Y13540713D01*
X-1031077Y13556747D01*
X-1098288Y13814270D01*
X-1138657Y14087195D01*
X-1152178Y14365879D01*
X-1138844Y14640676D01*
X-1098648Y14901939D01*
X-1032164Y15138413D01*
X-906012Y15435495D01*
X-751902Y15704411D01*
X-571568Y15943473D01*
X-366742Y16150992D01*
X-139157Y16325281D01*
X109454Y16464650D01*
X377358Y16567412D01*
X457807Y16589969D01*
X542280Y16610679D01*
X614331Y16624642D01*
X685316Y16632784D01*
X766593Y16636034D01*
X869518Y16635319D01*
X977890Y16632428D01*
X1158886Y16623317D01*
X1310241Y16606355D01*
X1444391Y16578634D01*
X1573775Y16537243D01*
X1710830Y16479274D01*
X1785228Y16443604D01*
X2007427Y16314189D01*
X2210874Y16153540D01*
X2398238Y15958958D01*
X2572189Y15727744D01*
X2703073Y15515312D01*
X2753838Y15427505D01*
X2797570Y15354933D01*
X2829918Y15304597D01*
X2846532Y15283504D01*
X2847227Y15283269D01*
X2867425Y15292619D01*
X2923196Y15319912D01*
X3012283Y15364013D01*
X3132429Y15423788D01*
X3281376Y15498101D01*
X3456867Y15585818D01*
X3656645Y15685805D01*
X3878452Y15796926D01*
X4120032Y15918047D01*
X4379127Y16048032D01*
X4653479Y16185748D01*
X4940832Y16330059D01*
X5238928Y16479830D01*
X5545510Y16633928D01*
X5858321Y16791216D01*
X6175104Y16950560D01*
X6493600Y17110826D01*
X6811554Y17270879D01*
X7126707Y17429583D01*
X7436803Y17585804D01*
X7739583Y17738408D01*
X8032792Y17886259D01*
X8314171Y18028223D01*
X8581464Y18163166D01*
X8832412Y18289951D01*
X9064760Y18407444D01*
X9276249Y18514512D01*
X9457834Y18606573D01*
X9671716Y18714751D01*
X9876963Y18817883D01*
X10070040Y18914234D01*
X10247412Y19002074D01*
X10405546Y19079670D01*
X10540905Y19145290D01*
X10649957Y19197201D01*
X10729165Y19233671D01*
X10774996Y19252967D01*
X10780403Y19254782D01*
X10917885Y19283063D01*
X11045361Y19279788D01*
G37*
G36*
X22888846Y9015215D02*
G01*
X22999989Y8963208D01*
X23089586Y8883176D01*
X23135140Y8811731D01*
X23145965Y8776657D01*
X23163642Y8704227D01*
X23187271Y8598736D01*
X23215952Y8464482D01*
X23248786Y8305762D01*
X23284874Y8126872D01*
X23323316Y7932110D01*
X23363213Y7725773D01*
X23371302Y7683420D01*
X23454130Y7248799D01*
X23529358Y6853834D01*
X23597318Y6496563D01*
X23658341Y6175021D01*
X23712759Y5887246D01*
X23760905Y5631275D01*
X23803109Y5405144D01*
X23839703Y5206889D01*
X23871020Y5034549D01*
X23897391Y4886159D01*
X23919147Y4759756D01*
X23936621Y4653378D01*
X23950144Y4565060D01*
X23960048Y4492840D01*
X23966665Y4434754D01*
X23970327Y4388840D01*
X23971365Y4353134D01*
X23970111Y4325672D01*
X23966897Y4304492D01*
X23962054Y4287630D01*
X23955915Y4273123D01*
X23949697Y4260734D01*
X23899767Y4188246D01*
X23830874Y4117329D01*
X23760712Y4066059D01*
X23757382Y4064280D01*
X23662629Y4036566D01*
X23555074Y4038896D01*
X23448065Y4067979D01*
X23354955Y4120525D01*
X23299545Y4177104D01*
X23282999Y4202055D01*
X23268240Y4229956D01*
X23254143Y4265433D01*
X23239585Y4313110D01*
X23223441Y4377615D01*
X23204587Y4463572D01*
X23181898Y4575608D01*
X23154250Y4718347D01*
X23120520Y4896417D01*
X23106188Y4972630D01*
X23077275Y5124014D01*
X23049813Y5263033D01*
X23025029Y5383843D01*
X23004150Y5480601D01*
X22988402Y5547465D01*
X22979013Y5578592D01*
X22978914Y5578780D01*
X22956726Y5599750D01*
X22903618Y5640924D01*
X22824017Y5699140D01*
X22722348Y5771240D01*
X22603038Y5854065D01*
X22470514Y5944455D01*
X22401340Y5991056D01*
X22244988Y6096205D01*
X22062950Y6219045D01*
X21864478Y6353305D01*
X21658828Y6492715D01*
X21455254Y6631004D01*
X21263011Y6761900D01*
X21166547Y6827728D01*
X21016223Y6930185D01*
X20877167Y7024536D01*
X20753178Y7108236D01*
X20648055Y7178738D01*
X20565596Y7233498D01*
X20509601Y7269969D01*
X20483869Y7285607D01*
X20482630Y7285989D01*
X20485446Y7264757D01*
X20495759Y7204585D01*
X20513067Y7108137D01*
X20536870Y6978080D01*
X20566666Y6817079D01*
X20601955Y6627800D01*
X20642236Y6412910D01*
X20687007Y6175073D01*
X20735768Y5916955D01*
X20788019Y5641224D01*
X20843257Y5350543D01*
X20900982Y5047580D01*
X20960694Y4735000D01*
X21021891Y4415469D01*
X21027938Y4383936D01*
X21059716Y4215939D01*
X21083279Y4083547D01*
X21099023Y3980882D01*
X21107345Y3902066D01*
X21108640Y3841219D01*
X21103302Y3792462D01*
X21091728Y3749917D01*
X21074314Y3707704D01*
X21073547Y3706038D01*
X21006727Y3603794D01*
X20918280Y3530657D01*
X20815889Y3489632D01*
X20707241Y3483724D01*
X20600020Y3515940D01*
X20594570Y3518744D01*
X20507388Y3576990D01*
X20436411Y3647593D01*
X20395897Y3713823D01*
X20386420Y3748811D01*
X20370578Y3819511D01*
X20349588Y3919950D01*
X20324671Y4044155D01*
X20297044Y4186154D01*
X20267926Y4339973D01*
X20265653Y4352160D01*
X20243202Y4472198D01*
X20213780Y4628800D01*
X20178345Y4816908D01*
X20137853Y5031465D01*
X20093259Y5267414D01*
X20045520Y5519698D01*
X19995591Y5783258D01*
X19944430Y6053039D01*
X19892992Y6323983D01*
X19862113Y6486488D01*
X19814296Y6739194D01*
X19768884Y6981457D01*
X19726502Y7209803D01*
X19687774Y7420760D01*
X19653325Y7610854D01*
X19623780Y7776611D01*
X19599764Y7914559D01*
X19581901Y8021223D01*
X19570816Y8093131D01*
X19567131Y8126411D01*
X19586796Y8239286D01*
X19641443Y8337521D01*
X19724547Y8414986D01*
X19829586Y8465552D01*
X19946746Y8483102D01*
X19979008Y8482333D01*
X20009468Y8478345D01*
X20042632Y8468616D01*
X20083004Y8450628D01*
X20135092Y8421858D01*
X20203399Y8379787D01*
X20292432Y8321893D01*
X20406697Y8245655D01*
X20550699Y8148554D01*
X20579392Y8129161D01*
X20900605Y7912039D01*
X21188545Y7717456D01*
X21445038Y7544218D01*
X21671909Y7391133D01*
X21870985Y7257008D01*
X22044091Y7140651D01*
X22193053Y7040869D01*
X22319698Y6956469D01*
X22425849Y6886258D01*
X22513335Y6829045D01*
X22583980Y6783635D01*
X22639611Y6748838D01*
X22682052Y6723459D01*
X22713131Y6706306D01*
X22734673Y6696186D01*
X22748503Y6691908D01*
X22756448Y6692277D01*
X22760333Y6696102D01*
X22761985Y6702190D01*
X22762169Y6703326D01*
X22759750Y6732658D01*
X22750084Y6799127D01*
X22733945Y6898267D01*
X22712109Y7025614D01*
X22685351Y7176701D01*
X22654446Y7347063D01*
X22620169Y7532236D01*
X22595789Y7661902D01*
X22550264Y7904074D01*
X22512712Y8108466D01*
X22482808Y8278847D01*
X22460223Y8418984D01*
X22444629Y8532645D01*
X22435700Y8623598D01*
X22433107Y8695611D01*
X22436524Y8752452D01*
X22445622Y8797887D01*
X22460075Y8835687D01*
X22479553Y8869617D01*
X22489540Y8884162D01*
X22551615Y8945692D01*
X22635501Y8996932D01*
X22723205Y9028173D01*
X22765963Y9033311D01*
X22888846Y9015215D01*
G37*
G36*
X5343539Y28998531D02*
G01*
X5362289Y29587133D01*
X5413475Y30159522D01*
X5497092Y30711867D01*
X5598438Y31182101D01*
X5760117Y31746516D01*
X5784051Y31811878D01*
X9639601Y31811878D01*
X9659230Y31561342D01*
X9721210Y31311995D01*
X9825541Y31063826D01*
X9835519Y31044403D01*
X9978053Y30810174D01*
X10145222Y30609537D01*
X10339781Y30439802D01*
X10564488Y30298277D01*
X10637940Y30261040D01*
X10907043Y30151334D01*
X11174377Y30083322D01*
X11443367Y30056649D01*
X11717437Y30070959D01*
X11983144Y30121562D01*
X12258381Y30209289D01*
X12502620Y30325075D01*
X12715315Y30468638D01*
X12806071Y30547357D01*
X12986283Y30738420D01*
X13128286Y30938680D01*
X13236180Y31155112D01*
X13314066Y31394693D01*
X13321195Y31423670D01*
X13351384Y31599677D01*
X13355731Y31666029D01*
X15869223Y31666029D01*
X15872226Y31629661D01*
X15923869Y31375216D01*
X16014349Y31132140D01*
X16140765Y30904520D01*
X16300217Y30696441D01*
X16489802Y30511991D01*
X16706622Y30355254D01*
X16824308Y30288570D01*
X17010823Y30204254D01*
X17208482Y30136585D01*
X17397127Y30092454D01*
X17399122Y30092118D01*
X17536174Y30077302D01*
X17697673Y30072634D01*
X17867032Y30077715D01*
X18027663Y30092145D01*
X18137464Y30109889D01*
X18414317Y30186708D01*
X18667631Y30297143D01*
X18895450Y30439473D01*
X19095817Y30611976D01*
X19266774Y30812932D01*
X19406366Y31040618D01*
X19512636Y31293312D01*
X19524682Y31330392D01*
X19559462Y31480599D01*
X19580003Y31654889D01*
X19585594Y31837194D01*
X19575523Y32011444D01*
X19559498Y32116484D01*
X19486605Y32373064D01*
X19376987Y32611118D01*
X19233148Y32828129D01*
X19057588Y33021582D01*
X18852812Y33188962D01*
X18621320Y33327754D01*
X18365615Y33435442D01*
X18198136Y33484953D01*
X18041949Y33513711D01*
X17862729Y33529705D01*
X17674509Y33532943D01*
X17491319Y33523430D01*
X17327190Y33501173D01*
X17253835Y33484512D01*
X16989872Y33393870D01*
X16746065Y33271208D01*
X16525745Y33119568D01*
X16332243Y32941994D01*
X16168889Y32741530D01*
X16039014Y32521219D01*
X15948158Y32291385D01*
X15920047Y32179126D01*
X15896513Y32046655D01*
X15879142Y31907778D01*
X15869517Y31776301D01*
X15869223Y31666029D01*
X13355731Y31666029D01*
X13363854Y31789997D01*
X13358457Y31978236D01*
X13335048Y32147997D01*
X13327942Y32179312D01*
X13247312Y32422783D01*
X13132076Y32646570D01*
X12985976Y32849003D01*
X12812753Y33028410D01*
X12616152Y33183119D01*
X12399913Y33311460D01*
X12167780Y33411760D01*
X11923495Y33482349D01*
X11670801Y33521555D01*
X11413440Y33527706D01*
X11155154Y33499132D01*
X10899687Y33434161D01*
X10697821Y33353906D01*
X10442784Y33214248D01*
X10221092Y33049341D01*
X10033323Y32859803D01*
X9880054Y32646252D01*
X9761863Y32409305D01*
X9727390Y32316568D01*
X9662321Y32063616D01*
X9639601Y31811878D01*
X5784051Y31811878D01*
X5961180Y32295613D01*
X6201362Y32829008D01*
X6480400Y33346317D01*
X6798029Y33847156D01*
X7153983Y34331143D01*
X7547998Y34797893D01*
X7979810Y35247023D01*
X8449153Y35678149D01*
X8955763Y36090888D01*
X9017339Y36137868D01*
X9428036Y36435077D01*
X9831168Y36697533D01*
X10234821Y36929852D01*
X10647086Y37136651D01*
X11076049Y37322547D01*
X11131338Y37344581D01*
X11673912Y37536097D01*
X12230193Y37687842D01*
X12799142Y37799764D01*
X13379717Y37871813D01*
X13970879Y37903936D01*
X14571586Y37896081D01*
X15180800Y37848198D01*
X15797478Y37760233D01*
X16420581Y37632137D01*
X16506159Y37611515D01*
X17109136Y37443204D01*
X17688250Y37239901D01*
X18243300Y37001760D01*
X18774086Y36728935D01*
X19280409Y36421579D01*
X19762067Y36079846D01*
X20218861Y35703888D01*
X20650591Y35293860D01*
X21057056Y34849915D01*
X21438056Y34372206D01*
X21793391Y33860887D01*
X22122861Y33316112D01*
X22133040Y33298011D01*
X22424835Y32736912D01*
X22675688Y32167041D01*
X22885435Y31589234D01*
X23053914Y31004330D01*
X23180961Y30413167D01*
X23266414Y29816582D01*
X23310109Y29215413D01*
X23311883Y28610499D01*
X23271574Y28002677D01*
X23230091Y27657991D01*
X23147273Y27167073D01*
X23034872Y26660327D01*
X22895881Y26149013D01*
X22733292Y25644395D01*
X22597073Y25275589D01*
X22562497Y25185107D01*
X22535441Y25110269D01*
X22518699Y25059092D01*
X22514900Y25039687D01*
X22534108Y25048286D01*
X22588259Y25074538D01*
X22674475Y25116996D01*
X22789880Y25174212D01*
X22931595Y25244742D01*
X23096746Y25327137D01*
X23282453Y25419952D01*
X23485840Y25521740D01*
X23704031Y25631055D01*
X23934147Y25746449D01*
X24173311Y25866477D01*
X24418648Y25989692D01*
X24667279Y26114646D01*
X24916327Y26239895D01*
X25162916Y26363990D01*
X25404167Y26485486D01*
X25637205Y26602936D01*
X25859152Y26714894D01*
X26067131Y26819912D01*
X26258264Y26916545D01*
X26429675Y27003346D01*
X26578487Y27078867D01*
X26701822Y27141664D01*
X26796803Y27190288D01*
X26860554Y27223294D01*
X26890197Y27239235D01*
X26891946Y27240389D01*
X26884215Y27260113D01*
X26856587Y27306398D01*
X26813918Y27371415D01*
X26781659Y27418239D01*
X26616359Y27689853D01*
X26490382Y27975062D01*
X26404126Y28270729D01*
X26357990Y28573722D01*
X26352370Y28880903D01*
X26387664Y29189139D01*
X26464271Y29495294D01*
X26503756Y29608995D01*
X26619918Y29865669D01*
X26765507Y30098729D01*
X26937083Y30306103D01*
X27131203Y30485723D01*
X27344426Y30635516D01*
X27573310Y30753412D01*
X27814413Y30837341D01*
X28064295Y30885232D01*
X28319513Y30895015D01*
X28576626Y30864620D01*
X28587248Y30862467D01*
X28855664Y30786507D01*
X29103399Y30674095D01*
X29329373Y30526342D01*
X29532507Y30344358D01*
X29711722Y30129253D01*
X29865939Y29882137D01*
X29994077Y29604121D01*
X30089208Y29317681D01*
X30111636Y29233210D01*
X30127523Y29160621D01*
X30137965Y29089366D01*
X30144061Y29008897D01*
X30146906Y28908665D01*
X30147600Y28778121D01*
X30147587Y28756497D01*
X30146526Y28614158D01*
X30143074Y28504194D01*
X30136337Y28416639D01*
X30125425Y28341526D01*
X30109444Y28268889D01*
X30101071Y28236963D01*
X30005897Y27950814D01*
X29880663Y27676725D01*
X29731089Y27426936D01*
X29705375Y27390176D01*
X29665536Y27332486D01*
X29638116Y27289000D01*
X29629683Y27271210D01*
X29648138Y27266851D01*
X29694667Y27271190D01*
X29719716Y27275516D01*
X29833245Y27289550D01*
X29973356Y27295090D01*
X30125221Y27292597D01*
X30274010Y27282535D01*
X30404897Y27265366D01*
X30467227Y27252215D01*
X30674322Y27183217D01*
X30886067Y27083213D01*
X31088345Y26959183D01*
X31150119Y26914542D01*
X31349664Y26740960D01*
X31520526Y26541713D01*
X31664028Y26314549D01*
X31781490Y26057217D01*
X31874234Y25767464D01*
X31909461Y25620359D01*
X31929169Y25497660D01*
X31942293Y25349411D01*
X31948805Y25187139D01*
X31948679Y25022369D01*
X31941887Y24866629D01*
X31928403Y24731446D01*
X31911759Y24641711D01*
X31817150Y24349744D01*
X31684487Y24076398D01*
X31513782Y23821699D01*
X31318515Y23599172D01*
X31113477Y23413783D01*
X30903628Y23268816D01*
X30684399Y23162327D01*
X30451221Y23092373D01*
X30199526Y23057006D01*
X30032185Y23051596D01*
X29834265Y23059510D01*
X29662252Y23083679D01*
X29501714Y23127410D01*
X29338218Y23194009D01*
X29273496Y23225405D01*
X29130873Y23303693D01*
X29002579Y23389662D01*
X28884317Y23488061D01*
X28771791Y23603642D01*
X28660703Y23741153D01*
X28546757Y23905347D01*
X28425655Y24100973D01*
X28327540Y24271191D01*
X28163278Y24562949D01*
X26518540Y23733596D01*
X26308797Y23627878D01*
X26064744Y23504946D01*
X25789940Y23366588D01*
X25487943Y23214594D01*
X25162312Y23050754D01*
X24816605Y22876856D01*
X24454380Y22694690D01*
X24079196Y22506045D01*
X23694611Y22312711D01*
X23304183Y22116476D01*
X22911471Y21919131D01*
X22520032Y21722463D01*
X22133426Y21528264D01*
X21755210Y21338321D01*
X21688833Y21304991D01*
X21281430Y21100446D01*
X20910146Y20914101D01*
X20573250Y20745118D01*
X20269012Y20592657D01*
X19995699Y20455880D01*
X19751583Y20333946D01*
X19534931Y20226018D01*
X19344012Y20131256D01*
X19177097Y20048822D01*
X19032454Y19977875D01*
X18908353Y19917577D01*
X18803062Y19867090D01*
X18714851Y19825573D01*
X18641988Y19792188D01*
X18582744Y19766096D01*
X18535387Y19746458D01*
X18498186Y19732435D01*
X18469411Y19723188D01*
X18447330Y19717877D01*
X18430214Y19715664D01*
X18416330Y19715710D01*
X18411299Y19716172D01*
X18368552Y19726366D01*
X18306807Y19750332D01*
X18222591Y19789780D01*
X18112434Y19846421D01*
X17972862Y19921965D01*
X17814868Y20009983D01*
X17664945Y20094138D01*
X17546755Y20159733D01*
X17455153Y20209075D01*
X17384998Y20244469D01*
X17331148Y20268222D01*
X17288459Y20282641D01*
X17251790Y20290032D01*
X17215997Y20292702D01*
X17183895Y20292987D01*
X17126172Y20287840D01*
X17046037Y20274169D01*
X16952203Y20254241D01*
X16853383Y20230326D01*
X16758293Y20204690D01*
X16675647Y20179604D01*
X16614157Y20157334D01*
X16582539Y20140150D01*
X16580142Y20135826D01*
X16598322Y20124370D01*
X16651806Y20092979D01*
X16739006Y20042556D01*
X16858334Y19974002D01*
X17008203Y19888221D01*
X17187025Y19786113D01*
X17393213Y19668583D01*
X17625180Y19536531D01*
X17881338Y19390860D01*
X18160100Y19232473D01*
X18459878Y19062272D01*
X18779085Y18881159D01*
X19116133Y18690036D01*
X19469435Y18489806D01*
X19837404Y18281371D01*
X20218452Y18065633D01*
X20610992Y17843495D01*
X21013436Y17615859D01*
X21043949Y17598604D01*
X25507756Y15074395D01*
X25606113Y15260606D01*
X25743540Y15495918D01*
X25888960Y15693844D01*
X26047151Y15859242D01*
X26222887Y15996974D01*
X26420946Y16111898D01*
X26462627Y16132089D01*
X26612381Y16196627D01*
X26751144Y16241754D01*
X26894507Y16271235D01*
X27058061Y16288831D01*
X27130410Y16293271D01*
X27358604Y16293477D01*
X27564525Y16267335D01*
X27760793Y16212530D01*
X27912546Y16149684D01*
X28146226Y16017881D01*
X28354183Y15855410D01*
X28534989Y15666314D01*
X28687215Y15454634D01*
X28809435Y15224414D01*
X28900219Y14979695D01*
X28958140Y14724520D01*
X28981771Y14462932D01*
X28969684Y14198973D01*
X28920450Y13936686D01*
X28832642Y13680113D01*
X28805929Y13620388D01*
X28666313Y13367162D01*
X28500477Y13145718D01*
X28310193Y12957315D01*
X28097233Y12803211D01*
X27863369Y12684665D01*
X27610371Y12602935D01*
X27340012Y12559280D01*
X27308642Y12556810D01*
X27075067Y12559147D01*
X26831407Y12599013D01*
X26632155Y12656395D01*
X26454365Y12716492D01*
X26528792Y12585827D01*
X26614327Y12428977D01*
X26697344Y12264427D01*
X26773496Y12101691D01*
X26838435Y11950282D01*
X26887811Y11819714D01*
X26907767Y11756711D01*
X26979812Y11439674D01*
X27017729Y11119870D01*
X27021515Y10803908D01*
X26991170Y10498395D01*
X26926690Y10209941D01*
X26908241Y10150399D01*
X26803775Y9879862D01*
X26675478Y9631744D01*
X26526142Y9409269D01*
X26358561Y9215665D01*
X26175525Y9054155D01*
X25979827Y8927966D01*
X25774259Y8840323D01*
X25774137Y8840284D01*
X25645842Y8810143D01*
X25495531Y8792024D01*
X25339177Y8786570D01*
X25192758Y8794424D01*
X25085905Y8812577D01*
X24878395Y8886209D01*
X24680681Y8998276D01*
X24495268Y9145475D01*
X24324663Y9324504D01*
X24171372Y9532061D01*
X24037902Y9764844D01*
X23926757Y10019551D01*
X23840446Y10292879D01*
X23791844Y10517625D01*
X23768073Y10721386D01*
X23761397Y10948461D01*
X23771131Y11183707D01*
X23796591Y11411981D01*
X23837090Y11618141D01*
X23842632Y11639566D01*
X23874389Y11752295D01*
X23909277Y11865551D01*
X23942467Y11964140D01*
X23963163Y12018884D01*
X24002497Y12127297D01*
X24018281Y12208227D01*
X24010720Y12269276D01*
X23980017Y12318042D01*
X23971441Y12326684D01*
X23943009Y12346662D01*
X23881429Y12384970D01*
X23790581Y12439349D01*
X23674344Y12507538D01*
X23536600Y12587275D01*
X23381228Y12676301D01*
X23212109Y12772356D01*
X23041359Y12868555D01*
X22865028Y12967612D01*
X22653256Y13086754D01*
X22407464Y13225180D01*
X22129073Y13382085D01*
X21819502Y13556668D01*
X21480173Y13748124D01*
X21112506Y13955652D01*
X20717922Y14178448D01*
X20297841Y14415709D01*
X19853684Y14666632D01*
X19386871Y14930414D01*
X18898823Y15206253D01*
X18390961Y15493345D01*
X17864705Y15790888D01*
X17321476Y16098078D01*
X16762694Y16414112D01*
X16189780Y16738188D01*
X15604154Y17069502D01*
X15007238Y17407252D01*
X14400451Y17750635D01*
X13785214Y18098847D01*
X13162948Y18451087D01*
X12535073Y18806549D01*
X12004328Y19107062D01*
X11153990Y19588535D01*
X10340162Y20049283D01*
X9562509Y20489498D01*
X8820694Y20909367D01*
X8114382Y21309082D01*
X7443235Y21688832D01*
X6806918Y22048807D01*
X6205095Y22389196D01*
X5637429Y22710190D01*
X5103584Y23011977D01*
X4603224Y23294749D01*
X4136013Y23558695D01*
X3701614Y23804004D01*
X3299691Y24030866D01*
X2929909Y24239471D01*
X2591930Y24430009D01*
X2285418Y24602670D01*
X2010038Y24757644D01*
X1765453Y24895119D01*
X1551327Y25015287D01*
X1367323Y25118336D01*
X1213106Y25204457D01*
X1088339Y25273840D01*
X992686Y25326674D01*
X925811Y25363148D01*
X887377Y25383454D01*
X876947Y25388190D01*
X861147Y25370596D01*
X832416Y25323824D01*
X796159Y25256889D01*
X784814Y25234603D01*
X660991Y25011455D01*
X525350Y24815690D01*
X367465Y24632345D01*
X359107Y24623557D01*
X178369Y24450939D01*
X-1909Y24314633D01*
X-190279Y24209550D01*
X-395292Y24130600D01*
X-532356Y24093057D01*
X-617570Y24074496D01*
X-695223Y24062699D01*
X-777604Y24056811D01*
X-877007Y24055978D01*
X-1005719Y24059346D01*
X-1013436Y24059620D01*
X-1185258Y24068978D01*
X-1327034Y24085137D01*
X-1450878Y24110717D01*
X-1568906Y24148341D01*
X-1693235Y24200631D01*
X-1717691Y24212026D01*
X-1959353Y24349283D01*
X-2179390Y24522487D01*
X-2376010Y24730145D01*
X-2442817Y24815888D01*
X-2611681Y25076576D01*
X-2739775Y25347358D01*
X-2827886Y25630628D01*
X-2876800Y25928782D01*
X-2888249Y26172010D01*
X-2868780Y26488417D01*
X-2810459Y26788070D01*
X-2713418Y27070651D01*
X-2577787Y27335846D01*
X-2403697Y27583335D01*
X-2223967Y27781136D01*
X-2031813Y27952877D01*
X-1838387Y28087705D01*
X-1636969Y28188302D01*
X-1420839Y28257354D01*
X-1183276Y28297544D01*
X-917560Y28311556D01*
X-895549Y28311626D01*
X-776427Y28311491D01*
X-695872Y28314019D01*
X-650120Y28323609D01*
X-635405Y28344660D01*
X-647961Y28381571D01*
X-684024Y28438742D01*
X-729621Y28505485D01*
X-837512Y28686796D01*
X-934675Y28893313D01*
X-1013471Y29107983D01*
X-1039394Y29197007D01*
X-1060736Y29281930D01*
X-1075838Y29357641D01*
X-1085780Y29434856D01*
X-1091644Y29524294D01*
X-1094510Y29636670D01*
X-1095377Y29752160D01*
X-1094891Y29895833D01*
X-1091760Y30007605D01*
X-1085103Y30097909D01*
X-1074041Y30177175D01*
X-1057691Y30255836D01*
X-1050304Y30286161D01*
X-956290Y30586520D01*
X-831827Y30861710D01*
X-678463Y31109713D01*
X-497745Y31328511D01*
X-291222Y31516085D01*
X-60440Y31670417D01*
X58252Y31731979D01*
X232712Y31805729D01*
X399980Y31855758D01*
X574528Y31885175D01*
X770829Y31897091D01*
X829599Y31897711D01*
X1024750Y31891581D01*
X1194817Y31870032D01*
X1355384Y31829525D01*
X1522037Y31766520D01*
X1634604Y31714919D01*
X1871574Y31577498D01*
X2084532Y31405642D01*
X2272743Y31200317D01*
X2435475Y30962488D01*
X2571993Y30693121D01*
X2681563Y30393181D01*
X2707558Y30302952D01*
X2726486Y30227778D01*
X2739937Y30157072D01*
X2748811Y30080990D01*
X2754011Y29989685D01*
X2756435Y29873312D01*
X2756975Y29762752D01*
X2756381Y29621320D01*
X2753657Y29512413D01*
X2747920Y29426207D01*
X2738288Y29352877D01*
X2723880Y29282599D01*
X2708479Y29222552D01*
X2654046Y29057283D01*
X2577871Y28875121D01*
X2486797Y28690446D01*
X2387669Y28517636D01*
X2333617Y28434922D01*
X2278489Y28352442D01*
X2246331Y28296986D01*
X2234160Y28262090D01*
X2238990Y28241290D01*
X2242490Y28237548D01*
X2264090Y28224112D01*
X2319231Y28191814D01*
X2404754Y28142441D01*
X2517499Y28077779D01*
X2654308Y27999617D01*
X2812020Y27909740D01*
X2987476Y27809935D01*
X3177519Y27701991D01*
X3378987Y27587692D01*
X3588722Y27468828D01*
X3803565Y27347183D01*
X4020357Y27224546D01*
X4235938Y27102703D01*
X4447148Y26983442D01*
X4650830Y26868548D01*
X4843823Y26759810D01*
X5022968Y26659013D01*
X5185106Y26567946D01*
X5327078Y26488394D01*
X5445724Y26422146D01*
X5537886Y26370987D01*
X5600404Y26336704D01*
X5630118Y26321085D01*
X5632119Y26320300D01*
X5632141Y26339642D01*
X5624532Y26392222D01*
X5610631Y26469869D01*
X5592985Y26558623D01*
X5481947Y27173763D01*
X5403363Y27788016D01*
X5368890Y28243478D01*
X7591445Y28243478D01*
X7598405Y28193272D01*
X7632373Y28117097D01*
X7696536Y28034930D01*
X7781655Y27956267D01*
X7878489Y27890607D01*
X7907947Y27875107D01*
X7979082Y27838203D01*
X8031442Y27802603D01*
X8069212Y27760626D01*
X8096576Y27704592D01*
X8117717Y27626822D01*
X8136820Y27519634D01*
X8150123Y27430567D01*
X8239995Y26947353D01*
X8366820Y26484667D01*
X8530994Y26041617D01*
X8732915Y25617314D01*
X8972977Y25210867D01*
X9251578Y24821384D01*
X9384645Y24657331D01*
X9496846Y24529866D01*
X9630716Y24387324D01*
X9778213Y24237531D01*
X9931295Y24088314D01*
X10081919Y23947499D01*
X10222043Y23822915D01*
X10343625Y23722388D01*
X10351951Y23715898D01*
X10770388Y23417659D01*
X11210327Y23155361D01*
X11672060Y22928903D01*
X12155879Y22738182D01*
X12662077Y22583095D01*
X13190945Y22463540D01*
X13742775Y22379415D01*
X14302827Y22331428D01*
X14385428Y22326869D01*
X14461808Y22322586D01*
X14498802Y22320469D01*
X14540656Y22321358D01*
X14616976Y22326184D01*
X14720105Y22334336D01*
X14842385Y22345201D01*
X14976160Y22358167D01*
X14996633Y22360245D01*
X15451497Y22416192D01*
X15873255Y22488533D01*
X16268567Y22579037D01*
X16644093Y22689472D01*
X17006491Y22821609D01*
X17362422Y22977217D01*
X17416922Y23003300D01*
X17785264Y23194385D01*
X18125408Y23398813D01*
X18445771Y23622707D01*
X18754769Y23872188D01*
X19060816Y24153382D01*
X19228888Y24321668D01*
X19558810Y24688389D01*
X19849363Y25069757D01*
X20101378Y25467435D01*
X20315687Y25883086D01*
X20493124Y26318373D01*
X20634519Y26774959D01*
X20740705Y27254508D01*
X20763499Y27388465D01*
X20793543Y27546354D01*
X20830028Y27670283D01*
X20877602Y27768623D01*
X20940916Y27849743D01*
X21024618Y27922015D01*
X21081810Y27961534D01*
X21176327Y28027983D01*
X21238844Y28086819D01*
X21276145Y28147481D01*
X21295013Y28219414D01*
X21299835Y28264994D01*
X21302640Y28338647D01*
X21294073Y28389850D01*
X21268494Y28438132D01*
X21237606Y28480440D01*
X21154633Y28562902D01*
X21037990Y28641301D01*
X20896369Y28710890D01*
X20738463Y28766923D01*
X20687368Y28780849D01*
X20469363Y28814646D01*
X20245789Y28809129D01*
X20023746Y28765415D01*
X19810331Y28684620D01*
X19700555Y28625594D01*
X19588714Y28545773D01*
X19514924Y28461318D01*
X19474882Y28366511D01*
X19466248Y28314241D01*
X19472906Y28207866D01*
X19515392Y28109933D01*
X19595401Y28018428D01*
X19714626Y27931337D01*
X19849519Y27858577D01*
X19934610Y27814989D01*
X19987596Y27780072D01*
X20016167Y27747956D01*
X20025757Y27723995D01*
X20029970Y27659239D01*
X20020499Y27561350D01*
X19998852Y27436746D01*
X19966535Y27291844D01*
X19925058Y27133062D01*
X19875927Y26966818D01*
X19820650Y26799530D01*
X19786118Y26703886D01*
X19596653Y26251098D01*
X19376729Y25826828D01*
X19124780Y25428606D01*
X18839240Y25053961D01*
X18518542Y24700423D01*
X18511604Y24693395D01*
X18152813Y24360227D01*
X17769606Y24061431D01*
X17363073Y23797550D01*
X16934306Y23569126D01*
X16484395Y23376700D01*
X16014432Y23220815D01*
X15525507Y23102013D01*
X15192569Y23044123D01*
X15041306Y23027082D01*
X14858389Y23014852D01*
X14654223Y23007435D01*
X14439216Y23004828D01*
X14223773Y23007033D01*
X14018302Y23014048D01*
X13833208Y23025874D01*
X13678900Y23042509D01*
X13667297Y23044180D01*
X13272717Y23113597D01*
X12905038Y23202804D01*
X12551872Y23315732D01*
X12200832Y23456311D01*
X11862333Y23616871D01*
X11522793Y23799638D01*
X11215824Y23988607D01*
X10931634Y24190674D01*
X10660430Y24412730D01*
X10429511Y24625527D01*
X10114583Y24955007D01*
X9834583Y25301287D01*
X9587588Y25667643D01*
X9371674Y26057349D01*
X9184920Y26473681D01*
X9025404Y26919914D01*
X8965323Y27119640D01*
X8915687Y27299072D01*
X8880407Y27443196D01*
X8859962Y27556737D01*
X8854828Y27644418D01*
X8865484Y27710962D01*
X8892407Y27761094D01*
X8936076Y27799537D01*
X8996968Y27831015D01*
X9038942Y27847424D01*
X9188579Y27915906D01*
X9300000Y27997984D01*
X9372030Y28092763D01*
X9378628Y28106386D01*
X9415253Y28228070D01*
X9410507Y28341688D01*
X9364156Y28448266D01*
X9277561Y28547391D01*
X9173363Y28620229D01*
X9037216Y28683469D01*
X8879026Y28734077D01*
X8708703Y28769019D01*
X8536153Y28785259D01*
X8498323Y28786025D01*
X8313649Y28775394D01*
X8141310Y28743128D01*
X7985326Y28691874D01*
X7849718Y28624282D01*
X7738505Y28542998D01*
X7655709Y28450671D01*
X7605349Y28349948D01*
X7591445Y28243478D01*
X5368890Y28243478D01*
X5357229Y28397549D01*
X5343539Y28998531D01*
G37*
G36*
X17976653Y13690028D02*
G01*
X18058201Y13625197D01*
X18137376Y13520999D01*
X18175253Y13412793D01*
X18172287Y13297262D01*
X18128933Y13171091D01*
X18122391Y13157755D01*
X18105816Y13127932D01*
X18085872Y13101214D01*
X18059447Y13076703D01*
X18023429Y13053503D01*
X17974706Y13030718D01*
X17910166Y13007449D01*
X17826697Y12982802D01*
X17721188Y12955879D01*
X17590527Y12925783D01*
X17431601Y12891618D01*
X17241299Y12852487D01*
X17016509Y12807493D01*
X16754120Y12755740D01*
X16669804Y12739193D01*
X16450724Y12696035D01*
X16243159Y12654770D01*
X16051008Y12616198D01*
X15878169Y12581121D01*
X15728543Y12550339D01*
X15606027Y12524651D01*
X15514519Y12504858D01*
X15457920Y12491761D01*
X15441020Y12486947D01*
X15405527Y12459446D01*
X15404337Y12418332D01*
X15411279Y12385942D01*
X15425348Y12317620D01*
X15445407Y12218992D01*
X15470316Y12095681D01*
X15498938Y11953311D01*
X15530134Y11797505D01*
X15539765Y11749281D01*
X15571588Y11592285D01*
X15601628Y11448670D01*
X15628704Y11323730D01*
X15651635Y11222758D01*
X15669240Y11151047D01*
X15680339Y11113890D01*
X15682370Y11110115D01*
X15707124Y11109595D01*
X15768176Y11116903D01*
X15860357Y11131176D01*
X15978499Y11151547D01*
X16117432Y11177150D01*
X16271989Y11207120D01*
X16325930Y11217900D01*
X16580065Y11268941D01*
X16796146Y11311998D01*
X16977615Y11347630D01*
X17127915Y11376399D01*
X17250489Y11398867D01*
X17348780Y11415593D01*
X17426232Y11427140D01*
X17486287Y11434067D01*
X17532388Y11436937D01*
X17567978Y11436311D01*
X17596500Y11432748D01*
X17616431Y11428192D01*
X17721533Y11380761D01*
X17801911Y11306736D01*
X17856452Y11213929D01*
X17884044Y11110153D01*
X17883573Y11003220D01*
X17853925Y10900944D01*
X17793987Y10811136D01*
X17713431Y10747545D01*
X17678838Y10735514D01*
X17606964Y10716661D01*
X17502174Y10691947D01*
X17368833Y10662333D01*
X17211309Y10628779D01*
X17033966Y10592245D01*
X16841170Y10553692D01*
X16760208Y10537824D01*
X16571182Y10500544D01*
X16394729Y10464882D01*
X16235268Y10431795D01*
X16097219Y10402240D01*
X15985001Y10377172D01*
X15903033Y10357548D01*
X15855736Y10344325D01*
X15845964Y10339998D01*
X15841365Y10322885D01*
X15842574Y10284181D01*
X15850084Y10220881D01*
X15864392Y10129975D01*
X15885991Y10008458D01*
X15915377Y9853320D01*
X15953045Y9661555D01*
X15979011Y9531726D01*
X16027716Y9286005D01*
X16067266Y9077726D01*
X16098046Y8903053D01*
X16120444Y8758148D01*
X16134845Y8639173D01*
X16141636Y8542291D01*
X16141201Y8463664D01*
X16133928Y8399455D01*
X16120203Y8345825D01*
X16102594Y8303315D01*
X16035067Y8208143D01*
X15943812Y8147929D01*
X15830336Y8123600D01*
X15809077Y8123099D01*
X15731498Y8129822D01*
X15660636Y8146656D01*
X15637439Y8156283D01*
X15537795Y8224563D01*
X15471121Y8306418D01*
X15459003Y8331608D01*
X15451759Y8359902D01*
X15436944Y8426893D01*
X15415143Y8529704D01*
X15386940Y8665456D01*
X15352919Y8831270D01*
X15313664Y9024268D01*
X15269760Y9241573D01*
X15221790Y9480304D01*
X15170339Y9737584D01*
X15115991Y10010534D01*
X15059330Y10296275D01*
X15024118Y10474428D01*
X14966146Y10768037D01*
X14910121Y11051670D01*
X14856636Y11322338D01*
X14806282Y11577051D01*
X14759651Y11812821D01*
X14717334Y12026658D01*
X14679923Y12215575D01*
X14648010Y12376580D01*
X14622186Y12506687D01*
X14603042Y12602905D01*
X14591171Y12662246D01*
X14587888Y12678409D01*
X14578977Y12803263D01*
X14601817Y12920683D01*
X14652555Y13022511D01*
X14727335Y13100590D01*
X14807014Y13142222D01*
X14837652Y13149615D01*
X14905692Y13164291D01*
X15006953Y13185421D01*
X15137252Y13212174D01*
X15292406Y13243719D01*
X15468233Y13279227D01*
X15660552Y13317867D01*
X15865180Y13358808D01*
X16077935Y13401221D01*
X16294634Y13444275D01*
X16511095Y13487139D01*
X16723137Y13528984D01*
X16926577Y13568980D01*
X17117233Y13606295D01*
X17290922Y13640099D01*
X17443463Y13669563D01*
X17570673Y13693856D01*
X17668370Y13712148D01*
X17732372Y13723607D01*
X17748987Y13726302D01*
X17871135Y13727327D01*
X17976653Y13690028D01*
G37*
G36*
X6310552Y11006462D02*
G01*
X6294658Y11094159D01*
X6286004Y11145672D01*
X6284562Y11157767D01*
X6298110Y11238608D01*
X6332902Y11328085D01*
X6380154Y11404937D01*
X6392657Y11419444D01*
X6440985Y11458302D01*
X6503980Y11494487D01*
X6513456Y11498799D01*
X6549026Y11509403D01*
X6621975Y11527136D01*
X6728082Y11551102D01*
X6863125Y11580400D01*
X7022883Y11614132D01*
X7203133Y11651401D01*
X7399654Y11691307D01*
X7608225Y11732952D01*
X7682727Y11747661D01*
X7952414Y11800470D01*
X8184234Y11845067D01*
X8381801Y11881872D01*
X8548726Y11911302D01*
X8688623Y11933776D01*
X8805107Y11949713D01*
X8901788Y11959532D01*
X8982282Y11963652D01*
X9050201Y11962490D01*
X9109158Y11956465D01*
X9162767Y11945997D01*
X9214640Y11931503D01*
X9229182Y11926834D01*
X9443860Y11836279D01*
X9630500Y11715036D01*
X9727309Y11628974D01*
X9768438Y11587790D01*
X9804773Y11549677D01*
X9837198Y11511643D01*
X9866598Y11470695D01*
X9893856Y11423839D01*
X9919856Y11368084D01*
X9945484Y11300436D01*
X9971622Y11217903D01*
X9999155Y11117492D01*
X10028967Y10996211D01*
X10061943Y10851066D01*
X10098966Y10679066D01*
X10140920Y10477217D01*
X10188690Y10242526D01*
X10243159Y9972001D01*
X10298877Y9694239D01*
X10361404Y9381986D01*
X10415872Y9108231D01*
X10462662Y8869950D01*
X10502154Y8664122D01*
X10534730Y8487723D01*
X10560769Y8337731D01*
X10580652Y8211125D01*
X10594761Y8104880D01*
X10603475Y8015976D01*
X10607176Y7941390D01*
X10606245Y7878098D01*
X10601062Y7823080D01*
X10592008Y7773311D01*
X10579463Y7725771D01*
X10563809Y7677436D01*
X10555818Y7654526D01*
X10464456Y7457672D01*
X10338470Y7280973D01*
X10182836Y7130015D01*
X10002535Y7010382D01*
X9964377Y6990913D01*
X9926190Y6973431D01*
X9883820Y6956731D01*
X9833463Y6939928D01*
X9771315Y6922141D01*
X9693570Y6902486D01*
X9596426Y6880081D01*
X9476076Y6854041D01*
X9328717Y6823486D01*
X9150544Y6787531D01*
X8937753Y6745293D01*
X8729108Y6704242D01*
X8460759Y6651930D01*
X8230672Y6607957D01*
X8035662Y6571887D01*
X7872542Y6543284D01*
X7738123Y6521713D01*
X7629220Y6506739D01*
X7542645Y6497925D01*
X7475212Y6494837D01*
X7423733Y6497039D01*
X7385021Y6504095D01*
X7355889Y6515571D01*
X7354370Y6516394D01*
X7285137Y6565943D01*
X7219132Y6631870D01*
X7169566Y6699851D01*
X7153785Y6733869D01*
X7145885Y6766208D01*
X7130680Y6836398D01*
X7108829Y6941073D01*
X7080995Y7076869D01*
X7047839Y7240420D01*
X7010021Y7428361D01*
X6968203Y7637327D01*
X6923047Y7863953D01*
X6875212Y8104873D01*
X6825362Y8356722D01*
X6774156Y8616135D01*
X6722256Y8879747D01*
X6670323Y9144192D01*
X6619019Y9406106D01*
X6569004Y9662124D01*
X6520941Y9908879D01*
X6475489Y10143008D01*
X6433310Y10361144D01*
X6395066Y10559922D01*
X6361418Y10735978D01*
X6341635Y10840474D01*
X7131511Y10840474D01*
X7133497Y10817940D01*
X7143127Y10757598D01*
X7159670Y10663172D01*
X7182396Y10538387D01*
X7210574Y10386966D01*
X7243474Y10212635D01*
X7280365Y10019118D01*
X7320518Y9810140D01*
X7363202Y9589424D01*
X7407687Y9360696D01*
X7453242Y9127680D01*
X7499136Y8894100D01*
X7544640Y8663681D01*
X7589023Y8440147D01*
X7631555Y8227223D01*
X7671505Y8028634D01*
X7708143Y7848103D01*
X7740739Y7689355D01*
X7768562Y7556115D01*
X7790882Y7452108D01*
X7806969Y7381057D01*
X7816092Y7346687D01*
X7817075Y7344445D01*
X7845454Y7320259D01*
X7856014Y7317965D01*
X7881038Y7321949D01*
X7943130Y7333324D01*
X8037800Y7351229D01*
X8160561Y7374797D01*
X8306923Y7403166D01*
X8472398Y7435471D01*
X8652496Y7470850D01*
X8733960Y7486919D01*
X8920800Y7524271D01*
X9096382Y7560235D01*
X9255960Y7593776D01*
X9394787Y7623857D01*
X9508118Y7649444D01*
X9591208Y7669500D01*
X9639310Y7682991D01*
X9647619Y7686279D01*
X9744519Y7758937D01*
X9815492Y7857464D01*
X9843850Y7932310D01*
X9848063Y7953301D01*
X9850301Y7978404D01*
X9850042Y8010679D01*
X9846764Y8053189D01*
X9839945Y8108996D01*
X9829063Y8181159D01*
X9813596Y8272742D01*
X9793023Y8386804D01*
X9766822Y8526409D01*
X9734471Y8694616D01*
X9695448Y8894489D01*
X9649232Y9129087D01*
X9595301Y9401474D01*
X9582071Y9468173D01*
X9533854Y9710481D01*
X9487600Y9941538D01*
X9444027Y10157829D01*
X9403857Y10355844D01*
X9367811Y10532070D01*
X9336608Y10682995D01*
X9310970Y10805106D01*
X9291617Y10894890D01*
X9279270Y10948837D01*
X9275405Y10962862D01*
X9218750Y11058440D01*
X9134336Y11138778D01*
X9053010Y11183742D01*
X9030634Y11191858D01*
X9008129Y11197760D01*
X8981504Y11200864D01*
X8946766Y11200585D01*
X8899923Y11196339D01*
X8836983Y11187542D01*
X8753956Y11173610D01*
X8646848Y11153958D01*
X8511668Y11128002D01*
X8344423Y11095158D01*
X8141123Y11054842D01*
X8054329Y11037590D01*
X7863843Y10999416D01*
X7686269Y10963246D01*
X7525909Y10929999D01*
X7387062Y10900592D01*
X7274029Y10875945D01*
X7191110Y10856977D01*
X7142605Y10844605D01*
X7131511Y10840474D01*
X6341635Y10840474D01*
X6333026Y10885947D01*
X6310552Y11006462D01*
G37*
G36*
X14155815Y7304614D02*
G01*
X14352761Y7236808D01*
X14540516Y7128025D01*
X14575793Y7102334D01*
X14722728Y6970995D01*
X14841206Y6822033D01*
X14927673Y6661735D01*
X14978580Y6496390D01*
X14991318Y6366586D01*
X14973654Y6262767D01*
X14926105Y6163260D01*
X14856829Y6081638D01*
X14795018Y6040083D01*
X14689520Y6010080D01*
X14573516Y6008874D01*
X14476586Y6033158D01*
X14396861Y6084347D01*
X14322997Y6162420D01*
X14267670Y6252442D01*
X14250201Y6299876D01*
X14202962Y6404836D01*
X14126955Y6495552D01*
X14052422Y6548246D01*
X14017289Y6562004D01*
X13972609Y6570139D01*
X13914189Y6572204D01*
X13837840Y6567753D01*
X13739371Y6556338D01*
X13614593Y6537514D01*
X13459315Y6510834D01*
X13269346Y6475851D01*
X13136795Y6450656D01*
X12938822Y6412668D01*
X12778072Y6381586D01*
X12650150Y6356369D01*
X12550662Y6335976D01*
X12475213Y6319367D01*
X12419409Y6305500D01*
X12378857Y6293335D01*
X12349161Y6281829D01*
X12325928Y6269944D01*
X12304762Y6256636D01*
X12297643Y6251863D01*
X12246806Y6204789D01*
X12196795Y6138658D01*
X12178363Y6106853D01*
X12127451Y6007918D01*
X12406979Y4528621D01*
X12453838Y4282175D01*
X12499208Y4046519D01*
X12542373Y3825185D01*
X12582619Y3621707D01*
X12619229Y3439616D01*
X12651490Y3282446D01*
X12678685Y3153728D01*
X12700099Y3056996D01*
X12715017Y2995782D01*
X12721440Y2975458D01*
X12779923Y2895670D01*
X12866168Y2831780D01*
X12965926Y2794192D01*
X12971126Y2793168D01*
X13016550Y2792838D01*
X13101033Y2801672D01*
X13225059Y2819745D01*
X13389113Y2847131D01*
X13593678Y2883905D01*
X13736690Y2910624D01*
X13944703Y2949978D01*
X14115257Y2982495D01*
X14252524Y3009207D01*
X14360678Y3031147D01*
X14443889Y3049347D01*
X14506331Y3064842D01*
X14552176Y3078663D01*
X14585596Y3091843D01*
X14610763Y3105416D01*
X14631851Y3120414D01*
X14652334Y3137283D01*
X14733062Y3226598D01*
X14779590Y3332878D01*
X14794684Y3462905D01*
X14794383Y3485760D01*
X14795573Y3571804D01*
X14807992Y3636146D01*
X14836277Y3698935D01*
X14848295Y3720048D01*
X14926873Y3816097D01*
X15026095Y3877914D01*
X15138846Y3903279D01*
X15258014Y3889970D01*
X15319674Y3867250D01*
X15405610Y3816778D01*
X15468108Y3751709D01*
X15511902Y3664172D01*
X15541724Y3546294D01*
X15551882Y3480993D01*
X15553406Y3338970D01*
X15525155Y3180986D01*
X15470737Y3017169D01*
X15393762Y2857648D01*
X15297836Y2712552D01*
X15262921Y2669890D01*
X15141058Y2554262D01*
X14993323Y2453512D01*
X14835992Y2378206D01*
X14788365Y2361848D01*
X14734929Y2347840D01*
X14646087Y2327470D01*
X14528104Y2302048D01*
X14387242Y2272883D01*
X14229764Y2241285D01*
X14061933Y2208562D01*
X13981833Y2193274D01*
X13781968Y2155515D01*
X13618159Y2124878D01*
X13484871Y2100409D01*
X13376568Y2081155D01*
X13287715Y2066161D01*
X13212776Y2054473D01*
X13146215Y2045138D01*
X13082497Y2037200D01*
X13063544Y2034999D01*
X13013646Y2034279D01*
X12940509Y2038791D01*
X12883478Y2044768D01*
X12688059Y2088636D01*
X12503362Y2170953D01*
X12326491Y2293201D01*
X12230368Y2379088D01*
X12126906Y2493151D01*
X12048491Y2615166D01*
X11985465Y2760743D01*
X11974224Y2792970D01*
X11964644Y2830352D01*
X11948116Y2905168D01*
X11925453Y3013200D01*
X11897467Y3150229D01*
X11864970Y3312037D01*
X11828774Y3494407D01*
X11789693Y3693119D01*
X11748538Y3903957D01*
X11706122Y4122701D01*
X11663258Y4345134D01*
X11620756Y4567038D01*
X11579431Y4784194D01*
X11540094Y4992384D01*
X11503558Y5187390D01*
X11470634Y5364994D01*
X11442137Y5520977D01*
X11418877Y5651123D01*
X11401667Y5751211D01*
X11391320Y5817026D01*
X11390139Y5825751D01*
X11383349Y6037062D01*
X11417489Y6240038D01*
X11491414Y6431342D01*
X11603981Y6607639D01*
X11692457Y6707721D01*
X11811934Y6820401D01*
X11919512Y6903481D01*
X12025067Y6963703D01*
X12126041Y7003782D01*
X12178154Y7018027D01*
X12265693Y7038561D01*
X12382390Y7064147D01*
X12521976Y7093546D01*
X12678181Y7125520D01*
X12844738Y7158833D01*
X13015378Y7192244D01*
X13183832Y7224518D01*
X13343832Y7254416D01*
X13489108Y7280699D01*
X13613393Y7302131D01*
X13710418Y7317472D01*
X13725318Y7319605D01*
X13947420Y7332021D01*
X14155815Y7304614D01*
G37*
%TD*%
M02*
