%TF.GenerationSoftware,KiCad,Pcbnew,(6.0.5)*%
%TF.CreationDate,2022-07-12T12:17:59-06:00*%
%TF.ProjectId,jack,6a61636b-2e6b-4696-9361-645f70636258,rev?*%
%TF.SameCoordinates,PX7dfd6b0PY631d890*%
%TF.FileFunction,AssemblyDrawing,Top*%
%FSLAX46Y46*%
G04 Gerber Fmt 4.6, Leading zero omitted, Abs format (unit mm)*
G04 Created by KiCad (PCBNEW (6.0.5)) date 2022-07-12 12:17:59*
%MOMM*%
%LPD*%
G01*
G04 APERTURE LIST*
%ADD10C,0.150000*%
%ADD11C,0.100000*%
G04 APERTURE END LIST*
D10*
%TO.C,D4*%
X23850019Y13845810D02*
X23576887Y13455737D01*
X22757735Y14029314D01*
X23612131Y14419305D02*
X23803323Y14692356D01*
X24314342Y14508933D02*
X24041211Y14118860D01*
X23222059Y14692437D01*
X23495190Y15082509D01*
X24560161Y14859998D02*
X23741009Y15433574D01*
X23877575Y15628611D01*
X23998521Y15718319D01*
X24131162Y15741707D01*
X24236490Y15726088D01*
X24419832Y15655843D01*
X24536854Y15573903D01*
X24665569Y15425643D01*
X24716271Y15332010D01*
X24739659Y15199369D01*
X24696727Y15055034D01*
X24560161Y14859998D01*
%TO.C,D2*%
X26997266Y25023790D02*
X27235362Y24611397D01*
X26369336Y24111397D01*
X26376967Y25050561D02*
X26210301Y25339236D01*
X26592505Y25724859D02*
X26830600Y25312465D01*
X25964574Y24812465D01*
X25726479Y25224859D01*
X26378219Y26096012D02*
X25512193Y25596012D01*
X25393146Y25802209D01*
X25362957Y25949736D01*
X25397816Y26079834D01*
X25456485Y26168692D01*
X25597633Y26305170D01*
X25721351Y26376598D01*
X25910118Y26430597D01*
X26016406Y26436977D01*
X26146503Y26402117D01*
X26259171Y26302209D01*
X26378219Y26096012D01*
%TO.C,D3*%
X-46544Y10864027D02*
X191552Y10451634D01*
X-674474Y9951634D01*
X-666843Y10890798D02*
X-833509Y11179473D01*
X-451305Y11565096D02*
X-213210Y11152702D01*
X-1079236Y10652702D01*
X-1317331Y11065096D01*
X-665591Y11936249D02*
X-1531617Y11436249D01*
X-1650664Y11642446D01*
X-1680853Y11789973D01*
X-1645994Y11920071D01*
X-1587325Y12008929D01*
X-1446177Y12145407D01*
X-1322459Y12216835D01*
X-1133692Y12270834D01*
X-1027404Y12277214D01*
X-897307Y12242354D01*
X-784639Y12142446D01*
X-665591Y11936249D01*
%TO.C,D1*%
X-2300591Y28491409D02*
X-2538686Y28079016D01*
X-3404711Y28579016D01*
X-2587556Y29041989D02*
X-2420890Y29330664D01*
X-1895829Y29192478D02*
X-2133924Y28780085D01*
X-2999949Y29280085D01*
X-2761854Y29692478D01*
X-1681543Y29563631D02*
X-2547568Y30063631D01*
X-2428521Y30269828D01*
X-2315853Y30369736D01*
X-2185755Y30404596D01*
X-2079467Y30398216D01*
X-1890700Y30344217D01*
X-1766983Y30272789D01*
X-1625835Y30136311D01*
X-1567166Y30047453D01*
X-1532306Y29917355D01*
X-1562495Y29769828D01*
X-1681543Y29563631D01*
D11*
%TO.C,D4*%
X28088520Y13493925D02*
X26177946Y14831723D01*
X26178849Y14831768D02*
G75*
G03*
X28088520Y13493925I94019J-1897672D01*
G01*
X27772868Y12934096D02*
G75*
G03*
X27772868Y12934096I-1500000J0D01*
G01*
%TO.C,D2*%
X29107450Y28716463D02*
X27087550Y27550273D01*
X27087890Y27551110D02*
G75*
G03*
X29107450Y28716463I1759610J-716780D01*
G01*
X30347500Y26834330D02*
G75*
G03*
X30347500Y26834330I-1500000J0D01*
G01*
%TO.C,D3*%
X2063640Y14556700D02*
X43740Y13390510D01*
X44080Y13391347D02*
G75*
G03*
X2063640Y14556700I1759610J-716780D01*
G01*
X3303690Y12674567D02*
G75*
G03*
X3303690Y12674567I-1500000J0D01*
G01*
%TO.C,D1*%
X1952450Y28510273D02*
X-67450Y29676463D01*
X-66554Y29676587D02*
G75*
G03*
X1952450Y28510273I259054J-1882257D01*
G01*
X1692500Y27794330D02*
G75*
G03*
X1692500Y27794330I-1500000J0D01*
G01*
%TD*%
M02*
