M48
; DRILL file {KiCad (6.0.5)} date Tue Aug  9 22:24:36 2022
; FORMAT={-:-/ absolute / metric / decimal}
; #@! TF.CreationDate,2022-08-09T22:24:36-06:00
; #@! TF.GenerationSoftware,Kicad,Pcbnew,(6.0.5)
; #@! TF.FileFunction,MixedPlating,1,2
FMAT,2
METRIC
; #@! TA.AperFunction,Plated,PTH,ViaDrill
T1C0.400
; #@! TA.AperFunction,Plated,PTH,ComponentDrill
T2C1.000
; #@! TA.AperFunction,NonPlated,NPTH,ComponentDrill
T3C1.500
%
G90
G05
T1
X19.143Y-30.952
X19.143Y-52.465
X19.143Y-73.978
X19.143Y-95.49
X19.143Y-117.003
X41.403Y-41.452
X41.403Y-62.965
X41.403Y-84.478
X41.403Y-105.99
X41.403Y-127.503
X42.203Y-39.912
X42.203Y-61.425
X42.203Y-82.938
X42.203Y-104.45
X42.203Y-125.963
X54.703Y-30.912
X54.703Y-52.425
X54.703Y-73.938
X54.703Y-95.45
X54.703Y-116.963
X65.046Y-30.952
X65.046Y-52.465
X65.046Y-73.978
X65.046Y-95.49
X65.046Y-117.003
X87.306Y-41.452
X87.306Y-62.965
X87.306Y-84.478
X87.306Y-105.99
X87.306Y-127.503
X88.106Y-39.912
X88.106Y-61.425
X88.106Y-82.938
X88.106Y-104.45
X88.106Y-125.963
X100.606Y-30.912
X100.606Y-52.425
X100.606Y-73.938
X100.606Y-95.45
X100.606Y-116.963
X110.95Y-30.952
X110.95Y-52.465
X110.95Y-73.978
X110.95Y-95.49
X110.95Y-117.003
X133.21Y-41.452
X133.21Y-62.965
X133.21Y-84.478
X133.21Y-105.99
X133.21Y-127.503
X134.01Y-39.912
X134.01Y-61.425
X134.01Y-82.938
X134.01Y-104.45
X134.01Y-125.963
X146.51Y-30.912
X146.51Y-52.425
X146.51Y-73.938
X146.51Y-95.45
X146.51Y-116.963
X156.854Y-30.952
X156.854Y-52.465
X156.854Y-73.978
X156.854Y-95.49
X156.854Y-117.003
X179.114Y-41.452
X179.114Y-62.965
X179.114Y-84.478
X179.114Y-105.99
X179.114Y-127.503
X179.914Y-39.912
X179.914Y-61.425
X179.914Y-82.938
X179.914Y-104.45
X179.914Y-125.963
X192.414Y-30.912
X192.414Y-52.425
X192.414Y-73.938
X192.414Y-95.45
X192.414Y-116.963
X202.758Y-30.952
X202.758Y-52.465
X202.758Y-73.978
X202.758Y-95.49
X202.758Y-117.003
X225.018Y-41.452
X225.018Y-62.965
X225.018Y-84.478
X225.018Y-105.99
X225.018Y-127.503
X225.818Y-39.912
X225.818Y-61.425
X225.818Y-82.938
X225.818Y-104.45
X225.818Y-125.963
X238.318Y-30.912
X238.318Y-52.425
X238.318Y-73.938
X238.318Y-95.45
X238.318Y-116.963
X248.662Y-30.952
X248.662Y-52.465
X248.662Y-73.978
X248.662Y-95.49
X248.662Y-117.003
X270.922Y-41.452
X270.922Y-62.965
X270.922Y-84.478
X270.922Y-105.99
X270.922Y-127.503
X271.722Y-39.912
X271.722Y-61.425
X271.722Y-82.938
X271.722Y-104.45
X271.722Y-125.963
X284.222Y-30.912
X284.222Y-52.425
X284.222Y-73.938
X284.222Y-95.45
X284.222Y-116.963
T2
X34.433Y-39.592
X34.433Y-42.132
X34.433Y-61.105
X34.433Y-63.645
X34.433Y-82.618
X34.433Y-85.158
X34.433Y-104.13
X34.433Y-106.67
X34.433Y-125.643
X34.433Y-128.183
X36.973Y-39.592
X36.973Y-42.132
X36.973Y-61.105
X36.973Y-63.645
X36.973Y-82.618
X36.973Y-85.158
X36.973Y-104.13
X36.973Y-106.67
X36.973Y-125.643
X36.973Y-128.183
X39.513Y-39.592
X39.513Y-42.132
X39.513Y-61.105
X39.513Y-63.645
X39.513Y-82.618
X39.513Y-85.158
X39.513Y-104.13
X39.513Y-106.67
X39.513Y-125.643
X39.513Y-128.183
X80.336Y-39.592
X80.336Y-42.132
X80.336Y-61.105
X80.336Y-63.645
X80.336Y-82.618
X80.336Y-85.158
X80.336Y-104.13
X80.336Y-106.67
X80.336Y-125.643
X80.336Y-128.183
X82.876Y-39.592
X82.876Y-42.132
X82.876Y-61.105
X82.876Y-63.645
X82.876Y-82.618
X82.876Y-85.158
X82.876Y-104.13
X82.876Y-106.67
X82.876Y-125.643
X82.876Y-128.183
X85.416Y-39.592
X85.416Y-42.132
X85.416Y-61.105
X85.416Y-63.645
X85.416Y-82.618
X85.416Y-85.158
X85.416Y-104.13
X85.416Y-106.67
X85.416Y-125.643
X85.416Y-128.183
X126.24Y-39.592
X126.24Y-42.132
X126.24Y-61.105
X126.24Y-63.645
X126.24Y-82.618
X126.24Y-85.158
X126.24Y-104.13
X126.24Y-106.67
X126.24Y-125.643
X126.24Y-128.183
X128.78Y-39.592
X128.78Y-42.132
X128.78Y-61.105
X128.78Y-63.645
X128.78Y-82.618
X128.78Y-85.158
X128.78Y-104.13
X128.78Y-106.67
X128.78Y-125.643
X128.78Y-128.183
X131.32Y-39.592
X131.32Y-42.132
X131.32Y-61.105
X131.32Y-63.645
X131.32Y-82.618
X131.32Y-85.158
X131.32Y-104.13
X131.32Y-106.67
X131.32Y-125.643
X131.32Y-128.183
X172.144Y-39.592
X172.144Y-42.132
X172.144Y-61.105
X172.144Y-63.645
X172.144Y-82.618
X172.144Y-85.158
X172.144Y-104.13
X172.144Y-106.67
X172.144Y-125.643
X172.144Y-128.183
X174.684Y-39.592
X174.684Y-42.132
X174.684Y-61.105
X174.684Y-63.645
X174.684Y-82.618
X174.684Y-85.158
X174.684Y-104.13
X174.684Y-106.67
X174.684Y-125.643
X174.684Y-128.183
X177.224Y-39.592
X177.224Y-42.132
X177.224Y-61.105
X177.224Y-63.645
X177.224Y-82.618
X177.224Y-85.158
X177.224Y-104.13
X177.224Y-106.67
X177.224Y-125.643
X177.224Y-128.183
X218.048Y-39.592
X218.048Y-42.132
X218.048Y-61.105
X218.048Y-63.645
X218.048Y-82.618
X218.048Y-85.158
X218.048Y-104.13
X218.048Y-106.67
X218.048Y-125.643
X218.048Y-128.183
X220.588Y-39.592
X220.588Y-42.132
X220.588Y-61.105
X220.588Y-63.645
X220.588Y-82.618
X220.588Y-85.158
X220.588Y-104.13
X220.588Y-106.67
X220.588Y-125.643
X220.588Y-128.183
X223.128Y-39.592
X223.128Y-42.132
X223.128Y-61.105
X223.128Y-63.645
X223.128Y-82.618
X223.128Y-85.158
X223.128Y-104.13
X223.128Y-106.67
X223.128Y-125.643
X223.128Y-128.183
X263.952Y-39.592
X263.952Y-42.132
X263.952Y-61.105
X263.952Y-63.645
X263.952Y-82.618
X263.952Y-85.158
X263.952Y-104.13
X263.952Y-106.67
X263.952Y-125.643
X263.952Y-128.183
X266.492Y-39.592
X266.492Y-42.132
X266.492Y-61.105
X266.492Y-63.645
X266.492Y-82.618
X266.492Y-85.158
X266.492Y-104.13
X266.492Y-106.67
X266.492Y-125.643
X266.492Y-128.183
X269.032Y-39.592
X269.032Y-42.132
X269.032Y-61.105
X269.032Y-63.645
X269.032Y-82.618
X269.032Y-85.158
X269.032Y-104.13
X269.032Y-106.67
X269.032Y-125.643
X269.032Y-128.183
T3
X17.5Y-17.5
X17.5Y-136.063
X285.873Y-17.5
T0
M30
