%TF.GenerationSoftware,KiCad,Pcbnew,(6.0.5)*%
%TF.CreationDate,2022-07-13T10:20:42-06:00*%
%TF.ProjectId,modem,6d6f6465-6d2e-46b6-9963-61645f706362,rev?*%
%TF.SameCoordinates,Original*%
%TF.FileFunction,Copper,L1,Top*%
%TF.FilePolarity,Positive*%
%FSLAX46Y46*%
G04 Gerber Fmt 4.6, Leading zero omitted, Abs format (unit mm)*
G04 Created by KiCad (PCBNEW (6.0.5)) date 2022-07-13 10:20:42*
%MOMM*%
%LPD*%
G01*
G04 APERTURE LIST*
%TA.AperFunction,ComponentPad*%
%ADD10O,1.700000X1.700000*%
%TD*%
%TA.AperFunction,ComponentPad*%
%ADD11C,1.700000*%
%TD*%
%TA.AperFunction,ViaPad*%
%ADD12C,0.800000*%
%TD*%
%TA.AperFunction,Conductor*%
%ADD13C,0.254000*%
%TD*%
G04 APERTURE END LIST*
%TO.C,G\u002A\u002A\u002A*%
G36*
X158165296Y-65514904D02*
G01*
X157466213Y-65514904D01*
X157466213Y-64201476D01*
X158165296Y-64201476D01*
X158165296Y-65514904D01*
G37*
G36*
X152170133Y-65514904D02*
G01*
X151471051Y-65514904D01*
X151471051Y-64201476D01*
X152170133Y-64201476D01*
X152170133Y-65514904D01*
G37*
G36*
X146153786Y-65514904D02*
G01*
X145454704Y-65514904D01*
X145454704Y-64201476D01*
X146153786Y-64201476D01*
X146153786Y-65514904D01*
G37*
G36*
X165942617Y-62381598D02*
G01*
X165941235Y-62268332D01*
X165940514Y-62125339D01*
X165940279Y-61980723D01*
X166321259Y-61980723D01*
X166412831Y-61899482D01*
X166452449Y-61864224D01*
X166518615Y-61805216D01*
X166606296Y-61726949D01*
X166710461Y-61633919D01*
X166826075Y-61530618D01*
X166948108Y-61421540D01*
X166963624Y-61407669D01*
X167080746Y-61302095D01*
X167186847Y-61204804D01*
X167277971Y-61119558D01*
X167350158Y-61050119D01*
X167399451Y-61000249D01*
X167421893Y-60973709D01*
X167422844Y-60971187D01*
X167405130Y-60928182D01*
X167360614Y-60881518D01*
X167302239Y-60842221D01*
X167247887Y-60822138D01*
X167202151Y-60817907D01*
X167122990Y-60815080D01*
X167019326Y-60813795D01*
X166900083Y-60814190D01*
X166816603Y-60815450D01*
X166670699Y-60819268D01*
X166561030Y-60825125D01*
X166481469Y-60834554D01*
X166425886Y-60849088D01*
X166388150Y-60870260D01*
X166362134Y-60899602D01*
X166343951Y-60933650D01*
X166336200Y-60972719D01*
X166329906Y-61050514D01*
X166325218Y-61163409D01*
X166322286Y-61307782D01*
X166321259Y-61480008D01*
X166321259Y-61980723D01*
X165940279Y-61980723D01*
X165940226Y-61948252D01*
X165940149Y-61757145D01*
X165940606Y-61511688D01*
X165942143Y-61306670D01*
X165944811Y-61140171D01*
X165948662Y-61010275D01*
X165953748Y-60915061D01*
X165960119Y-60852614D01*
X165965125Y-60828173D01*
X166003081Y-60748948D01*
X166066744Y-60661932D01*
X166144722Y-60579795D01*
X166225624Y-60515209D01*
X166267847Y-60491481D01*
X166299102Y-60479196D01*
X166335772Y-60469782D01*
X166383639Y-60462870D01*
X166448485Y-60458088D01*
X166536093Y-60455067D01*
X166652244Y-60453436D01*
X166802720Y-60452824D01*
X166872052Y-60452782D01*
X167037259Y-60453087D01*
X167165884Y-60454253D01*
X167263709Y-60456653D01*
X167336516Y-60460662D01*
X167390090Y-60466652D01*
X167430212Y-60474997D01*
X167462666Y-60486073D01*
X167475805Y-60491814D01*
X167578554Y-60553239D01*
X167667952Y-60639893D01*
X167732804Y-60727625D01*
X167793570Y-60819412D01*
X167799749Y-61694600D01*
X167801007Y-61951222D01*
X167800846Y-62166685D01*
X167799244Y-62342174D01*
X167796180Y-62478876D01*
X167791632Y-62577977D01*
X167785578Y-62640662D01*
X167782119Y-62658209D01*
X167746214Y-62734925D01*
X167683075Y-62819200D01*
X167603590Y-62900104D01*
X167518648Y-62966708D01*
X167439136Y-63008083D01*
X167430978Y-63010686D01*
X167380738Y-63018830D01*
X167296439Y-63025264D01*
X167185922Y-63029995D01*
X167057026Y-63033030D01*
X166917594Y-63034375D01*
X166775465Y-63034037D01*
X166638481Y-63032022D01*
X166514481Y-63028339D01*
X166411308Y-63022992D01*
X166336800Y-63015990D01*
X166304631Y-63009715D01*
X166223110Y-62968106D01*
X166136823Y-62899094D01*
X166057789Y-62814177D01*
X165998026Y-62724852D01*
X165990055Y-62708789D01*
X165977630Y-62681381D01*
X165967469Y-62654805D01*
X165959343Y-62624694D01*
X165953024Y-62586684D01*
X165948283Y-62536408D01*
X165946791Y-62506994D01*
X166321259Y-62506994D01*
X166333790Y-62533096D01*
X166364980Y-62576255D01*
X166376103Y-62589842D01*
X166430947Y-62655021D01*
X166869940Y-62655021D01*
X167017774Y-62654784D01*
X167129202Y-62653724D01*
X167210185Y-62651311D01*
X167266684Y-62647018D01*
X167304661Y-62640318D01*
X167330078Y-62630681D01*
X167348895Y-62617581D01*
X167355040Y-62612066D01*
X167393294Y-62564233D01*
X167412676Y-62522032D01*
X167415753Y-62487795D01*
X167417991Y-62417947D01*
X167419318Y-62319237D01*
X167419664Y-62198416D01*
X167418958Y-62062235D01*
X167418229Y-61993734D01*
X167412252Y-61512515D01*
X166866756Y-62000919D01*
X166738876Y-62115908D01*
X166621649Y-62222269D01*
X166518689Y-62316648D01*
X166433609Y-62395693D01*
X166370023Y-62456052D01*
X166331543Y-62494373D01*
X166321259Y-62506994D01*
X165946791Y-62506994D01*
X165944890Y-62469501D01*
X165942617Y-62381598D01*
G37*
G36*
X149161960Y-65514904D02*
G01*
X148462877Y-65514904D01*
X148462877Y-64201476D01*
X149161960Y-64201476D01*
X149161960Y-65514904D01*
G37*
G36*
X155178307Y-65514904D02*
G01*
X154479224Y-65514904D01*
X154479224Y-64201476D01*
X155178307Y-64201476D01*
X155178307Y-65514904D01*
G37*
G36*
X159669383Y-65514904D02*
G01*
X158970300Y-65514904D01*
X158970300Y-64201476D01*
X159669383Y-64201476D01*
X159669383Y-65514904D01*
G37*
G36*
X144649700Y-65514904D02*
G01*
X143950617Y-65514904D01*
X143950617Y-64201476D01*
X144649700Y-64201476D01*
X144649700Y-65514904D01*
G37*
G36*
X161173470Y-65514904D02*
G01*
X160474387Y-65514904D01*
X160474387Y-64201476D01*
X161173470Y-64201476D01*
X161173470Y-65514904D01*
G37*
G36*
X150666047Y-65514904D02*
G01*
X149966964Y-65514904D01*
X149966964Y-64201476D01*
X150666047Y-64201476D01*
X150666047Y-65514904D01*
G37*
G36*
X153674220Y-65514904D02*
G01*
X152975138Y-65514904D01*
X152975138Y-64201476D01*
X153674220Y-64201476D01*
X153674220Y-65514904D01*
G37*
G36*
X143166797Y-65514904D02*
G01*
X142467715Y-65514904D01*
X142467715Y-64201476D01*
X143166797Y-64201476D01*
X143166797Y-65514904D01*
G37*
G36*
X156661209Y-65514904D02*
G01*
X155962127Y-65514904D01*
X155962127Y-64201476D01*
X156661209Y-64201476D01*
X156661209Y-65514904D01*
G37*
G36*
X152641617Y-57528430D02*
G01*
X153524533Y-57528473D01*
X154396202Y-57528545D01*
X155255670Y-57528645D01*
X156101987Y-57528771D01*
X156934198Y-57528923D01*
X157751351Y-57529101D01*
X158552495Y-57529304D01*
X159336676Y-57529532D01*
X160102941Y-57529783D01*
X160850338Y-57530056D01*
X161577915Y-57530352D01*
X162284718Y-57530670D01*
X162969796Y-57531009D01*
X163632196Y-57531367D01*
X164270964Y-57531746D01*
X164885149Y-57532143D01*
X165473798Y-57532559D01*
X166035958Y-57532992D01*
X166570676Y-57533443D01*
X167077001Y-57533909D01*
X167553979Y-57534392D01*
X168000659Y-57534889D01*
X168416086Y-57535400D01*
X168799309Y-57535925D01*
X169149375Y-57536463D01*
X169465332Y-57537014D01*
X169746226Y-57537576D01*
X169991106Y-57538149D01*
X170199019Y-57538733D01*
X170369011Y-57539326D01*
X170500132Y-57539928D01*
X170591427Y-57540538D01*
X170641944Y-57541156D01*
X170652504Y-57541574D01*
X170696351Y-57578198D01*
X170728360Y-57640927D01*
X170741988Y-57713828D01*
X170739219Y-57752815D01*
X170734778Y-57778813D01*
X170729952Y-57801267D01*
X170721806Y-57820436D01*
X170707408Y-57836579D01*
X170683824Y-57849954D01*
X170648119Y-57860822D01*
X170597362Y-57869441D01*
X170528617Y-57876071D01*
X170438952Y-57880970D01*
X170325432Y-57884398D01*
X170185125Y-57886615D01*
X170015097Y-57887878D01*
X169812414Y-57888447D01*
X169574142Y-57888583D01*
X169297349Y-57888542D01*
X169202909Y-57888535D01*
X167772385Y-57888521D01*
X167779762Y-58187281D01*
X167782277Y-58342902D01*
X167780472Y-58463595D01*
X167773321Y-58556673D01*
X167759800Y-58629448D01*
X167738884Y-58689234D01*
X167709547Y-58743341D01*
X167699703Y-58758443D01*
X167639724Y-58847750D01*
X167706054Y-58941764D01*
X167731690Y-58979196D01*
X167749845Y-59012335D01*
X167762003Y-59049452D01*
X167769648Y-59098821D01*
X167774263Y-59168715D01*
X167777332Y-59267405D01*
X167779169Y-59349412D01*
X167780182Y-59475808D01*
X167777862Y-59589504D01*
X167772585Y-59681119D01*
X167764725Y-59741270D01*
X167763287Y-59747222D01*
X167715398Y-59855992D01*
X167635938Y-59960715D01*
X167534946Y-60049378D01*
X167483839Y-60081565D01*
X167369883Y-60144679D01*
X166882644Y-60149207D01*
X166709864Y-60150120D01*
X166574032Y-60149112D01*
X166469757Y-60145945D01*
X166391652Y-60140380D01*
X166334329Y-60132180D01*
X166299426Y-60123441D01*
X166179116Y-60065309D01*
X166074265Y-59976296D01*
X165991572Y-59865344D01*
X165937737Y-59741396D01*
X165919431Y-59616207D01*
X165927566Y-59527388D01*
X165954482Y-59467213D01*
X166005968Y-59423998D01*
X166017990Y-59417280D01*
X166099889Y-59394498D01*
X166177916Y-59408859D01*
X166242614Y-59455509D01*
X166284528Y-59529591D01*
X166291484Y-59557732D01*
X166306946Y-59625654D01*
X166329253Y-59677768D01*
X166363696Y-59716136D01*
X166415568Y-59742818D01*
X166490163Y-59759872D01*
X166592772Y-59769359D01*
X166728690Y-59773340D01*
X166847026Y-59773953D01*
X166981073Y-59772527D01*
X167098975Y-59768527D01*
X167193139Y-59762375D01*
X167255970Y-59754488D01*
X167272036Y-59750472D01*
X167324308Y-59723841D01*
X167361099Y-59681985D01*
X167384714Y-59618399D01*
X167397455Y-59526577D01*
X167401625Y-59400012D01*
X167401660Y-59384276D01*
X167400882Y-59282946D01*
X167397364Y-59214155D01*
X167389326Y-59168086D01*
X167374989Y-59134921D01*
X167352573Y-59104844D01*
X167350597Y-59102532D01*
X167327848Y-59077937D01*
X167303920Y-59060915D01*
X167270591Y-59049665D01*
X167219643Y-59042388D01*
X167142856Y-59037280D01*
X167032009Y-59032542D01*
X167030981Y-59032502D01*
X166919832Y-59027759D01*
X166842806Y-59022661D01*
X166791681Y-59015406D01*
X166758237Y-59004193D01*
X166734252Y-58987220D01*
X166711504Y-58962688D01*
X166711318Y-58962471D01*
X166669745Y-58886067D01*
X166662768Y-58802388D01*
X166690965Y-58725022D01*
X166700645Y-58711788D01*
X166720278Y-58690913D01*
X166744810Y-58676325D01*
X166782215Y-58666460D01*
X166840467Y-58659753D01*
X166927540Y-58654639D01*
X167009573Y-58651184D01*
X167278065Y-58640592D01*
X167339862Y-58571409D01*
X167366869Y-58539423D01*
X167384581Y-58509390D01*
X167394957Y-58471687D01*
X167399956Y-58416696D01*
X167401537Y-58334795D01*
X167401660Y-58267903D01*
X167401245Y-58165226D01*
X167398698Y-58095565D01*
X167392064Y-58049564D01*
X167379387Y-58017872D01*
X167358713Y-57991133D01*
X167339736Y-57971656D01*
X167277813Y-57909733D01*
X166423922Y-57909733D01*
X166361998Y-57971656D01*
X166320083Y-58026809D01*
X166300441Y-58080078D01*
X166300075Y-58086545D01*
X166286680Y-58137054D01*
X166253619Y-58194096D01*
X166245231Y-58204688D01*
X166200243Y-58248301D01*
X166150932Y-58266797D01*
X166098478Y-58269866D01*
X166031993Y-58264013D01*
X165987643Y-58241034D01*
X165960402Y-58211609D01*
X165934543Y-58172047D01*
X165922573Y-58128499D01*
X165921675Y-58065952D01*
X165924648Y-58020951D01*
X165935063Y-57888549D01*
X149412340Y-57888549D01*
X148274210Y-57888522D01*
X147175700Y-57888441D01*
X146116911Y-57888306D01*
X145097943Y-57888118D01*
X144118899Y-57887876D01*
X143179878Y-57887581D01*
X142280982Y-57887232D01*
X141422311Y-57886831D01*
X140603968Y-57886376D01*
X139826052Y-57885869D01*
X139088666Y-57885308D01*
X138391909Y-57884696D01*
X137735883Y-57884030D01*
X137120689Y-57883313D01*
X136546428Y-57882543D01*
X136013200Y-57881721D01*
X135521108Y-57880847D01*
X135070252Y-57879921D01*
X134660732Y-57878944D01*
X134292651Y-57877914D01*
X133966108Y-57876834D01*
X133681206Y-57875702D01*
X133438044Y-57874519D01*
X133236725Y-57873285D01*
X133077348Y-57872000D01*
X132960016Y-57870664D01*
X132884828Y-57869277D01*
X132851887Y-57867840D01*
X132850337Y-57867527D01*
X132813631Y-57828793D01*
X132785820Y-57767116D01*
X132773748Y-57701872D01*
X132778469Y-57664050D01*
X132803199Y-57618525D01*
X132835698Y-57576080D01*
X132878603Y-57528415D01*
X151748407Y-57528415D01*
X152641617Y-57528430D01*
G37*
G36*
X147657873Y-65514904D02*
G01*
X146958791Y-65514904D01*
X146958791Y-64201476D01*
X147657873Y-64201476D01*
X147657873Y-65514904D01*
G37*
%TD*%
D10*
%TO.P,X1,6,GPIO2*%
%TO.N,GPIO2*%
X154290000Y-54870000D03*
D11*
%TO.P,X1,5,GPIO1*%
%TO.N,GPIO1*%
X154290000Y-52330000D03*
D10*
%TO.P,X1,4,SCL*%
%TO.N,SCL*%
X151750000Y-54870000D03*
D11*
%TO.P,X1,3,SDA*%
%TO.N,SDA*%
X151750000Y-52330000D03*
D10*
%TO.P,X1,2,GND*%
%TO.N,GND*%
X149210000Y-54870000D03*
%TO.P,X1,1,VCC*%
%TO.N,+3V3*%
X149210000Y-52330000D03*
%TD*%
D12*
%TO.N,GND*%
X156500000Y-53190000D03*
%TD*%
D13*
%TO.N,GND*%
X150480000Y-53600000D02*
X156090000Y-53600000D01*
X156090000Y-53600000D02*
X156500000Y-53190000D01*
X149210000Y-54870000D02*
X150480000Y-53600000D01*
%TD*%
M02*
