%TF.GenerationSoftware,KiCad,Pcbnew,(6.0.5)*%
%TF.CreationDate,2022-07-13T10:20:42-06:00*%
%TF.ProjectId,modem,6d6f6465-6d2e-46b6-9963-61645f706362,rev?*%
%TF.SameCoordinates,Original*%
%TF.FileFunction,Soldermask,Top*%
%TF.FilePolarity,Negative*%
%FSLAX46Y46*%
G04 Gerber Fmt 4.6, Leading zero omitted, Abs format (unit mm)*
G04 Created by KiCad (PCBNEW (6.0.5)) date 2022-07-13 10:20:42*
%MOMM*%
%LPD*%
G01*
G04 APERTURE LIST*
%ADD10O,1.700000X1.700000*%
%ADD11C,1.700000*%
%ADD12C,0.800000*%
G04 APERTURE END LIST*
%TO.C,G\u002A\u002A\u002A*%
G36*
X152170133Y-65504904D02*
G01*
X151449866Y-65504904D01*
X151449866Y-64191476D01*
X152170133Y-64191476D01*
X152170133Y-65504904D01*
G37*
G36*
X143145613Y-65504904D02*
G01*
X142446530Y-65504904D01*
X142446530Y-64191476D01*
X143145613Y-64191476D01*
X143145613Y-65504904D01*
G37*
G36*
X150666047Y-65504904D02*
G01*
X149966964Y-65504904D01*
X149966964Y-64191476D01*
X150666047Y-64191476D01*
X150666047Y-65504904D01*
G37*
G36*
X155157123Y-65504904D02*
G01*
X154458040Y-65504904D01*
X154458040Y-64191476D01*
X155157123Y-64191476D01*
X155157123Y-65504904D01*
G37*
G36*
X149161960Y-65504904D02*
G01*
X148462877Y-65504904D01*
X148462877Y-64191476D01*
X149161960Y-64191476D01*
X149161960Y-65504904D01*
G37*
G36*
X147657873Y-65504904D02*
G01*
X146958791Y-65504904D01*
X146958791Y-64191476D01*
X147657873Y-64191476D01*
X147657873Y-65504904D01*
G37*
G36*
X161173470Y-65504904D02*
G01*
X160474387Y-65504904D01*
X160474387Y-64191476D01*
X161173470Y-64191476D01*
X161173470Y-65504904D01*
G37*
G36*
X158165296Y-65504904D02*
G01*
X157466213Y-65504904D01*
X157466213Y-64191476D01*
X158165296Y-64191476D01*
X158165296Y-65504904D01*
G37*
G36*
X167005093Y-57518518D02*
G01*
X167127918Y-57519194D01*
X167220630Y-57520998D01*
X167289357Y-57524483D01*
X167340228Y-57530202D01*
X167379370Y-57538708D01*
X167412910Y-57550554D01*
X167446978Y-57566295D01*
X167462712Y-57574097D01*
X167578651Y-57652891D01*
X167675038Y-57759460D01*
X167742683Y-57882450D01*
X167762324Y-57944313D01*
X167774592Y-58020964D01*
X167779660Y-58122533D01*
X167777723Y-58255712D01*
X167773944Y-58340993D01*
X167764804Y-58479911D01*
X167752486Y-58584693D01*
X167734949Y-58663556D01*
X167710151Y-58724716D01*
X167676049Y-58776391D01*
X167661369Y-58793949D01*
X167645494Y-58818473D01*
X167647023Y-58846029D01*
X167668880Y-58888408D01*
X167694726Y-58928513D01*
X167732146Y-58993328D01*
X167758112Y-59061746D01*
X167773768Y-59141878D01*
X167780258Y-59241833D01*
X167778729Y-59369723D01*
X167773243Y-59484740D01*
X167763155Y-59622272D01*
X167748493Y-59726771D01*
X167725804Y-59807555D01*
X167691632Y-59873946D01*
X167642524Y-59935264D01*
X167585524Y-59991219D01*
X167530215Y-60038140D01*
X167474234Y-60074598D01*
X167411404Y-60101841D01*
X167335548Y-60121118D01*
X167240490Y-60133679D01*
X167120052Y-60140773D01*
X166968058Y-60143649D01*
X166831134Y-60143795D01*
X166655411Y-60142050D01*
X166517654Y-60137973D01*
X166413513Y-60131308D01*
X166338637Y-60121796D01*
X166298150Y-60112361D01*
X166226303Y-60080502D01*
X166147459Y-60031281D01*
X166103969Y-59997084D01*
X166003371Y-59886773D01*
X165942518Y-59766100D01*
X165919165Y-59630346D01*
X165918757Y-59608011D01*
X165922031Y-59532221D01*
X165935176Y-59482440D01*
X165963179Y-59442596D01*
X165973328Y-59432060D01*
X166017468Y-59396335D01*
X166063886Y-59385171D01*
X166113941Y-59389029D01*
X166186397Y-59406100D01*
X166234489Y-59440037D01*
X166267447Y-59500222D01*
X166286930Y-59564851D01*
X166314956Y-59642830D01*
X166357591Y-59696093D01*
X166385798Y-59717500D01*
X166412479Y-59734411D01*
X166439488Y-59746767D01*
X166473445Y-59755152D01*
X166520973Y-59760154D01*
X166588694Y-59762357D01*
X166683229Y-59762347D01*
X166811200Y-59760711D01*
X166864736Y-59759868D01*
X167005658Y-59757430D01*
X167110575Y-59754740D01*
X167185846Y-59751001D01*
X167237831Y-59745412D01*
X167272890Y-59737178D01*
X167297383Y-59725500D01*
X167317669Y-59709579D01*
X167325861Y-59702003D01*
X167348653Y-59678726D01*
X167364022Y-59654068D01*
X167373427Y-59619647D01*
X167378331Y-59567078D01*
X167380193Y-59487980D01*
X167380475Y-59388572D01*
X167380027Y-59278491D01*
X167377753Y-59202347D01*
X167372257Y-59151710D01*
X167362143Y-59118151D01*
X167346016Y-59093238D01*
X167328477Y-59074500D01*
X167302183Y-59051113D01*
X167273241Y-59036024D01*
X167232152Y-59027430D01*
X167169418Y-59023528D01*
X167075542Y-59022516D01*
X167054460Y-59022502D01*
X166913356Y-59018891D01*
X166809132Y-59006336D01*
X166736779Y-58982249D01*
X166691290Y-58944043D01*
X166667654Y-58889131D01*
X166660882Y-58819238D01*
X166664718Y-58758215D01*
X166681161Y-58713701D01*
X166715980Y-58682768D01*
X166774940Y-58662485D01*
X166863810Y-58649925D01*
X166988356Y-58642156D01*
X167011425Y-58641184D01*
X167121758Y-58636228D01*
X167198288Y-58630679D01*
X167249563Y-58622750D01*
X167284131Y-58610651D01*
X167310540Y-58592596D01*
X167329547Y-58574661D01*
X167354909Y-58546435D01*
X167371546Y-58516201D01*
X167381647Y-58474220D01*
X167387402Y-58410754D01*
X167391000Y-58316064D01*
X167391470Y-58299265D01*
X167390980Y-58159914D01*
X167379919Y-58056650D01*
X167356998Y-57984221D01*
X167320926Y-57937372D01*
X167298924Y-57922622D01*
X167261137Y-57914184D01*
X167185004Y-57907498D01*
X167074517Y-57902762D01*
X166933670Y-57900173D01*
X166835789Y-57899733D01*
X166678887Y-57900136D01*
X166558744Y-57902560D01*
X166469752Y-57908821D01*
X166406305Y-57920740D01*
X166362792Y-57940134D01*
X166333607Y-57968822D01*
X166313141Y-58008622D01*
X166295785Y-58061354D01*
X166291424Y-58076257D01*
X166256281Y-58169519D01*
X166212223Y-58226842D01*
X166152448Y-58254603D01*
X166095553Y-58259866D01*
X166013305Y-58247090D01*
X165958234Y-58206520D01*
X165927685Y-58134792D01*
X165918956Y-58036066D01*
X165939500Y-57898938D01*
X165997742Y-57772588D01*
X166089260Y-57663189D01*
X166209635Y-57576916D01*
X166267626Y-57549107D01*
X166302161Y-57538727D01*
X166353126Y-57530812D01*
X166425581Y-57525092D01*
X166524585Y-57521300D01*
X166655197Y-57519166D01*
X166822477Y-57518424D01*
X166846028Y-57518415D01*
X167005093Y-57518518D01*
G37*
G36*
X156661209Y-65504904D02*
G01*
X155962127Y-65504904D01*
X155962127Y-64191476D01*
X156661209Y-64191476D01*
X156661209Y-65504904D01*
G37*
G36*
X146153786Y-65504904D02*
G01*
X145454704Y-65504904D01*
X145454704Y-64191476D01*
X146153786Y-64191476D01*
X146153786Y-65504904D01*
G37*
G36*
X153653036Y-65504904D02*
G01*
X152953953Y-65504904D01*
X152953953Y-64191476D01*
X153653036Y-64191476D01*
X153653036Y-65504904D01*
G37*
G36*
X161067548Y-60865538D02*
G01*
X133782143Y-60865538D01*
X133782143Y-58937765D01*
X161067548Y-58937765D01*
X161067548Y-60865538D01*
G37*
G36*
X159669383Y-65504904D02*
G01*
X158970300Y-65504904D01*
X158970300Y-64191476D01*
X159669383Y-64191476D01*
X159669383Y-65504904D01*
G37*
G36*
X165944459Y-62414873D02*
G01*
X165942566Y-62305208D01*
X165941380Y-62166657D01*
X165940728Y-61995042D01*
X165940440Y-61786187D01*
X165940407Y-61732958D01*
X165940250Y-61436551D01*
X166321259Y-61436551D01*
X166321724Y-61578398D01*
X166323030Y-61705046D01*
X166325044Y-61810711D01*
X166327633Y-61889610D01*
X166330664Y-61935958D01*
X166332970Y-61945938D01*
X166351022Y-61932342D01*
X166396787Y-61893773D01*
X166466452Y-61833564D01*
X166556201Y-61755044D01*
X166662220Y-61661546D01*
X166780693Y-61556399D01*
X166857281Y-61488112D01*
X166982686Y-61375708D01*
X167098700Y-61270958D01*
X167201317Y-61177539D01*
X167286534Y-61099124D01*
X167350345Y-61039389D01*
X167388746Y-61002010D01*
X167397719Y-60992131D01*
X167411371Y-60963904D01*
X167403051Y-60934253D01*
X167368546Y-60890182D01*
X167362418Y-60883277D01*
X167299282Y-60812577D01*
X166955319Y-60805362D01*
X166788607Y-60803015D01*
X166658527Y-60804278D01*
X166559444Y-60809839D01*
X166485723Y-60820390D01*
X166431728Y-60836621D01*
X166391824Y-60859222D01*
X166371560Y-60876864D01*
X166355801Y-60893517D01*
X166343734Y-60911591D01*
X166334866Y-60936569D01*
X166328704Y-60973936D01*
X166324757Y-61029174D01*
X166322530Y-61107767D01*
X166321532Y-61215198D01*
X166321269Y-61356950D01*
X166321259Y-61436551D01*
X165940250Y-61436551D01*
X165939942Y-60852672D01*
X165994549Y-60743088D01*
X166074468Y-60621702D01*
X166181033Y-60529634D01*
X166273657Y-60479851D01*
X166304738Y-60467483D01*
X166339018Y-60458071D01*
X166382223Y-60451309D01*
X166440077Y-60446889D01*
X166518302Y-60444504D01*
X166622625Y-60443847D01*
X166758768Y-60444611D01*
X166902121Y-60446129D01*
X167440491Y-60452443D01*
X167531626Y-60516535D01*
X167629149Y-60600572D01*
X167711644Y-60700892D01*
X167769076Y-60804356D01*
X167783505Y-60846312D01*
X167790180Y-60895070D01*
X167795305Y-60985739D01*
X167798871Y-61117887D01*
X167800871Y-61291084D01*
X167801299Y-61504900D01*
X167800145Y-61758903D01*
X167799970Y-61782827D01*
X167798306Y-61995398D01*
X167796659Y-62169865D01*
X167794788Y-62310493D01*
X167792454Y-62421544D01*
X167789415Y-62507284D01*
X167785433Y-62571977D01*
X167780266Y-62619885D01*
X167773676Y-62655275D01*
X167765422Y-62682408D01*
X167755264Y-62705551D01*
X167747153Y-62721171D01*
X167671944Y-62825528D01*
X167568842Y-62918839D01*
X167456005Y-62986291D01*
X167424280Y-62998818D01*
X167387426Y-63008385D01*
X167339564Y-63015381D01*
X167274815Y-63020191D01*
X167187299Y-63023202D01*
X167071138Y-63024802D01*
X166920453Y-63025377D01*
X166861459Y-63025408D01*
X166698099Y-63025095D01*
X166571212Y-63023896D01*
X166474904Y-63021421D01*
X166403283Y-63017278D01*
X166350455Y-63011077D01*
X166310528Y-63002428D01*
X166277609Y-62990941D01*
X166266156Y-62985952D01*
X166162679Y-62921169D01*
X166066836Y-62829761D01*
X165993710Y-62726813D01*
X165980328Y-62700124D01*
X165970570Y-62676072D01*
X165962554Y-62648193D01*
X165956107Y-62612311D01*
X165951058Y-62564247D01*
X165948002Y-62512785D01*
X166321259Y-62512785D01*
X166335205Y-62545926D01*
X166369186Y-62588866D01*
X166373257Y-62593023D01*
X166391700Y-62610493D01*
X166411262Y-62623533D01*
X166438000Y-62632791D01*
X166477967Y-62638914D01*
X166537220Y-62642552D01*
X166621812Y-62644350D01*
X166737800Y-62644957D01*
X166859315Y-62645021D01*
X167005420Y-62644880D01*
X167115317Y-62644032D01*
X167195164Y-62641839D01*
X167251122Y-62637665D01*
X167289351Y-62630870D01*
X167316009Y-62620817D01*
X167337258Y-62606869D01*
X167352814Y-62593928D01*
X167412252Y-62542836D01*
X167418618Y-62032544D01*
X167419978Y-61853653D01*
X167419168Y-61711899D01*
X167416224Y-61608565D01*
X167411184Y-61544933D01*
X167404085Y-61522287D01*
X167403752Y-61522252D01*
X167383669Y-61535792D01*
X167336804Y-61573696D01*
X167267782Y-61631890D01*
X167181227Y-61706300D01*
X167081764Y-61792850D01*
X166974017Y-61887467D01*
X166862611Y-61986076D01*
X166752171Y-62084602D01*
X166647321Y-62178971D01*
X166552685Y-62265108D01*
X166472888Y-62338940D01*
X166421885Y-62387332D01*
X166370289Y-62441201D01*
X166333994Y-62486775D01*
X166321259Y-62512785D01*
X165948002Y-62512785D01*
X165947232Y-62499827D01*
X165944459Y-62414873D01*
G37*
G36*
X144649700Y-65504904D02*
G01*
X143950617Y-65504904D01*
X143950617Y-64191476D01*
X144649700Y-64191476D01*
X144649700Y-65504904D01*
G37*
%TD*%
D10*
%TO.C,X1*%
X154290000Y-54870000D03*
D11*
X154290000Y-52330000D03*
D10*
X151750000Y-54870000D03*
D11*
X151750000Y-52330000D03*
D10*
X149210000Y-54870000D03*
X149210000Y-52330000D03*
%TD*%
D12*
X156500000Y-53190000D03*
M02*
