<?xml version="1.0" encoding="UTF-8"?><svg id="Layer_2" xmlns="http://www.w3.org/2000/svg" viewBox="0 0 125.37 51.01"><defs><style>.cls-1{fill:none;stroke:#231f20;stroke-miterlimit:10;}</style></defs><g id="Layer_1-2"><path class="cls-1" d="M97.6,50.51h-5.96c-.18,0-.34-.09-.43-.25l-2.09-3.61H36.26l-2.09,3.61c-.09,.15-.25,.25-.43,.25h-5.96c-.17,0-.33-.09-.42-.23l-2.31-3.63h-3.3c-.17,0-.34-.09-.43-.24l-1.34-2.18h-4.06c-.17,0-.33-.09-.42-.23l-1.92-2.93H1c-.16,0-.3-.07-.4-.2-.09-.12-.13-.28-.09-.43L5.97,20.1c.03-.1,.08-.18,.15-.25L26.96,1.67c.09-.08,.21-.12,.33-.12h23.2l.28-.72c.07-.19,.26-.32,.47-.32h22.9c.21,0,.39,.13,.47,.32l.28,.72h23.25c.12,0,.24,.04,.33,.12l20.91,18.19c.08,.07,.13,.15,.16,.25l5.33,20.35c.04,.15,0,.31-.09,.43-.09,.12-.24,.19-.4,.19h-12.57l-1.93,2.93c-.09,.14-.25,.23-.42,.23h-4.07l-1.33,2.17c-.09,.15-.25,.24-.43,.24h-3.3l-2.31,3.63c-.09,.14-.25,.23-.42,.23Z"/></g></svg>